<svg xmlns="http://www.w3.org/2000/svg" width="73.583" height="24" viewBox="0 0 73.583 24"><g transform="translate(-10 -0.877)"><path d="M19.486,11.924V9.38H28a8.077,8.077,0,0,1,.142,1.56,8.4,8.4,0,0,1-2.208,5.94,8.508,8.508,0,0,1-6.49,2.615A9.433,9.433,0,0,1,10,10.178a9.438,9.438,0,0,1,9.442-9.3,8.865,8.865,0,0,1,6.383,2.571l-1.8,1.791a6.676,6.676,0,0,0-11.259,4.947,6.671,6.671,0,0,0,6.676,6.764,6.225,6.225,0,0,0,4.7-1.862,5.284,5.284,0,0,0,1.383-3.165Z" fill="#fff"/><path d="M2174.021,754.993a6.011,6.011,0,1,1-6.011-5.993A5.912,5.912,0,0,1,2174.021,754.993Zm-2.633,0a3.387,3.387,0,1,0-3.378,3.635A3.451,3.451,0,0,0,2171.388,754.993Z" transform="translate(-2132.921 -741.491)" fill="#fff"/><path d="M2174.021,754.993a6.011,6.011,0,1,1-6.011-5.993A5.912,5.912,0,0,1,2174.021,754.993Zm-2.633,0a3.387,3.387,0,1,0-3.378,3.635A3.451,3.451,0,0,0,2171.388,754.993Z" transform="translate(-2119.801 -741.491)" fill="#fff"/><path d="M5133.472,749.363v10.763c0,4.424-2.606,6.241-5.7,6.241a5.719,5.719,0,0,1-5.311-3.546l2.3-.949a3.315,3.315,0,0,0,3.014,2.128c1.977,0,3.2-1.223,3.2-3.511v-.869h-.088a4.088,4.088,0,0,1-3.156,1.365,6,6,0,0,1,0-11.986,4.148,4.148,0,0,1,3.156,1.339h.088v-.975Zm-2.313,5.656a3.385,3.385,0,0,0-3.2-3.661,3.648,3.648,0,0,0,0,7.27,3.345,3.345,0,0,0,3.191-3.608Z" transform="translate(-5066.671 -741.491)" fill="#fff"/><path d="M6625.633,80V97.554H6623V80Z" transform="translate(-6554.373 -78.422)" fill="#fff"/><path d="M7072.722,756.97l2.039,1.356a5.958,5.958,0,0,1-4.991,2.66,5.86,5.86,0,0,1-5.94-5.993,5.693,5.693,0,0,1,5.647-5.993,5.577,5.577,0,0,1,5.125,3.812l.275.683-8.015,3.316a3.05,3.05,0,0,0,2.908,1.817A3.441,3.441,0,0,0,7072.722,756.97Zm-6.295-2.154,5.364-2.225a2.323,2.323,0,0,0-2.225-1.277,3.28,3.28,0,0,0-3.129,3.5Z" transform="translate(-6991.292 -741.491)" fill="#fff"/></g></svg>