<svg xmlns="http://www.w3.org/2000/svg" width="94.76" height="40.447" viewBox="0 0 94.76 40.447"><g transform="translate(-20 -20.777)"><g transform="translate(-259.579 -142.072)"><path d="M298.831,203.3h.972c-.319,0-.635-.009-.95-.023Z" fill="#f6c43f"/><path d="M298.844,203.272l-.013.023.023-.023Z" fill="#f6c43f"/><path d="M307.766,187.668,299.8,173.88l-7.961,13.789Z" fill="none"/><path d="M282.79,172.135l0,0,0,0Z" fill="none"/><path d="M317.821,173.88h0l-15.609,4.171,5.555,9.617-8.922,15.6h.009c.315.014.631.023.95.023a20.231,20.231,0,0,0,18.018-29.416Z" fill="#ffc840"/><path d="M299.8,173.88l2.409,4.171,15.609-4.171Z" fill="#e19b32"/><path d="M317.821,173.88a20.229,20.229,0,0,0-35.031-1.745v.007l0,.006,11.418,11.416,5.592-9.684Z" fill="#d85044"/><path d="M291.705,187.434l.137.235,2.369-4.1-11.419-11.417Z" fill="#b04337"/><path d="M307.766,187.668l-8.922,15.6,4.182-15.6H291.842l-9.052-15.526,0,0a20.226,20.226,0,0,0,16.057,31.134l8.922-15.6Z" fill="#179b5e"/><path d="M307.766,187.668h-4.74l-4.182,15.6Z" fill="#0e8a52"/><circle cx="9.193" cy="9.193" r="9.193" transform="translate(290.61 173.88)" fill="#fff"/><circle cx="7.484" cy="7.484" r="7.484" transform="translate(292.319 175.588)" fill="#4683ef"/></g><path d="M5.04.192A4.524,4.524,0,0,1,2.76-.4a4.258,4.258,0,0,1-1.62-1.62A4.524,4.524,0,0,1,.552-4.3a4.524,4.524,0,0,1,.588-2.28A4.258,4.258,0,0,1,2.76-8.2a4.524,4.524,0,0,1,2.28-.588,4.255,4.255,0,0,1,1.77.36A4.193,4.193,0,0,1,8.22-7.38l-.96.924a2.958,2.958,0,0,0-.984-.786A2.834,2.834,0,0,0,5.04-7.5a3.2,3.2,0,0,0-1.578.4A2.938,2.938,0,0,0,2.328-5.982,3.306,3.306,0,0,0,1.908-4.3a3.306,3.306,0,0,0,.42,1.686A2.938,2.938,0,0,0,3.462-1.488a3.2,3.2,0,0,0,1.578.4,3.088,3.088,0,0,0,2.448-1.2l.972.936a4.375,4.375,0,0,1-1.5,1.14A4.491,4.491,0,0,1,5.04.192ZM9.624-8.592h1.32v2.34l-.06.936h.06a2.014,2.014,0,0,1,.786-.714,2.324,2.324,0,0,1,1.122-.282,2.173,2.173,0,0,1,1.7.654,2.567,2.567,0,0,1,.588,1.782V0h-1.32V-3.7a1.376,1.376,0,0,0-.366-1.044,1.328,1.328,0,0,0-.954-.348,1.343,1.343,0,0,0-.8.252,1.75,1.75,0,0,0-.558.666,1.969,1.969,0,0,0-.2.882V0H9.624Zm7.02,2.472H17.9v.9h.06a1.7,1.7,0,0,1,.708-.774A2.025,2.025,0,0,1,19.74-6.3a2.013,2.013,0,0,1,.744.12v1.368A2.811,2.811,0,0,0,19.536-5a1.409,1.409,0,0,0-.81.24,1.675,1.675,0,0,0-.558.642,1.921,1.921,0,0,0-.2.882V0h-1.32ZM24,.192a3.231,3.231,0,0,1-1.656-.426A3,3,0,0,1,21.2-1.4,3.386,3.386,0,0,1,20.8-3.06,3.386,3.386,0,0,1,21.2-4.716a3,3,0,0,1,1.14-1.17A3.231,3.231,0,0,1,24-6.312a3.2,3.2,0,0,1,1.656.432A3.038,3.038,0,0,1,26.8-4.7,3.362,3.362,0,0,1,27.2-3.06,3.387,3.387,0,0,1,26.8-1.4a3,3,0,0,1-1.14,1.17A3.231,3.231,0,0,1,24,.192ZM24-1.02a1.86,1.86,0,0,0,.936-.246,1.809,1.809,0,0,0,.69-.708,2.192,2.192,0,0,0,.258-1.086,2.158,2.158,0,0,0-.258-1.08,1.819,1.819,0,0,0-.69-.7A1.86,1.86,0,0,0,24-5.088a1.86,1.86,0,0,0-.936.246,1.819,1.819,0,0,0-.69.7,2.158,2.158,0,0,0-.258,1.08,2.192,2.192,0,0,0,.258,1.086,1.809,1.809,0,0,0,.69.708A1.86,1.86,0,0,0,24-1.02Zm4.3-5.1h1.26v.8h.06a2.059,2.059,0,0,1,.78-.72,2.214,2.214,0,0,1,1.08-.276,2.136,2.136,0,0,1,1.152.306,1.753,1.753,0,0,1,.708.81,2.38,2.38,0,0,1,.834-.81,2.388,2.388,0,0,1,1.23-.306A1.986,1.986,0,0,1,37-5.67a2.608,2.608,0,0,1,.546,1.746V0h-1.32V-3.7q0-1.392-1.188-1.392A1.273,1.273,0,0,0,34-4.572,1.987,1.987,0,0,0,33.588-3.3V0h-1.32V-3.7q0-1.392-1.224-1.392a1.246,1.246,0,0,0-1.026.516,2.007,2.007,0,0,0-.4,1.272V0H28.3ZM41.844.192a3.123,3.123,0,0,1-1.614-.42,2.96,2.96,0,0,1-1.116-1.158,3.417,3.417,0,0,1-.4-1.662,3.472,3.472,0,0,1,.39-1.626,3.067,3.067,0,0,1,1.086-1.194,2.882,2.882,0,0,1,1.584-.444,3.048,3.048,0,0,1,1.6.408,2.671,2.671,0,0,1,1.032,1.116,3.52,3.52,0,0,1,.354,1.6,3.067,3.067,0,0,1-.036.42H40.032a1.864,1.864,0,0,0,.606,1.314A1.84,1.84,0,0,0,41.88-1a1.811,1.811,0,0,0,.978-.258,1.937,1.937,0,0,0,.666-.7l1.116.528A3.288,3.288,0,0,1,43.512-.24,3.1,3.1,0,0,1,41.844.192ZM43.416-3.78a1.525,1.525,0,0,0-.2-.642,1.46,1.46,0,0,0-.546-.534,1.731,1.731,0,0,0-.894-.216,1.587,1.587,0,0,0-1.074.378,1.959,1.959,0,0,0-.606,1.014ZM.984,3.408H3.732a4.811,4.811,0,0,1,2.328.54A3.73,3.73,0,0,1,7.59,5.466,4.594,4.594,0,0,1,8.124,7.7,4.594,4.594,0,0,1,7.59,9.942,3.73,3.73,0,0,1,6.06,11.46,4.811,4.811,0,0,1,3.732,12H.984Zm2.724,7.308a3.068,3.068,0,0,0,2.25-.8A2.967,2.967,0,0,0,6.768,7.7,2.971,2.971,0,0,0,5.958,5.5a3.054,3.054,0,0,0-2.25-.8H2.328v6.024Zm8.352,1.476a3.123,3.123,0,0,1-1.614-.42A2.96,2.96,0,0,1,9.33,10.614a3.417,3.417,0,0,1-.4-1.662,3.472,3.472,0,0,1,.39-1.626A3.067,3.067,0,0,1,10.4,6.132a2.882,2.882,0,0,1,1.584-.444,3.048,3.048,0,0,1,1.6.408,2.671,2.671,0,0,1,1.032,1.116,3.52,3.52,0,0,1,.354,1.6,3.067,3.067,0,0,1-.036.42H10.248a1.864,1.864,0,0,0,.606,1.314A1.84,1.84,0,0,0,12.1,11a1.811,1.811,0,0,0,.978-.258,1.937,1.937,0,0,0,.666-.7l1.116.528a3.288,3.288,0,0,1-1.128,1.188A3.1,3.1,0,0,1,12.06,12.192ZM13.632,8.22a1.525,1.525,0,0,0-.2-.642,1.46,1.46,0,0,0-.546-.534,1.731,1.731,0,0,0-.894-.216,1.587,1.587,0,0,0-1.074.378,1.959,1.959,0,0,0-.606,1.014Zm1.74-2.34h1.476L18.54,10.3h.048L20.316,5.88h1.44L19.212,12h-1.32ZM3.468,24.192a3.161,3.161,0,0,1-3.1-2.376L1.644,21.3a2.39,2.39,0,0,0,.678,1.158,1.661,1.661,0,0,0,1.17.45,1.76,1.76,0,0,0,1.08-.33,1.067,1.067,0,0,0,.444-.906,1.106,1.106,0,0,0-.39-.87,4.426,4.426,0,0,0-1.362-.69l-.54-.192a3.921,3.921,0,0,1-1.452-.864,1.967,1.967,0,0,1-.588-1.488,2.129,2.129,0,0,1,.348-1.176A2.459,2.459,0,0,1,2,15.534a3.011,3.011,0,0,1,1.4-.318,2.769,2.769,0,0,1,1.8.546,2.69,2.69,0,0,1,.9,1.23l-1.212.516a1.564,1.564,0,0,0-.5-.72,1.443,1.443,0,0,0-.96-.312,1.609,1.609,0,0,0-.99.3.919.919,0,0,0-.4.768.9.9,0,0,0,.36.732,3.873,3.873,0,0,0,1.128.552l.54.18a4.36,4.36,0,0,1,1.71,1,2.535,2.535,0,0,1,.174,3.06,2.6,2.6,0,0,1-1.1.846A3.556,3.556,0,0,1,3.468,24.192Zm6.276,0a2.134,2.134,0,0,1-1.7-.666,2.725,2.725,0,0,1-.582-1.854V17.88h1.32v3.612a1.564,1.564,0,0,0,.354,1.116,1.225,1.225,0,0,0,.93.372,1.432,1.432,0,0,0,.828-.246,1.6,1.6,0,0,0,.552-.654,2.032,2.032,0,0,0,.192-.876V17.88h1.32V24H11.712v-.792H11.64a1.877,1.877,0,0,1-.78.708A2.376,2.376,0,0,1,9.744,24.192ZM14.5,17.88h1.26v.8h.06a2.059,2.059,0,0,1,.78-.72,2.214,2.214,0,0,1,1.08-.276,2.136,2.136,0,0,1,1.152.306,1.753,1.753,0,0,1,.708.81A2.333,2.333,0,0,1,21.6,17.688a1.986,1.986,0,0,1,1.6.642,2.608,2.608,0,0,1,.546,1.746V24h-1.32V20.3q0-1.392-1.188-1.392a1.273,1.273,0,0,0-1.044.516,1.987,1.987,0,0,0-.408,1.272V24h-1.32V20.3q0-1.392-1.224-1.392a1.246,1.246,0,0,0-1.026.516,2.007,2.007,0,0,0-.4,1.272V24H14.5Zm10.752,0h1.26v.8h.06a2.059,2.059,0,0,1,.78-.72,2.214,2.214,0,0,1,1.08-.276,2.136,2.136,0,0,1,1.152.306,1.753,1.753,0,0,1,.708.81,2.333,2.333,0,0,1,2.064-1.116,1.986,1.986,0,0,1,1.6.642,2.608,2.608,0,0,1,.546,1.746V24H33.18V20.3q0-1.392-1.188-1.392a1.273,1.273,0,0,0-1.044.516A1.987,1.987,0,0,0,30.54,20.7V24H29.22V20.3q0-1.392-1.224-1.392a1.246,1.246,0,0,0-1.026.516,2.007,2.007,0,0,0-.4,1.272V24h-1.32Zm11.508-.888a.881.881,0,1,1,.63-.258A.857.857,0,0,1,36.756,16.992Zm-.66.888h1.32V24H36.1ZM41.508,24.1a2.213,2.213,0,0,1-.768-.132,1.686,1.686,0,0,1-.588-.348,1.9,1.9,0,0,1-.516-1.4V19.044H38.568V17.88h1.068V16.152h1.32V17.88h1.488v1.164H40.956v2.88a1.006,1.006,0,0,0,.192.7.732.732,0,0,0,.624.24,1.1,1.1,0,0,0,.36-.054,1.5,1.5,0,0,0,.336-.174v1.284A2.31,2.31,0,0,1,41.508,24.1Z" transform="translate(70 34)" fill="#121215"/></g></svg>