<svg xmlns="http://www.w3.org/2000/svg" width="249.567" height="40.447" viewBox="0 0 249.567 40.447"><g transform="translate(-279.579 -162.849)"><path d="M298.831,203.3h.972c-.319,0-.635-.009-.95-.023Z" fill="#f6c43f"/><path d="M298.844,203.272l-.013.023.023-.023Z" fill="#f6c43f"/><path d="M307.766,187.668,299.8,173.88l-7.961,13.789Z" fill="none"/><path d="M282.79,172.135l0,0,0,0Z" fill="none"/><path d="M317.821,173.88h0l-15.609,4.171,5.555,9.617-8.922,15.6h.009c.315.014.631.023.95.023a20.231,20.231,0,0,0,18.018-29.416Z" fill="#ffc840"/><path d="M299.8,173.88l2.409,4.171,15.609-4.171Z" fill="#e19b32"/><path d="M317.821,173.88a20.229,20.229,0,0,0-35.031-1.745v.007l0,.006,11.418,11.416,5.592-9.684Z" fill="#d85044"/><path d="M291.705,187.434l.137.235,2.369-4.1-11.419-11.417Z" fill="#b04337"/><path d="M307.766,187.668l-8.922,15.6,4.182-15.6H291.842l-9.052-15.526,0,0a20.226,20.226,0,0,0,16.057,31.134l8.922-15.6Z" fill="#179b5e"/><path d="M307.766,187.668h-4.74l-4.182,15.6Z" fill="#0e8a52"/><circle cx="9.193" cy="9.193" r="9.193" transform="translate(290.61 173.88)" fill="#fff"/><circle cx="7.484" cy="7.484" r="7.484" transform="translate(292.319 175.588)" fill="#4683ef"/><path d="M339.339,189.559a7.144,7.144,0,0,1-2.692-2.692,7.9,7.9,0,0,1,0-7.626,7.154,7.154,0,0,1,2.692-2.693,7.506,7.506,0,0,1,3.794-.98,6.78,6.78,0,0,1,5.3,2.342l-1.581,1.541a4.909,4.909,0,0,0-1.652-1.311,4.788,4.788,0,0,0-2.071-.431,5.335,5.335,0,0,0-2.632.661,4.818,4.818,0,0,0-1.882,1.872,6.067,6.067,0,0,0,0,5.624,4.824,4.824,0,0,0,1.882,1.872,5.335,5.335,0,0,0,2.632.66,5.152,5.152,0,0,0,4.083-2l1.621,1.561a7.061,7.061,0,0,1-2.492,1.9,7.867,7.867,0,0,1-7.006-.3Z" fill="#fff"/><path d="M351.1,175.888h2.2v4.163l-.12,1.562h.12a3.18,3.18,0,0,1,1.261-1.181,3.734,3.734,0,0,1,1.822-.461,3.525,3.525,0,0,1,2.822,1.091,4.4,4.4,0,0,1,.941,2.973v6.185h-2.2v-5.885a2.4,2.4,0,0,0-.581-1.762,2.086,2.086,0,0,0-1.541-.58,2.152,2.152,0,0,0-1.311.42,2.816,2.816,0,0,0-.89,1.121,3.518,3.518,0,0,0-.321,1.481v5.205h-2.2Z" fill="#fff"/><path d="M362.949,180.292h2.082v1.481h.12a2.789,2.789,0,0,1,1.161-1.281,3.231,3.231,0,0,1,1.721-.521,2.738,2.738,0,0,1,1.181.221v2.281a3.366,3.366,0,0,0-1.521-.34,2.318,2.318,0,0,0-1.812.833,2.979,2.979,0,0,0-.73,2.037v5.217h-2.2Z" fill="#fff"/><path d="M372.6,189.849a4.93,4.93,0,0,1-1.851-1.891,5.778,5.778,0,0,1,0-5.4,4.937,4.937,0,0,1,1.851-1.891,5.512,5.512,0,0,1,5.344,0,4.88,4.88,0,0,1,1.842,1.891,5.863,5.863,0,0,1,0,5.4,4.873,4.873,0,0,1-1.842,1.891,5.512,5.512,0,0,1-5.344,0Zm4.143-1.731a3.015,3.015,0,0,0,1.1-1.141,3.416,3.416,0,0,0,.42-1.721,3.464,3.464,0,0,0-.42-1.742,2.957,2.957,0,0,0-4.053-1.131,2.855,2.855,0,0,0-1.1,1.131,3.535,3.535,0,0,0-.41,1.742,3.426,3.426,0,0,0,.42,1.721,3.015,3.015,0,0,0,1.1,1.141,2.833,2.833,0,0,0,1.461.4A2.868,2.868,0,0,0,376.74,188.118Z" fill="#fff"/><path d="M382.565,180.292h2.082v1.321h.12a3.33,3.33,0,0,1,1.281-1.181,3.613,3.613,0,0,1,1.761-.461,3.474,3.474,0,0,1,1.882.5,3.017,3.017,0,0,1,1.181,1.341,3.88,3.88,0,0,1,1.391-1.341,3.919,3.919,0,0,1,1.992-.5,3.256,3.256,0,0,1,2.642,1.071,4.381,4.381,0,0,1,.9,2.913v6.265h-2.2v-5.9a2.624,2.624,0,0,0-.491-1.782,1.861,1.861,0,0,0-1.451-.54,2.035,2.035,0,0,0-1.711.871,3.424,3.424,0,0,0-.651,2.111v5.245h-2.2v-5.9a2.59,2.59,0,0,0-.5-1.782,1.949,1.949,0,0,0-1.5-.54,1.989,1.989,0,0,0-1.681.871,3.457,3.457,0,0,0-.641,2.111v5.245h-2.2Z" fill="#fff"/><path d="M402.532,189.859a4.8,4.8,0,0,1-1.832-1.891,5.574,5.574,0,0,1-.66-2.712,5.657,5.657,0,0,1,.63-2.652,4.811,4.811,0,0,1,4.374-2.633,5.019,5.019,0,0,1,2.612.661,4.32,4.32,0,0,1,1.692,1.831,6,6,0,0,1,.58,2.693,3.341,3.341,0,0,1-.02.36c-.013.12-.02.187-.02.2h-7.646a2.886,2.886,0,0,0,.98,2.1,3.024,3.024,0,0,0,2,.74,2.9,2.9,0,0,0,2.642-1.6l1.882.9a5.15,5.15,0,0,1-1.832,1.951,5.487,5.487,0,0,1-5.384.05Zm5.154-5.824a2.42,2.42,0,0,0-.32-.981,2.322,2.322,0,0,0-.871-.851,2.848,2.848,0,0,0-1.471-.35,2.534,2.534,0,0,0-1.691.6,3.025,3.025,0,0,0-.971,1.582Z" fill="#fff"/><path d="M417.594,175.888h4.6a7.961,7.961,0,0,1,3.873.9,6.231,6.231,0,0,1,2.542,2.532,8.266,8.266,0,0,1,0,7.466,6.231,6.231,0,0,1-2.542,2.532,7.961,7.961,0,0,1-3.873.9h-4.6Zm4.544,12.19a5.115,5.115,0,0,0,3.753-1.331,5.709,5.709,0,0,0,0-7.376,5.1,5.1,0,0,0-3.753-1.341h-2.3v10.048Z" fill="#fff"/><path d="M433.657,189.859a4.8,4.8,0,0,1-1.831-1.891,5.564,5.564,0,0,1-.661-2.712,5.646,5.646,0,0,1,.631-2.652,4.808,4.808,0,0,1,4.373-2.633,5.017,5.017,0,0,1,2.612.661,4.314,4.314,0,0,1,1.692,1.831,6,6,0,0,1,.58,2.693,3.341,3.341,0,0,1-.02.36c-.013.12-.02.187-.02.2h-7.646a2.883,2.883,0,0,0,.981,2.1,3.021,3.021,0,0,0,2,.74,2.9,2.9,0,0,0,2.643-1.6l1.881.9a5.31,5.31,0,0,1-7.216,2Zm5.154-5.824a2.42,2.42,0,0,0-.32-.981,2.322,2.322,0,0,0-.871-.851,2.845,2.845,0,0,0-1.471-.35,2.534,2.534,0,0,0-1.691.6,3.025,3.025,0,0,0-.971,1.582Z" fill="#fff"/><path d="M442.054,180.292h2.462l2.722,7.085h.08l2.763-7.085H452.5l-4.144,9.928h-2.2Z" fill="#fff"/><path d="M459.969,189.5a5.3,5.3,0,0,1-1.962-2.922l2.122-.861a3.98,3.98,0,0,0,1.131,1.932,2.771,2.771,0,0,0,1.951.75,2.937,2.937,0,0,0,1.8-.55,1.782,1.782,0,0,0,.74-1.511,1.85,1.85,0,0,0-.65-1.452,7.415,7.415,0,0,0-2.272-1.151l-.9-.32a6.542,6.542,0,0,1-2.422-1.441,3.279,3.279,0,0,1-.98-2.482,3.553,3.553,0,0,1,.58-1.962,4.109,4.109,0,0,1,1.611-1.431,5.033,5.033,0,0,1,2.332-.53,4.624,4.624,0,0,1,3,.91,4.494,4.494,0,0,1,1.5,2.052l-2.022.861a2.613,2.613,0,0,0-.84-1.2,2.41,2.41,0,0,0-1.6-.521,2.682,2.682,0,0,0-1.651.5,1.534,1.534,0,0,0-.671,1.281,1.5,1.5,0,0,0,.6,1.221,6.463,6.463,0,0,0,1.882.921l.9.3a7.284,7.284,0,0,1,2.853,1.671,4.232,4.232,0,0,1,.29,5.105,4.353,4.353,0,0,1-1.832,1.411,5.944,5.944,0,0,1-2.292.46A5.284,5.284,0,0,1,459.969,189.5Z" fill="#fff"/><path d="M471.108,189.449a4.43,4.43,0,0,1-.951-3.012v-6.145h2.2v5.844q0,2.384,2.142,2.382a2.2,2.2,0,0,0,1.811-.87,3.267,3.267,0,0,0,.691-2.092v-5.264h2.2v9.928h-2.1V188.9H477a3.326,3.326,0,0,1-1.291,1.181,3.763,3.763,0,0,1-1.812.46A3.5,3.5,0,0,1,471.108,189.449Z" fill="#fff"/><path d="M482.087,180.292h2.082v1.321h.12a3.323,3.323,0,0,1,1.281-1.181,3.613,3.613,0,0,1,1.761-.461,3.474,3.474,0,0,1,1.882.5,3.023,3.023,0,0,1,1.181,1.341,3.864,3.864,0,0,1,1.391-1.341,3.919,3.919,0,0,1,1.992-.5,3.258,3.258,0,0,1,2.642,1.071,4.386,4.386,0,0,1,.9,2.913v6.265h-2.2v-5.9a2.624,2.624,0,0,0-.491-1.782,1.862,1.862,0,0,0-1.451-.54,2.033,2.033,0,0,0-1.711.871,3.424,3.424,0,0,0-.651,2.111v5.245h-2.2v-5.9a2.59,2.59,0,0,0-.5-1.782,1.949,1.949,0,0,0-1.5-.54,1.991,1.991,0,0,0-1.682.871,3.463,3.463,0,0,0-.64,2.111v5.245h-2.2Z" fill="#fff"/><path d="M500.122,180.292H502.2v1.321h.121a3.323,3.323,0,0,1,1.281-1.181,3.613,3.613,0,0,1,1.761-.461,3.473,3.473,0,0,1,1.881.5,3.011,3.011,0,0,1,1.181,1.341,3.875,3.875,0,0,1,1.392-1.341,3.918,3.918,0,0,1,1.991-.5,3.256,3.256,0,0,1,2.642,1.071,4.381,4.381,0,0,1,.9,2.913v6.265h-2.2v-5.9a2.624,2.624,0,0,0-.49-1.782,1.862,1.862,0,0,0-1.451-.54,2.036,2.036,0,0,0-1.712.871,3.43,3.43,0,0,0-.65,2.111v5.245h-2.2v-5.9a2.59,2.59,0,0,0-.5-1.782,1.95,1.95,0,0,0-1.5-.54,1.99,1.99,0,0,0-1.681.871,3.462,3.462,0,0,0-.64,2.111v5.245h-2.2Z" fill="#fff"/><path d="M518.367,178.26a1.5,1.5,0,1,1,1.05.43A1.426,1.426,0,0,1,518.367,178.26Zm-.05,2.032h2.2v9.928h-2.2Z" fill="#fff"/><path d="M526.313,190.326a2.583,2.583,0,0,1-.95-.6,3.222,3.222,0,0,1-.861-2.389v-5.1H522.76v-1.941H524.5v-2.963h2.2v2.963h2.422v1.941H526.7v4.643a1.748,1.748,0,0,0,.32,1.191,1.133,1.133,0,0,0,.981.411,2.175,2.175,0,0,0,1.141-.34v2.142a4.6,4.6,0,0,1-1.6.26A3.5,3.5,0,0,1,526.313,190.326Z" fill="#fff"/></g></svg>