<svg xmlns="http://www.w3.org/2000/svg" xml:space="preserve" viewBox="0 0 492.3 447.8"><path fill="#FBBC04" d="m167.6 440.9 2.6-1.4 4.1-1.5 5.8-2.1-.6-1.9a2 2 0 0 1 0-1.1v-.3a5.2 5.2 0 0 0-1.6-3.2 6.2 6.2 0 0 1-1.9-4.2l-.1-.8-.1-.3a4 4 0 0 1-1-2.3 3.8 3.8 0 0 1-1.3-2.6c-.1-.9-.4-1.7-.6-2.6-1.2-.7-1.9-1.7-2.6-2.6l-.1-.2-.4-.5c-.5-.6-1-1.2-1.2-2.1l-.1-.3-.4-1.1c-.7-1.1-1-2.4-1.3-3.5v-.1c-.1-.4-.6-.9-.7-1.1-.6-.7-.9-1.4-.7-2.3-.5-.6-.7-1.3-.9-2l-.5-1.2-6.2 1.9c-7.1 2.2-15.2 4.7-18.2 5l-1.7.2-3.6.3-11.7-.1-12.7-.1H94.4l-10.2.1-8.2.1-13.3.1-14.5.1-3.5.3-6.3.4c-3 0-5.9-.2-8.8-.3l-3.6-.2-1.2.1-2.8.1-3 .1c-.3 2.9-1.3 11.3-2.3 15l.6 19.5c3.3.6 14.5 2.6 17.9 2.6h38.1c10.4 0 20.9.1 31.3.4 3.1.1 6.3.4 10.1 1.1 2.5.4 45.6-1.6 48.4-2.2.8-1.1 2.8-2.3 4.5-3.2z"/><path fill="#34A852" d="m413.2 441.6 4.3-.5.8-.7 3.7-35.1-1.2.1-1.4.1c-.2.1-.6.2-1.1 0-.6-.3-1.3-.2-2-.2h-1.6l-1 .1-.9.1-.8-.1h-.8l-1.6-.1h-.2c-.3 0-1 0-1.6-.5-.5.3-1.1.7-1.8.8-.6.1-1.1-.1-1.5-.2l-.3-.1-1-.3h-.1c-.2-.1-.8-.2-1-.8-.1-.3-.4-.5-.8-.7-.7.5-1.5.6-2.5.4h-.5l-1.5.1h-.4l-1.1.6-1.1.6-1.5.6c-.9.3-7.6.5-13.9.6l-3.3.5h-.2c-1.4 0-4-.5-4.7-.6-12.8 0-2.7 0-3-.1-.8-.3-1.3-.5-1.9-.3-.6.2-1.2.1-1.7 0h-.4c-.7-.1-1.5 0-2.2.3-1.3.5-2.5.3-3.6.2h-.3l-.5-.1c-1-.1-1.6-.2-2.2.2-.6.4-1.3.4-1.8.4h-.3l-3-.1h-.5c-.3 0-.9 0-1.3-.5h-.8c-1 0-2-.4-2.7-1.1-.1-.1-.2-.2-.5-.1h-.1c-1.1.2-2.4.5-3.8.3h-.6l-1-.2-1.1-.5-.7-.3h-.1l-.8-.5h-1.3l-.4.1-1.8.1h-.2l-.4.4c-.7.8-1.8.9-2.7.3-.4.2-1 .1-1.4-.2h-.1l-.5.1-1.4.2-1.9.3-.2.1-.7.3-.9.1h-.3l-1 .1-.1-.8h-2l-.8-.2-.3-.1c-.3.2-.7.2-.8.2-.8 0-1.3.2-1.7.6-.4.3-.9.4-1.3.4l-.6-.2-.5.1c-1.2 0-2.3-.2-3.5-.3h-.4c-.2.1-.5.3-1 .3-.8-.1-1.5.2-2.4.5l-1.9.3c-.2.1-.6.2-1 .1s-.9 0-1.5.2c-.4.1-.9.3-1.4.3h-1.7c-.8-.2-1.3-.1-2 .3-1.3.7-2.9 1-4.5.8l-1.5-.1h-1.2l-2.1-.3-.2 10.2-.7 12.2 1.7 9.8 18.9 2.2 55.8-.4 10 .2.5 1.2 27.4.6h1.7l11.8-2.3z"/><path fill="#4285F4" d="m433 379.6 1.5 18.2 3.4 43.8 11.8 4.1 17.2 1.3 14 .7v-2.2l-.4-2.8-.1-5.7-.4-3.7-.2-1.6.1-2.1-.6-1.9 1-2.3.3-1.3-1.3-5.4v-1l.2-1 1.1-2.1.4-.6.2-.7-.4-6.3-1.3-18.9.2-.4v-1.2l-1.1-6.8.1-1.3.3-3.5-.1-1.2-.1-2.5a974.2 974.2 0 0 1-2.7-56.2l.4-1v-.1l-2.2-24c-.1-1-1-8.3-1.5-9.6-.3-.3-.5-.7-.6-1.2 0-.2-3.4-23.5-3.3-24.9 0-1.1-.1-2.1-.5-2.9l-.1-.3c-2 0-6.7.1-8.7-.5-1-.3-8.1-1.1-9.1-1-3.9.9-11.1 1.6-16.5 2.1l-5.3.5v6.9l-.3 14.6-1.2 27.7 2.9 17.2 2.9 61.1z"/><path fill="#EA4335" d="m289.2 321.8-1.7-3.9-1-5.4.5-.4-.3-2.9 1.9-2.7-1-2.8-1.6-1.2h-.6l-1.5-3.2-.1-1.3-.4-1.6-.2-.9-.7-2.9-1.2-2.3-.3-.7-1.2-2.3-.4-1.8-.6-1.4-1.1-1.4-.9-1-1.2-1.2-1.2-3.3-1.4-1.7-2-2-2.3-4.1-3.3-3.5-2.9-1.1-1.1-.2-2.3-2.2-1.5-1.7-1.9-2.6-.8-.6-.8-2h-.7l-12.6-4.3-12.6-3.3-11.6-2.2-3.5.9-4.2.9h-1l-1.8-.6-1.3-.3-9.6 2.3h-2.8l-1.6.5-5.2 1-.7.5h-.5l-13.4 5.2-2.1 3.2-4.1 3.7-6 4.8-.5.6-2.6 3.8-2.9 2.5-2.3 2.5-.3 3.1-.6.6-2.8 7-.5 1.4v.6l-.4 9.1-.8 2.4-.7.3-1.6 4.7-.8 2.2 1.1 22.3-.2.2.1.2.3 2-.3 1.1-.4 1.4-.1 4.3-.1.6 4.1 16.9.9.7 2.6 4 .6 1.5 7.7 14.2 1.6 2.2.2-.1 9.7 8.9 10.2 6.3 11.6 3.2 12.3 1.4.7.5 4.8.5h3.8l1.4.6 2.9.3.8-.2 1-1.2 3.5.8 2.8.3 1.5.4 1.8-.7 3.2-1.7 1.9.2-.2-1 1.8.5 2-.8 2.8-.9 1.6-.9 1.2-2.4 4.5-2 1.4-1.7 2-1.3 2.9-2.1 3.2-2.8 1.2-.3.8-1.7 4.4-3.5.2-.2 1.5-.8 1.4-2.9 1.4-1.8.7-1.3 2.1-.9 2.1-3.3 1.3-.1 1.2-3.1.7-.5.2-.7 1-.8 2.9-5 2-3.9 2.2-2 1.9-3.3.7-1.4 1-9 1.3-9.4v-.2l-.4-2.5.6-.8z"/><path fill="#FBBC04" d="m447.6 121.8-.3-.5c-.2-1 .4-18.8.4-19.5v-.8l-.1-1.3c0-.4-.8-2.6-1-3.3v-2.7l-.4-3 .6-10.1.1-.4.4-3.4.1-1.7v-2.8l.1-2.8-.2-3.1.2-2.5.5-1-.3-4.1-.4-2.5.4-1.8v-.8l-.3-4.6.4-2.7-.2-.6-1.2-3.1-.5-2.5.1-1.7.1-3.3-.3-1.7.1-1.3.2-.6c-.3-1.1.1-2.2-.1-3.3l-.5-3.5-.2-1.4c0-.5-.1-1-.5-1.4l-.2-.4c-.1-1.7.5-3.3.5-5 0-1.3.3-2.5.3-3.8v-2.6l.2-1.3.1-.2c.2-1.1-.4-2.3-.3-3.4V2l-.2-1.3V.2L432 .5l-16.3.4V1c-2 0-4-.3-5.9.1a57 57 0 0 0-8.1 1.9c-.4-.5-.9-.7-1.5-.8-.6.4-1.2.6-1.9.4-.2-.1-.5 0-.7.1l-1.5.3-2.1 1.5c-.3.3-.7.3-1.1.4l-.5-.2c-.4.1-.7.1-1 .3a5 5 0 0 1-1.7.6c-.6.1-1.3.2-1.6.9-.1.2-.4.3-.7.5l-.9-.2c-.7.4-1.5.5-2.2.9-.3.2-.6.2-.9.2-.3 0-.7 0-.9.2-.6.4-1.2.5-1.9.5l-.8.1-.3.3.4.2-.9.7c-.4.4-.8.6-1.4.6-.5 0-1 .3-1.4.6-.3.3-.7.4-1.1.5-.2.1-.5.2-.6.4-.3.6-.8.9-1.1 1.4-.3.5-.7.8-1.3.9-.1.9-.1.9-.3 1-.7.4-.9 1.1-1.4 1.7-.5.7-1.1 1.4-1.8 1.7-.5.3-.9.6-1.3 1.1l-.4.4c-.3.2-.3.5-.4.8l-.6 1c.2.4-2.5 4.8-2.3 5.1.2.4 0 .7-.2 1l-.3.2c-.5.4-.8 1-.7 1.7l-.1.2c-.8.3-.9.4-1 1.2v1.5c-.4 1.2-.8 2.5-1.5 3.5l-.9 1.3c-.2.4-.3.9-.7 1.2-.2.1-.2.4-.2.7 0 .5-.5 1.8-.5 2.2v1.1c.1.5.1 1-.1 1.4-.5.8-.5 1.5-.2 2.3 0 .1.2 1.2-.1 1.6v.6l.2.7-.4.5c-.6.6-.7 1.2-.6 2 .1.8-.6 2.6-.7 2.7-.4.8-.2 1-.4 1.8.4.5.3 10.5.1 11.4 0 .2.1.4.3.4l.2.1c.4.7.5 1.5.7 2.3l-.1.5c-.2.6-.2 1.1.1 1.6-1.3 1.8.3 2.2.3 4 .4.5.4 2.3 1 2.5l.4.2c.7.5.3 1.7 1.2 1.9l.4.4.5 2.1c-.1.9-.2 1.9.1 2l.7 1.3.1.1.3 1.1 7.5 11.5s5.1 5.4 7 7c4.7 4 9.5 7.2 14.2 9.8l6.1 1.6a86.2 86.2 0 0 0 32.3 8.3l19.5.5-.2-4.3c.2-.6 0-.8-.3-1z"/><path fill="#EA4335" d="m485.4 175.5-.4-.7-.4-1.1-.8-2.3.2-3.5-.5-.6c.4-.4.4-.9.3-1.3l-.2-.8a3 3 0 0 1-.2-1c.8-1.2.4-2.5-.2-3.7l-.8-1.2a6.8 6.8 0 0 1-1.5-4.3l-.1-.3-.4-.3-.3-1.8c.1-.7.2-1.3.1-2l-.5-2-.1-.3a7 7 0 0 1-1.3-1.7l-.1-.2c-.7-.5-1-1.3-1.3-2-.2-.5-.6-1-1-1.4l-2.6-2.6a11 11 0 0 1-1.4-1.8c-.4-.5-.3-1.1-.7-1.5l-.9-.8c-5.1-7.4-10.8-11.5-15.5-14.9a80.8 80.8 0 0 0-13.8-6.9c-13.2-2.8-24.4-4.8-37.6-7.5-3.8-.8-11.2-1.5-12.5-1.6.2.3-4.1 23.2-4.6 24.8-.1.4-.2.9-.5 1.2-.5.7-.6 1.5-.7 2.3l-.1.7c-.1 1-.8 1.5-1.8 1.9l.4.5c.3.4.5.8.4 1.4l-.1 2.1-.5 4.9v1.1c.1.6-.1 1.1-.3 1.6-.2.7-.1 1.4-.1 2.1.1 1.8.6 3.5.3 5.3l-.1.5c-.9 1.1-.9 2.6-1.3 3.9-.2.6-.2 1.4-.3 2.1l-.4.8c-.2.6-.3 1.3-.6 1.9-.2.4-.1 1.2-1 1.3l-.3.4c.2.7-.4 1.3-.5 2-.1.5-.4.9-.7 1.3l-.5.8-.3.4c-.7.1-1.1.6-1.6 1l-.2 1.1c.3.5.2 1.1-.2 1.7l-.2.7-.3 1.6-.1.7.6 2.5c.1.5-1.7 1.1-1.7 1.6 0 1.2.4 2.2 1.1 3.2.5.7.6 1.6.8 2.5.1.3-1.3.7-.9.8.5.2.5.9.4 1.3 0 .7-1.4 1.6-1.9 2.2-.2.2.4 2.9-.2 3.8-.2.2-.2.6-.3.9a26 26 0 0 0-.4 3.7c0 .3-.2.6-.1.8.4 1.1-.3 3.4-.6 3.7l-.8.5-.1 1.3c0 .2-.4.3-.6.4-.6.3 1 .2.7 1l-.6.5c0 .3.5.7-.1.9l-.1.8c0 .6 0 1.2-.6 1.7l-.5.7c-.4 1.2-1.3 2.1-2.1 3.1l-3.8 9.8 5.9 3c.8.3 1.5.9 2.1 1.5.7.7 1.4 1.2 2.2 1.7l1.3.1c.8.7 1.8.9 2.7 1.1l1.7.5a6 6 0 0 0 2.6-1.4l2 .2 1.3.9c.8-.3 1.5-.1 2.2 0l1.2 1.3 1.7.2c.6 0 1 .5 1.6.4.6-.1 1.1.2 1.6.5.5-.4 1.1-.3 1.6-.3l1.4.1 1.7-.5c.4-.1.9-.4 1.3-.4l1.1-.2.1.5.6.7 2 .5c.6-.1 1.1-.4 1.7-.1h.2v-.1h.1l3 .4c.9.2 1.8.7 2.7 1 .3-.1 21.7 4.2 22.1 4.4l1.4-.4 2.4.3.4-.1 3.6-1.3.3.1.4-.4.2-.1.7.4.7-.5.7.1.8-.2c.6 0 .9-.6 1.5-.8l.6-.6.9-.7 1.1-.8 1.9-.9 2.3-.6.5-.7c.5.2.9.1 1.4-.1l.7-.5.9-.5c1.4.3 2.5-.4 3.5-1.3l.9-1.1 1.2-1.4.8-.5.8-.5c1.3-.7 2.8-1.3 4-2.2l.8-.3 1.8-1.1.2-.2c.3-.6.7-1.3 1.2-1.7l.2-.2c.3-.8.9-1.3 1.5-1.9.4-.4.8-.9 1-1.4l1.7-3.3c.3-.7.9-1.3 1.3-1.9.3-.5 1-.6 1.3-1.1l.7-1.8.4-1.4c.1-.8 0-1.5-.2-2.2l.3-1.5 1.2-1.2c.2-.8.5-1.3.9-1.8a16 16 0 0 0 2.3-4c-.1-.6-.3-1.1-.2-1.6 0-.5 0-.9-.2-1.4l-.1-1.2c.1-.8-.1-1.5-.3-2.3l-.5-1.8.4-.7.8-1c0-1.2.3-2.3-.1-3.5-.1-.4-.1-.9.2-1.4l.2-.7.1-1.5.7-1.1-.3-.7.7-.6-.3-.8.3-.6.1-.8c.5-.6 0-1.1.1-1.7z"/><path fill="#4285F4" d="M261.4 222.1h.7c3.3-.1 7.4-.4 8.5-.6 67.5-24.3 75.3-68.6 75.3-99.8a96.2 96.2 0 0 0-9.8-38.7l-.5-.7-1.6-1.1-.3-1.8-.1-.2c-.3-.7-.8-1.9-.8-3.5v-.1l-.2-.5-.9-2.6c-.5-.3-1.1-.9-1.7-1.6l-.1-.1-.2-.1c-.5-.3-1.3-.8-1.9-1.7l-2.1-2.8-1.2-1.6-2-2.4-1.6-1.9-.8-.4-.2-.1-.9-.5-.6-.8c-1.8-2.2-1.8-2.2-3.2-3.1l-.5-.2-.3-.2-1.6-.8-.6-1.7-.3-.8c-.9-.5-1.4-1.1-1.7-1.4l-1.2-1.1c-2.4-2.1-4.1-3.6-4.5-5.8l-.1-.3-.1-.2c-1.7-.5-3-1.4-4.1-2.1-1.2-.8-2.2-1.8-3-2.5l-.2-.2c-1.3-.5-2.3-1.2-3.3-1.8l-2-1.1-1.9-.7-2.6-1c-1.6-.1-3.4-.7-5.8-1.7l-1-.4c-.9-.2-1.9-.5-2.8-.9-1.8-.8-3.2-1.6-4.1-2.5l-1.2-1-.8-.7-.8-.6-.7-.5-1.1-.3-1.8-1.5h-.1l-2.3-.7a5.3 5.3 0 0 0-2.7-.5c-.9.2-1.6.1-1.9 0l-1.1-.1-1.1-.7h-1.2l-1.8-.7h-1.3l-5.4-1.9c-.7.1-1.7.1-2.8-.3h-2.1c-.9.1-2.1.2-3.4-.1l-1.1-.1h-.2l-1.1.1c-1.2.1-2.7.3-4.4-.2h-.1l-2.4.1h-.3c-.7.1-1.9.2-3.2-.2h-.5c-1.4.1-2.7-.2-3.3-.4a170 170 0 0 0-15.9.1l-1.2.1-1.3.1-1.2-.6a3 3 0 0 0-.8-.4l-.7-.4-.4-.1-.6-.2-1-.3-.7-.5h-.2c-1.5.7-2.9.7-3.9.7h-.3c-1.3.7-2.5.6-3.1.6h-.1l-1.7.1-.4-.3c-1.9-.1-6-.3-10.4-.3L178.1 39l.6 2v4.2l3.9 17.8.7 6.4-.9 1.1-1 9.3L183 88v.8l-.2 8.4.5 5.7-1.6 2.8-.1 5.7.1.6.4 2.2 1.3 4.5.1.8.1 6.7.6 8.9.8 22.3 1.7 11.5-.2 28.2 2.6.5-2.2 4.4.4 2.8-.1-.5c.3 1.1.7 4.4 1.8 22.9l55.2.3 2.5-.4 14.7-5z"/><path fill="#34A852" d="M406.3 329.4c-.2-.8-.4-1.4-.7-1.9l-.3-.4.1-.5v-.7c-.1-.6-.2-1.2.1-2v-1.4l-.2-2.6v-.6l-.2-.2c-.3-.3-.8-.8-1-1.6l-.3-.3-.2-.3-.7-1.1-.3-.8a21 21 0 0 1-1.1-3l-.2-.5c-.6-.9-1.1-2-1.3-3.3-.1-.7-.4-1.2-.9-1.5l-.7-.7-.2-.2-.2-.2-.1-.2-.5-1.2v-.1c-10-33-33.8-42.8-34-42.9l-.2-.1-9.4-5.4-3-4.6c-2.7-1.4-21.4-12.4-41.5-17.1l-25.9-1.7c.3 2.8.8 9 .7 11.6v.6l-.2 3.1-.5 7.1-.6 11.9-.1 1.6 5.4 1.7a146.6 146.6 0 0 1 40.8 10.4h.1l1.3 1a49 49 0 0 1 25.7 47c-.6 10-3.7 23.3-15.2 29.9-6.5 3.8-12.8 3.7-13.7 3.7l-12.9 2.1-19.2-.3-9.4.4c.1 1.3.1 3.5-.1 4.6l-.1 7.1c.4.9.9 1.9 1 3l.1.5-.3.4a18 18 0 0 0-.3 3.6l-.1 2.1.2.7c.2.6.5 1.3.3 2.1.5 1.5.4 3 .2 4.4l-.1 1.8v.4l.5 4.1 15.4 2.9 15.9-1.3-.2-.4 15.4-.5v.1h2.8l5.7-1.5 2.6-1.1h.3c.7.1 1 .5 1.3.8l.3.1h1.2l1.1-.6h1l.7-.1 1.2-.4.5-.2.4-.1c.9-.3 1.9-.6 3-.5l.6-.2h.1l1.1-1.3.5-.2.5-.1.5-.1h.3l.4-.1.5-.1c.7-.3 1.4-.6 2.3-.8.6-.1 1.1-.3 1.6-.7l1-.8.7-.6 2.2-.6.1-.1.6-.5.6-.3.4-.2c.7-.8 1.5-1.3 2.2-1.8l.4-.4c.4-.4.9-.9 1.7-1.1l1.2-1.1.2-.1 1.1-.7.2-.1a11 11 0 0 1 2.6-3l1-1c.2-1.1.6-2 1.2-2.8l.3-.4 1-1.3c.4-.6 1-1 1.4-1.3l1-.9c.4-.5 1-.7 1.4-.7l.4-.2.5-.3 1-.5.1-.1 1-1.2.4-.1c.5-.1 1.1-.4 1.6-.7.6-.3 1.3-.7 2-.9l.3-.2.3-.2.6-1.2-.5-2.9v-.2l.2-1 .4-.7.2-.3c.3-1.5 1.2-2.6 2-3.6l.1-.1a7 7 0 0 0 1-1.6l.1-.2c-.2-1 0-1.9.2-2.6l.1-.3v-1.1l-.2-.6.5-.7-.2-1.8.5-.9-.2-.7-.5-2.6c0-.6 0-1.5.7-2.3.7-1 1.7-1.8 2.5-2.5l.1-.2.5-.8.1-.1.1-.1.1-.1.6-.4c.7-.4 1.1-.8 1.2-1.4l.7-1.3.1-.1.8-1v-.1l.8-3.6a4 4 0 0 0-.3-1.8zM161.6 208.9l-4.4-21.7-.3-8.2-2.9-16.1-46.2 6.8c-9.4 1.4-18.6.8-27.4-1.7a41.2 41.2 0 0 1-27.2-20.6c-14.8-30.2-7.5-50.1-7.2-51l.1-.2.6-1.2 4.8-6.8 4-8.4 3-4.8 4.8-4.8a63.2 63.2 0 0 1 26.3-12.7l20.7-9.1 12.4-2.6-1.5-6.9-2.3-4.8-.1-.3-.6-5.5-1.9-4.6-.2-2.9-1.1-2.7-.5-3-1.1-4.9a18 18 0 0 1-.8-4.3l-.8-2.3C102.2 6.1 52.5 20 31.4 42.5 13.1 61.8 3.3 80.1 1.6 98L.2 111.6c-.7 7.2.6 17.1 1.6 24.3A92.9 92.9 0 0 0 13.9 171l3.7 6.3 14 15.7 3.7 3.4 5 4.1 2.6 1.8 12 4.6 4.4 1.3h.1l2.1.5.3.1 2.1.9 3.9 2.1 3.1.9 10.4 1.3 6.9.3 5.4.9 6 .3h5.3l8.1.9.4-.1 2.7.8 12.7-1.3 5.6-1.3 7.3-.9 1 .2 1-.6 1.8.2 8.6-2.3 5.3-1.7 2.2-.5z"/><path fill="#FBBC04" d="m132.2 338.7-.6-.4.1-.7c1.9-13.1.9-24 .5-28.1l-.1-1.4c-2.4-18.2-7-33-14-45l-.1-.1-1.5-5c-5.9-8.6-33.2-28.7-76.9-33.6-6.4-.7-21.9-.5-26.3-.4l.4 13.3-.3 6.6 2 23.9 7 1.1c1.1 0 10.3-.2 15.2.5l5.6.7 5.3.9c3.9.6 8 1.2 11.8 3.2l4 1.8c3.3 1.5 6.5 2.8 9.2 5.9l3 1.1.2.4.6 1.1a62 62 0 0 1 9.1 39.7v7.3l-.1.2a59.7 59.7 0 0 1-7.7 15.6c-4.2 6.5-12.9 11.3-25.7 14.2-9.4 2.2-17.5 2.5-17.8 2.5H35l-22-.4-2.1 21.7-.6 7.5-.8 10.4 8.3 1.6 16.9-.9v-.1l16.7-.8.3.1c.8.4 1.8.5 2.8.1l.4-.1.3-.1.6-.2h.2l.6-.1c5.7-.8 11.3-2 16.4-3.5l.2-.1H76l2.1-.5 1.1-.3.2-.1 1.1-.2c1.3.1 2.6-.1 3.9-.3l1.3-.2c3.5-.5 5.1-1.3 8-3.7.6-.6 1.4-.9 2.2-1.1.6-.1 1.2-.5 1.9-1.1a8 8 0 0 1 2.1-1.5l.1-.1c1.8-1 3.4-2 4.7-3.4 1.2-1.3 2.7-2.2 4.5-2.9l.3-.1.8-.3c.5-.5 1.2-.9 1.7-1.2.5-.3.9-.5 1.2-.9a9 9 0 0 1 3.3-2.3l.1-.1.2-.2.3-.3.6-.6c1-.8 1.9-1.8 2.8-3.2a10.5 10.5 0 0 1 2.6-2.6l.4-.3.2-.2v-.1c-.5-1-.4-1.9-.3-2.8l.1-.3c.2-1.3.5-2.9 1.6-4.2l.1-.1c.2-1 .8-1.7 1.2-2.2l.3-.4 1.5-1.5c.7-.6 1.3-1.1 1.6-1.8.3-.6.9-.9 1.3-1.1.4-.1.6-.3.7-.9l.6-1.6c.2-.3.2-.6.1-1l-.2-1.5c-.1-1.1-.3-2.2-.6-3.2-.1-.5-.2-.9-.1-1.3l.1-1c.1-1 .2-2 .5-3l.4-1.8.3-1.9-.1-.3-.6-.7z"/><path d="M492.3 145.2c-.4.4-.4 1-.4 1.5s-.1.8-.5 1l-.1 1.9c.9 1.2.9 2.1-.2 3.5.1.7.2 1.3-.1 2v1l.1.7-.1.6-.7.4.1.3c.7.5.4 1.2.4 1.9l-.1.2c-.6.3-.5 1-.8 1.4-.1.2-.2.4 0 .7.1.2 0 .4-.2.7l.3.6-.1.3c-.5.7-.7 1.3-.4 2.1a47.8 47.8 0 0 0-.4 2.7v.2c.3.8-.1 1.4-.5 1.9-.3.4-.5.7-.5 1.2 0 .4-.3.8-.5 1.3l.1.6c.4.8.1 1.4-.7 1.8l.1 1c0 .5 0 1-.3 1.4l-.4 1.1.1.4c.3.6.1 1-.4 1.4l-.3.3.1.9c.1.4 0 .7-.2 1-.2.3-.5.6-.3 1v.1c-.8.7-.6 1.8-1.4 2.5l.5.6c.4.5.4.7 0 1.2l-.5.6.1.4c.2.4.1.7-.3 1-.4.2-.6.6-.7 1 .8 1 .5 1.4-.6 2v1.1c0 .6-.2 1-.7 1.3l-.5.4.2.9-.5.3c-.2.1-.4.2-.3.5l-.1.4c-.7.6-1.1 1.6-1.7 2.3-.2.3-.2.3-1.2.7-.4.6-.3 1.3-.4 2l-.9.4c-.2.1-.5.2-.6.4-.3.6-.8.9-1.3 1.1l-.8 1.2-.4.7a2 2 0 0 1-.4.6c-.4.3-.7.6-.8 1.1l-.2.3-1.6 1.1-.2.1c-.8-.3-1.3.3-2 .4l-.2.7c-.1.7-.6 1.1-1.2 1.3l-1 .4c-.2.1-.4.2-.6.1-.6-.2-1.1 0-1.6.1-.5.3-.7.9-1 1.5l-1 .1c-.5 0-1.1-.1-1.5.3-.3.3-.8-.2-1.1.2-.3.3-.6.3-1 .4-.4.1-.7 0-1.1-.3-.7-.5-.7-.5-1.5 0-.6.4-1.3.4-2 .7-.3.1-.8-.1-.9.4l-.4.1-1-.1c-.6-.2-1.1-.2-1.6.4l-.4.2-.7-.3-.6-.2c-.7.1-1-.2-1.2-.9l-.3-.4c-.4.2-.7.5-1.1.6-.5.3-.7.2-1.1-.2-.8-.9-1.8-.7-2.4-.2l-.3.2c-.5.4-.9.4-1.5 0l-.4-.4c-.4-.2-.7-.4-1.2-.4s-.8.2-1.1.5c-.4.5-.8.3-1.2 0l-.6-.7-.8.1-.9.1c-.5.1-.8-.1-1.1-.5l-.3-.4c-.3-.2-.6-.4-1-.1-.4.3-.8.2-1.2.2-.4 0-.5-.2-.7-.6-.9.2-1.7-.1-2.4-.7-.3-.3-.6-.3-1-.2-.5.2-.9.2-1.3 0-.5-.2-1.2-.1-1.6-.5h-.2c-.6.3-1.2-.1-1.8-.1l-.6-.3-.9-.5-.8.7c-.7 0-1.1-.6-1.4-1.1-.3-.1-.7.1-1-.2-.3-.3-.7-.4-1.2-.2-.4.2-.9.2-1.4.2l-.5-.1c-.6-.6-1.3-.5-2.1-.5-.3 0-.6.3-1 .1-.4-.2-.7-.6-.8-1.1l-1.4-.5c-.9.7-1.7.1-2.5-.4-.4.1-.8.3-1.2 0-.3-.1-.5 0-.8.1-.3.1-.6.1-.9-.2-.5-.5-1-.8-1.7-.9l-.6-.3-.5.2a1 1 0 0 1-1.1 0c-.9-.4-1.9-.4-2.9-.3-.4.1-.9-.1-1.3-.2-.5-.2-1.1-.5-1.2-1.2-.5 0-1.1-.1-1.6.1l-1.3.1c-.2 0-.5-.1-.6-.3-.4-.5-.9-.5-1.5-.4l-.3.1-2-.7-.9-.3c-.5-.4-1-.5-1.6-.5-.7 0-.7 0-1.1-.8l-1.1.5c-.4.2-.7.2-1.1-.1l-1.2-1-1 .7c-.5.3-.8.2-1-.3v-.1c-.1-.3-.1-.6-.4-.6h-1l-.6.3a1 1 0 0 1-.8.1c-.5-.2-1.1-.1-1.6 0s-.7 0-.9-.5l-.2-.5c-.4-.3-.9-.4-1.3-.4a4 4 0 0 1-1.5-.3c-.5-.2-1-.2-1.6-.2-.4 0-.7 0-1-.4-.2-.3-.6-.2-.8.1-.4.6-1 1-1.3 1.8l-.3.3c-.6.1-1.2.5-1.9.2-.4-.2-.7 0-.9.3-.4.7-.9.8-1.6.6-1-.2-1.8-.7-2.7-1.1-.3-.1-.4-.3-.5-.6-.1-.9-.3-1.6-.9-2.3-.4-.5-.3-1.2-.1-1.9l.3-.3.6-.4-.2-.5c-.4-.1-.7 0-1 .1-.5.2-.7.1-.9-.4l-.5-1.5c.2-.3.5-.6.5-1 0-.3.3-.5.5-.8l-.1-.6c0-.5.2-.8.7-1.1.7-.3 1.4-.4 2.1-.1l.4.1.4-.4c.7-.9 1.6-1.1 2.7-.9.2 0 .4.1.5.3.4.4.8.5 1.3.6.3 0 .5.2.8.3l.4.6.4.4c.5.1.8.5 1.1.8.3.3.5.6.3 1-.1.5 0 .8.2 1.2l.5 1.1c.4.4 1.1.3 1.7.5l.4-.1c.9-.2 1.8-.2 2.6 0 .4.5 1.1.3 1.6.5h.4l1.1-.2c.6-.3 1.1-.1 1.5.4.8.9 1.7.9 2.8.7l.6-.2.9 1.1 1.3.3h.6c.6-.2 1.1.1 1.6.2l.8.6c.8-.2 1.7-.4 2.5 0l.2.8.4-.2c.3-.2.6-.3 1-.1l1.7.7c.9-.4.9-.4 1.6.2l.6-.3.2.1c.5.5 1.2.6 1.8.4.4-.1.6-.1 1 .1.3.2.7.1 1.1.2.5 0 1-.1 1.4.4 0 0 .1.1.1 0 .7-.3 1.1.3 1.7.5.6.2 1.1.2 1.7.2.7-.1 1.3-.1 2 .2.6.3 1.2.7 1.9.7l.4.1c.4-.2.6.2.9.3.4-.1.7-.5 1.2-.2.4-.3.9-.1 1.3 0 .7.1 1.4.2 2 .7l.4.1c.5 0 .8.1 1.2.4l.8.2c.7-.1 1.3 0 1.8.5 1.6-.5 2.4-.2 3.3.8h.7c.6.4 1.2.4 1.9.3.4 0 .9-.1 1.2.3h.3c.5-.3.9 0 1.3.2.6.3 1.2.5 1.9.3.2-.1.5 0 .8.1.7.2 1.3.4 2 .4l1.1.2.6-.5 1.1.4.9.5c1.2-.2 2.2 0 3.1 1 .8-.4 1.7-.1 2.6-.1l1.6.1c.5 0 .9-.1 1.3.3l.2.1c.7-.3 1.2.1 1.8.3.3.1.7.1.9-.2l.5-.4 1.5.9c.5-.5 1-.4 1.6-.1l.5.2c.3.1.5 0 .8-.2l.5-.4c.3-.2.8-.1 1 .2.5.6 1.1.6 1.8.6l1.6-.1h1c1.1-.3 2.2.1 3.4.1l.4-.5c.4-.5.9-.8 1.5-.4.2-.5.5-1 1.1-1.3.9.5 1.9.1 2.9.3l.5-.1c.3-.1.5-.3.5-.6 0-1 .5-1.5 1.4-1.8h.1c.5-.6 1.3-.8 2-1.2.3-.2.5-.5.5-.8l.1-.4c.2-.4.5-.7 1-.7h.5l.8-.9c.2-.2.2-.4.2-.7 0-.6.2-.8.7-1l.5-.1.4-.2v-.5l.2-.6 1.3-1.5.1-1.2.9-.5.1-1 .6-.9-.1-.7c.1-.6.3-1.2 1-1.4.7-.2 1-.8 1-1.5 0-.4.1-.7.3-1 .2-.4.5-.8.3-1.3-.1-.3.1-.5.3-.7l.7-.4c-.2-1 .2-1.8.5-2.6l.3-1.1c.1-.3.2-.7.6-.8.1 0 .3-.3.3-.5 0-.5.1-.9.4-1.3.3-.4.3-1 .3-1.5-.1-.7.1-1.2.6-1.6l.3-.3c-.2-.7-.2-1.3.5-1.8-.1-.5-.1-.9.1-1.4.2-.3.2-.6-.1-1-.3-.5-.2-.7.1-1l.5-.4c.5-.3.7-.7.7-1.2v-4.1c0-.2.1-.5.3-.7.3-.4.6-.7.5-1.2 0-.5.3-.7.6-1l-.2-.8v-.7c.2-.6.1-1.1-.3-1.5l-.3-.5.7-1.5c-.2-.4-.3-.9 0-1.4.3-.4.1-.8 0-1.1-.3-1.3-.2-2.7-.1-4l.2-1.4.3-1-.3-.2c-.5-.4-.6-.8-.4-1.4l.4-2 .3-.8c-.5-.6-.8-1.3-.6-2.2l-.1-.5c-.2-.6-.3-1.2-.1-1.7.2-.5.1-.9 0-1.3a.8.8 0 0 1-.4-.2.8.8 0 0 1-.5-.7v-1.2c0-.7 0-1.4-.3-2l-.1-.6c.1-.3 0-.5-.2-.6-.3-.4-.5-.7-.4-1.3l-.1-.5c-.5-.5-.5-1.2-.6-1.8l-.9-.9-.1-.2c.1-1.2 0-1.1-.6-1.7l.2-.7-.1-.2-.6-.4c-.9-.2-1.2-.9-1.4-1.5-.3-.7-.7-1.3-1.3-1.7-.3-.2-.5-.5-.6-.9-.1-.4-.2-.4-.7-.4-.4 0-.6-.1-.7-.4l-.4-1.2c-.3-.2-1-.1-1.1-.7l-.4-.2-1-.4-.2-1h-1.4c-.9-1-1.8-1.9-3-2.6l-.6.2c-.4-.3-1-.6-1.3-1-.4-.5-.9-.7-1.5-.7-.5 0-.9-.1-1.2-.5-.2-.3-.6-.4-1-.6l-.6-.3c-.5-.7-1.3-1-1.9-1.5-1 .3-1.8 0-2.5-.8a.8.8 0 0 0-.5-.2c-.3-.1-.4-.2-.6-.5-.2-.4-.6-.6-1-.5l-.6.2c-.4.1-.7 0-.9-.3-.3-.4-.6-.5-1-.7-.3-.1-.7-.2-.9-.5-.8-.7-1.8-.9-2.7-1.1-.2-.1-.4 0-.5-.2-.3-.3-.6-.4-.9-.2-.2.1-.5 0-.6-.2-.2-.3-.5-.6-.9-.7l-.7-.6c-.6 0-1.2-.2-1.8-.7-.4-.4-.8-.4-1.2 0h-.1l-1.7-.4-1.3-.4c-.7-.2-1.4-.2-1.9-.7l-.3-.1c-.9.2-1.6-.2-2.3-.6-.7.3-1.4.3-2-.3-.1-.1-.4-.1-.5-.3-.5-.5-1-.5-1.6-.3l-.3.1c-1.1-.2-2.3-.1-3-1.1l-.2-.2-.9.1c-.4.1-.9 0-1.2-.3-.5-.5-1.1-.7-1.7-.9l-.9.3-.9-.7c-.7.3-.7.3-1.4.1l-.8-.1-.7-.2c-.5-.4-1-.7-1.7-.7l-.3-.1-1.6-1.1-.3-.2c-.8.4-1.3-.6-2.1-.3a1 1 0 0 1-.5-.2c-.5-.6-1.2-.8-1.9-1-.6-.2-1.2-.1-1.8.1l-1.6-.9-.7-.4c-.5.1-1-.3-1.5-.1h-.3c-.3-.2-.5.2-.7.2l-.6-.3c-.4-.1-1.2 0-1.9.2l-3-2-.7.7-.6.7c-.2.2-.3.3-.3.6 0 .1-.1.3-.3.3l-1 .6-.3.1c-.5.8-1.4.6-2.1.9-.2.1-.5 0-.8 0-.5-.2-.9-.4-1.5-.2a1 1 0 0 1-1.2-.7c-.2-.4-.5-.9-1-1.1-.2-.1-.3-.3-.4-.6l-.9-2.2-.3-1.2c-.1-.4-.4-.6-.4-1.1l-.1-.8.3-.4.3-.2c.7-.1 1-.8 1.7-.8l.4-.2c.3-.7.9-.8 1.5-1l1.6-.4c.3-.1.6 0 .8.3.1.3.4.4.8.4a3 3 0 0 1 2.7 1.5c.5.8 1.2 1.2 2 1.4.7.2.7.2 1.1.6h1.4c.4.1.8.5 1.2.7l.5-.3c.4.1.8.4 1.3.4l.7.4.2.1c.6-.3 1 .4 1.6.4.3 0 .5-.2.7-.4.8-.6 1.2-.4 1.5.5l.3.6.2.3 2-1 1.5.7.6.3c.7 0 1 .4 1.3 1l2.1.4c.2 0 .3.2.5.3.3.4.7.5 1.2.5l.4.1c.4.2.9.2 1.4.1.6-.1 1.2-.3 1.8-.1.5.2 1.1.1 1.7.2l.9 1.1c.3.3.6.5 1 .5a3 3 0 0 1 1.6.4 3 3 0 0 0 2.1.6l.8.1c.4.2.8.3 1.2.1.3-.1.6.1.8.3.4.4.9.6 1.5.6l.6.1c.6.1 1 .4 1.1 1 .5.2 1.1.1 1.4.6l.4.1 1.6.3 1.6.6.9-.5c.4-.2.8-.2 1 .2.3.5.8.7 1.3.9.6.2 1.1.6 1.8.4l.2.1 1.2.6c.4.2.9.1 1.4.2.7.1 1.3.6 1.9 1.1l.4-.2c.3-.2.6-.2 1 0l.8.4c.4.1.7.3.8.7.1.4.4.5.8.4.5-.1.9-.2 1.4-.1l.7.1.7.4 1.7 1.3a3 3 0 0 1 1.6.1c.7.2.7.2 1.1.9l1.5.1.4.7c.2.4.5.5 1 .3h.3l.8.7h.2c1.3 0 1.3-.2 2.5 1.1l.8.9.2.1c1.1.1 1.1.1 1.2 1.2l.1.3c1.2.6 1.2.6 2 .4l.9.5 1 .6c.4.2.8.5.8 1l.1.3c.6.2.8.9 1.3 1.2.5.3.9.7 1.6.6.3 0 .5.1.7.3l.2.2c.9.9.9.9.9 2.1l.9-.1c.5 0 .9.2 1 .7l.3 1.3c.6.3 1 .8 1.1 1.5.1.7.6 1.2 1.1 1.5.8.4 1.2 1.1 1.2 2 .6.2 1 .7 1.2 1.3l.1.2c1.1.8 1.5 2.1 2 3.3l.1.3c.7.4.7 1.2.9 1.8l.2.4c.4.4.5.9.4 1.4 0 .6 0 1.2.2 1.7l.2.7c.1.4.1.8-.4 1.1l-.4.3c.2.6.6 1.1.5 1.7l.2.3.5.5c.4.4.4.8.2 1.3l-.3.5.7 1.3c.3-.2.3-.1.3 0zm-45 68.7-.1-.3c-.1-.3-.1-.3-.5 0l.6.3zM362 196.6l.9-.3c0-.2-.2-.2-.3-.3l-.4-.3c-.7-.1-.9-.6-1.1-1.2l-.1-.4-.3-.2-.5.2-.1.3c.1.5-.2.8-.5 1.1a2 2 0 0 1-1.4.6c-.4 0-.8.1-1 .5l.6.2c.7.3.7.3.7 1.2l.1.2c.6.7 1.4.8 2.1.8.5.1.8-.4 1.2-.6l.1-1.8zm34.4-107.3-.5-.9-.3-.3c-.5-.1-.9.1-1.1.5-.2.7-.7.8-1.2 1.1l-.5.3c-.2.1-.4-.1-.5.2a2.5 2.5 0 0 0 2.6 1.4l.2-.1c.2-.5.4-1 .9-1.3.2-.2.4-.5.4-.9zm18.3 118.4z"/><path d="M435.2 140.8c-.1-.9.6-1.4 1.1-1.9.5-.4 1.1-.7 1.8-.7.6 0 1.3-.1 1.9.4l.8-.6c.4-.2.8-.3 1.2 0l.3.2.8-.2c.5-.1.9 0 1.1.6l.4.4c.4.1.6.3.6.7 0 .3.2.5.5.6l.6.4c1.1.9 1.1.9 1.1 2.4 0 .5.1 1-.2 1.5-.2.3-.1.6.1.9.1.3.2.7 0 1-.3.5-.5 1.1-1.1 1.3h-.7c-.5.5-.9 1.1-1.2 1.8-.5.9-.9 1-1.9.6l-.9-.4-.8.6a3 3 0 0 1-1 .4c-.7.1-1.1-.3-1.1-1l-.1-1.2-1 .3c-.6-.3-.8-.8-.8-1.4v-.9l-.2-.4c-.5-.2-.5-.7-.5-1.2l-.1-.6c-.5-.2-1-.5-1.5-.4-.5.1-.8-.2-.9-.7-.7.1-.7 0-1.9-.3-1-.3-1.7-.9-2.5-1.4l-.3-.5c-.5.4-.9.5-1.3.2-.3-.3-.6-.3-1-.3-.6 0-1.1-.1-1.5-.5-.6-.5-1.1-.5-1.6-.1-.6-.2-1.2-.7-1.9-.5l-1.1-.6c-.4-.3-.7-.4-1.2-.2-.5.3-1.1.2-1.7.1-1.1-.2-2.1-.6-3.1-.7-.5 0-.6-.2-1.1-1a2 2 0 0 1-1.7-.6c-.6-.5-1.3-.7-1.9-1l-2.4-1.3c-.2.1-.6.2-1.1 0-.3-.2-.7-.2-1.1-.2l-.4-.7-.3-.1a2 2 0 0 1-1.8-.2c-.4-.2-.9-.4-1.3-.3-.5.1-.7-.2-1.1-.4l-.9.3c-.7.2-1 0-1.1-.8v-.4l-.7.7c-.3.2-.6.3-.9.1l-.8-.7-.6-.9-.8.2c-.6.1-.8-.1-.9-.7l-.1-.2-.7-.3-.4-.1c-1 0-1 0-1.6-.6-.8.4-1.5.2-2.2-.4a.8.8 0 0 0-.5-.2c-.9-.1-.9-.1-1.4-.6l-.9.1a5 5 0 0 1-1.3-.4c-.4-.1-.7-.3-1.1-.3-.6 0-1.1-.2-1.3-.9l-.2-.2c-.5.2-.9 0-1.3-.4a.8.8 0 0 0-.5-.2c-.7.1-1.3-.3-1.7-.8-.4-.5-.8-.8-1.3-1.1l-.8-.4-1-.2c-.9.1-1.3-.5-1.9-.9-.2-.1-.3-.4-.4-.7l-1 .6c-.7-.3-1.2-.9-1.4-1.6a2 2 0 0 0-1.1-1.3l-1.5-.8-1.5-.7c-.3-.3-.3-.6-.2-1.1l-1-.1c-.8-.1-1-.4-.9-1.1l.2-.6-1.3-1.3c-.2-.2-.4-.2-.6-.2-.6 0-.9-.3-1-.9-.1-.5-.3-.9-.8-1-.2 0-.3-.2-.4-.4-.4-.7-.9-1.2-1.5-1.7-.3-.3-.4-.7-.4-1-.5-.2-1-.4-1.1-1-.6-.3-.6-1.1-1.2-1.5-.3-.2-.4-.5-.3-.8l.1-.6c-.5-.3-.8-.7-.6-1.3.1-.4 0-.6-.2-1-.2-.3.2-.5.3-.9l-.3-.3c-.4-.3-.5-.7-.3-1.1.2-.4.2-.7-.2-1l-.1-.2c0-.7-.5-1.3-.7-1.9l-.2-.9c0-.3 0-.7-.3-.9-.3-.2-.2-.5-.2-.9 0-.3.1-.6 0-.8-.4-.6-.3-1.2-.3-1.9-.6-.6-.7-1.4-.7-2.3 0-.8-.1-1.5-.5-2.1-.2-.4-.3-.8-.1-1.2.2-.3.1-.7-.2-1-.7-.6-.6-1.3-.2-2l.3-.5-.5-1.6 1.1-3c-.1-.3-.5-.6-.5-1.1.1-.5.4-.7.8-.8v-1.1l-.2-.3c-.3-.3-.6-.5-.6-1 0-.6-.1-1.2.3-1.7l.8-1.3c-.3-.7-.3-1.5-.7-2.2-.2-.2-.1-.6-.2-.9l.4-.4c.4-.3.5-.6.5-1.1v-1l-.2-1.1-.5-1.5.5-.6c.5-.5.6-1.1.5-1.7l-.2-1.3-.1-.8a1 1 0 0 1 .1-1.1l.8-1.1c.6-1 1-2.1 1.4-3.3l.4-.7c.5-.5.6-1.1.5-1.8-.1-.6.2-1.1.5-1.6.3-.3.5-.6.6-1.1l.2-.5c.3-.3.4-.7.5-1.1.2-.8.5-1.6 1.3-2.1.1-.5 0-1-.1-1.4-.2-.5.4-1.7.8-2l.9-.3.1-.4c0-.7.2-1.4.4-2a3 3 0 0 1 1.2-1.9c.4-.3.7-.8 1.1-1.3l1.5-.5c0-.5-.1-1 .2-1.5.1-.1 0-.3 0-.4 0-.2 0-.4.2-.5.5-.5 1-.9 1.7-.9.7-.1 1.1-.3 1.2-1l.3-.3c.5-.2.8-.6 1.3-.6.3 0 .7-.4 1-.6l.4-.4c.7-.6.8-.6 1.7-.1.7-.3 1.3-.7 1.6-1.4l.9-1.1c.8.5 1.7.2 2.5.2l.2-.2c.2-1 .3-1.1 1.3-1.1s2-.2 2.9-.5l.9-.1.1-.1c.4-.3.6-.9 1.3-.8.5.1 1-.2 1.4.2l.3.1c.7-.2 1.5.1 2.2-.3.4-.2.7.1 1.1.1.4 0 .6-.5 1.1-.2h.2l.2-.5h.9c.3.6.9.8 1.5.6.7-.2 1.4-.2 2 .3.5-.2.8-.7 1.4-.3h.3c.6-.5 1.3-.2 1.7-.1l1.6 1.3 1.1-.6 1.1.4.8-.7c.4-.3.8-.4 1.2-.1l1 .7c.9-.2 1.7 0 2.5.5.5.3 1.1.4 1.8.3.5-.1.9 0 1.3.3.6.4.6.3.9.7l1-.5c.3-.1 1.5.3 1.8.5l.5.4.6-.3c.3-.1.7-.2.9 0 .4.4.9.3 1.3.5l.5.9c.4.2.7.1.9 0 .8-.5 1.7-.3 2.6-.3.3 0 .7.2.7.5.1.4.4.4.6.6.7.5 1.5.4 2.2.7.2.1.5 0 .7-.2.7-.4.8-.4 1.3.1.2.3.5.3.8.4.6.2 1.2.1 1.7.6l.2.1c.9-.2 1.5.6 2.3.7l.5.2.9-.4c.8-.3 1.5-.3 2.1.4l.5.5.6.3c.6 0 1 .3 1.5.6.6.3 1.3.5 2 .4.8-.1 1.4.1 1.9.7l.7-.2c.7-.2 1.4.1 2 .3.4.2.9.3 1.3.2.8-.1 1.3.2 1.6.9l.2.3.5-.1 1-.4c.5-.2.8-.1 1.1.4l.4.7c1.2.5 2.4 1 3.8.4.5.3 1 .5 1.6.5.4-.1.8.1 1 .5l.2.4.7-.1c.7-.2.9-.1 1.2.6l.1.4c.3.2.5.2.7 0l.3-.3c.3-.2.6-.3.9-.1.4.3.9.3 1.3.4.7.1 1.4-.1 1.8-.8l.5-.8c.2-.3.4-.4.9-.3l.5.9 1.3-.2.6-.3c.3-.2.6-.2.9 0l.6.4c.3.2.6.3 1 .1.4-.2.8-.2 1.2.2l.5.2.8.1c.5.3.3.9.4 1.3l.6.2c.3.1.5.3.5.6 0 .4.3.5.6.6l.6.2c.3.1.3.4.3.7l-.5 1.9v1.2l.1 1.2-1.6 1.5c-.4.5-.9.6-1.4.3h-.2c-.7.7-1.1.8-2 .5l-.9-.2c-.9.2-.9.1-1.2-.8l-.8.1c-.8 0-1.2-.4-1.3-1.3l-.2-.6-.8-1.2c-.1 0-.3 0-.5-.2-.4-.3-.8-.5-1.4-.4-.4.1-.7-.2-.8-.6l-.1-.5c-.5-.5-1-.8-1.7-.5-.3.1-.6 0-.8-.3a2 2 0 0 0-.4-.6c-.8-.1-1.5-.2-2.3.1-.5.2-.9.1-1.3-.3-.1-.2-.4-.3-.6-.3-.7-.1-1.3-.2-1.7-.8l-.2-.1c-.6 0-1.3 0-1.9.2-.6.2-1.2.2-1.8-.1l-.3-.1c-.7.2-1-.2-1.3-.6-.2-.2-.4-.4-.8-.3-.7.2-1.4-.1-1.8-.7l-.1-.1-3-.4-.8-.6c-.6.4-1.3-.1-2 0l-1.8-.8-.9.4-.6-.7h-.2c-.4.2-.8.5-1.3.2l-.3-.1c-.7.2-1.1-.1-1.5-.6l-.2-.1c-.8.1-1.4-.7-2.2-.5l-.9-.2-.7-.1c-.6.1-1.1 0-1.6-.4l-1-.6-1-.3-.7-.1c-.4-.4-.9-.3-1.4-.4l-1.7-.3c-.4.3-.9.5-1.5.2-.5-.2-.9 0-1.4.1l-.7-.7c-.4-.5-1-.6-1.6-.7l-1.5.1c-.5 0-1.1.1-1.6-.2l-.5-.1c-1 0-1.9-.2-2.7-.8-.3-.3-.7-.3-1.1-.1-.5.2-.9.3-1.4 0l-.8-.1c-.5 0-.9 0-1.2-.5-.3-.4-.7-.4-1.1-.2l-.6.4-2.1-1.1c-.3-.2-.7-.2-1-.1-.5.2-1 .1-1.5-.1l-.5-.2c-.5.2-1-.2-1.5-.2h-.6l-1.8-.3-.6-.3c-.3-.2-.5-.4-.9-.5-.3-.1-.6-.1-.8.2-.3.4-.7.4-1.1.3-.4-.2-.8-.2-1.2 0l-1 .1c-1 .1-2-.2-3 .1-.1.2-.2.5-.4.6-.2.2-.4.4-.7.4-.7.1-1.1.8-1.9.7l-1.3.1c-.5.1-.9.1-1.3-.1l-.7.5a1 1 0 0 1-.9.1c-.6-.3-1.1-.1-1.6.2a2 2 0 0 1-1.1.3c-.5-.1-.9.1-1.3.5-1 .9-2.1 1.5-3.4 1.7l-.2.2c-.4 1-.2 1-1.5 1l-1.1 1-.2.8c-.2.6-.3.6-1 .6h-.3l-.4.9-.3.1c-.8.3-.8.3-.8 1.1v1c-.2.3-.9.3-.8.9l-.2.3c-.4.3-.9.5-.9 1.1l-.1.2-1.9 2 .2.6v.2l-.5.6c-.1.2.1.6-.1.8l-1.1.7-.3 1.3.1.7c.2.4.1.8-.2 1.1-.4.4-.7.8-.7 1.4l-.4.8c.3.7.1 1.4-.4 2.1l-.2.5c0 .5-.1.9-.6 1.2l-.1.1-.4 1.7v.3c-.4.8 0 1.6 0 2.4 0 .4.1.7-.2 1.1l-.1.3c.2 1.2-.1 2.3-.3 3.4l-.1.3c-.7.8-.4 1.8-.8 2.7.4.3.6.7.7 1.2.1.4.1.8-.2 1.1-.5.5-.3 1.2-.2 1.8l.3.6c.2.4.3.9 0 1.3l-.1.3c.2.5 0 .8-.4 1-.3.2-.3.5-.3.8l.1.2c0 .4-.2.8-.1 1.1l.6.9c.1.3 0 .7.2.9.7.6.5 1.2 0 1.8-.3.4-.4.9-.3 1.5.9.7 1.3 1.7.7 2.8.2.6 1 .8 1 1.6l-.8.8c-.1.4.2.6.4.8.7.8.7.8.1 1.7l.6.7.1.9c0 .5.2.9.4 1.3.3.6.3.7-.3 1.1l-.4.3.6.8-.5 1.1.5.9c.2.3.3.5.3.9l.1.4c.2.3.2.6.2.9 0 .5-.1 1 .4 1.4.1.7.5 1.4.7 2.1l.1.7.1.7c.2.3.2.6.2 1 0 .5.3.9.4 1.4 1.4.4 1.6.7 1.4 1.9.4.5.8 1 1.5 1.2.3.1.5.4.5.7v.5c.1.7.1.7.8.9l.3.1c.4.1.6.4.6.8-.1.6.2 1.1.5 1.6.2.6.6 1 1.3 1 .2 0 .4.1.5.3.2.6.7.5 1.1.7l1.4.8.6.4c.6.1.8.5 1 1 .2.7.7 1.1 1.4 1.4l1.3.7c.3-.2.8 0 1.3.1.6.1.6.2.6.9l.7.1c.6 0 1.1.2 1.5.5.3.2.5.3.8.3.7.1 1.3.3 2 .6.4.1.7.4 1 .8l.8 1 .6-.2c.3-.1.6 0 .9.2l.4.4c1 .4 2 .8 2.9 1.4.6 0 1.2.4 1.9.1.5-.2.9-.1 1.3.3s.8.7 1 1.3c.4.1.8-.1 1.1.3.2.2.5.3.7.3h.5l.9.3c.3.1.2.5.3.7l.1.2c.6.4 1-.3 1.6-.4l2.2.4.5-.2c.4-.1.7 0 .9.3.3.4.6.6 1.1.8.5.2 1 .6 1.4 1 .3.3.6.4 1 .2.3-.2.6-.5 1.1-.4.4.1.5.5.7.8l.4.3c.6.2 1.1.5 1.8.4.4 0 .7.1.9.3l.7.5c.3.2.6.3 1 .3.7 0 1.3.3 1.7.8.4.4.9.4 1.3.7.4.3.8.4 1.3.4.3 0 .6.1.8.3.3.3.7.4 1.2.2h.4l3 1.2.3.2c.6.5 1.2.5 1.8.2l.7-.3c.9.2 1.5.9 2.1 1.6l1.2-.3.6 1c.5.1.9.1 1.4-.1.7-.2.9-.2 1.4.5.3.4.6.7 1.1.8h.1c1.2-.4 1.2-.4 2.1.5-.6-1.1-.3-.8-.1-.5l.1.3-.1-.3zm7.6.9-.5.6c-.2.3-.4.6-.7.7-.7 0-.9-.6-1.3-1-.6.3-.7.9-1.1 1.3l.3 1.3 2.1 1c.2-.2.4-.5.6-.5l.9-.1c-.4-.6-.3-1.1.1-1.6-.5-.5-.5-1-.4-1.5.1-.1 0-.1 0-.2.1 0 .1-.1 0 0 .1 0 .1 0 0 0zm26.1-101.4c.1.5.1 1 .3 1.2l1.7 1.6.6-1.2 1-.1c.5-.7-.1-1.3-.2-1.9l-.7.2c-.5-.2-.7-.8-1.3-.8-.1.7-.6 1-1.4 1zm-28.8 255.8-.8.8.8 1.1c.6.7.7 1.3.2 2.1v.1l1 1.4.5.4c.6.2.8.6.7 1.2a6 6 0 0 1-.9 2.2l-.3.4c.7.6.7.6 1.1 1.7l.5.2.4.2c.6 1 1.1 2 .7 3.3-.1.3-.4.5-.7.8l.5.8c.3.5.3 1.1 0 1.6l-.8 1.3c.1.2.2.5.4.6.7.4 1 1.1 1.3 1.8l-.7.5-.4.7-.1-.1h.1l.6.8c.4.5.4.9 0 1.4-.3.4-.7.8-.8 1.4l.2.4c.2.5.4 1.1-.1 1.6-.2.2-.2.5-.1.8 0 .7-.1 1.4.1 2.1.1.2 0 .5-.1.7l.4.5c.5.6.5.9 0 1.5l-.5.5.5.4v.2c-.5.5-.5 1.1-.4 1.7.2.6.3 1.3.3 1.9l.1.5.2 1 .6.7.5.9-1.6 1.5c-.2.2-.2.6 0 .8l.6.4c.7.4.8.9.6 1.6l-.3.9c0-.1 0 0 0 0l.4.3c0 .8-.3 1.5-.8 2 .6.8 1.4 1.3 1.5 2.4l-.7.5c.1.4.2.9-.2 1.2a6 6 0 0 0-.2 1.2l.7 1.4c.2.5.2 1 .1 1.6v.5c.5.6.3 1.1-.1 1.5l.5 3 .9-.1c.6-.1 1.1 0 1.4.6.4 0 .7-.1 1-.4.5-.6 1.1-.6 1.7-.3.7.4 1.4.4 2.1.3.6 0 1.1 0 1.5.5.1.1.5.2.8.1l1.5-.5c.6.1 1 .5 1.5.8l.4.4c.2.4.2.7-.1 1.1l-.3.3c0 .5-.2.9-.1 1.3.2.5-.1 1 .3 1.6.3.4.1 1 .5 1.5.3.3.2.7-.1 1.1l-.4.5.1.9c0 .5.1.9.4 1.3.2.2.2.6.3.9l.1.4c.5.6.2 1.3.1 1.9 0 .6-.3 1.1-.7 1.6.2.6.6 1.1 1.1 1.5l.5.6c.1.4.1.8-.2 1.2l-.5.6.2.3c.3.5.8.9.7 1.5l.2.5.4 1.7-.1.4c-.2.5-.1 1 .2 1.5.6 1.1.5 1.5-.6 2.3-.1.4-.1.8.3 1l.3.3c.7.7.7 1 .2 2l.3.4.3.4-.6.9v.3l.3.5c.4.6.4 1.1-.1 1.6-.3.3-.3.6-.2.8.3.6.4 1.2.2 1.8-.1.2 0 .4.1.6.1 1.1-.1 1.3-1.1 1.7.8.3.8.3 1.2 1.2.2.5.5.9.3 1.4l.1.5c.2.7.3 1.3-.2 1.9-.2.3-.2.8-.3 1.2l-.4 1.1.4.5c.5.5.4 1.2.4 1.9l-.2.4-.6.6.5 1.8-.6.9c.5.4.7.8.6 1.4l.2 1.4c.1.5.1.9-.3 1.3l-.4.5.4.9c-.4.7-.6 1.4-.3 2.1v.7-.1l.3.2c.8.7.9 1.2.3 2.1l-.2.2v2.1l.9.8c.5.4.5.7.2 1.2s-.7 1-1.3 1.2a2 2 0 0 1-.6-.4c.1.5-.1.7-.5.8l-.6 1.8c-.5.3-.9 0-1.2.1-.4.1-.7-.1-1-.3l-1.7 1.3c-.8 0-1.3-.4-1.7-.9-.3.4-.3.9-.9 1l-.8-.5-.4.1c-.6.3-1.2.5-2 .4h-1.5c-.3-.1-.6.2-1 .3l-.4-.3c-.3-.1-.7-.4-1-.3-.6.1-1.3-.1-1.9.1-.8.2-1.7-.1-2.5.1a.8.8 0 0 1-.5-.2c-.6-.5-1.2-.5-1.9-.4-.9 0-1.8 0-2.7-.4h-.6l-.7.1c-.5.1-1 .3-1.5.2l-1.2-.5c-.7-.2-1.3-.3-2 .2-.2.2-.5.2-.8 0-.3-.3-.7-.4-1.2-.4l-.3-.1c-.5-.3-1-.1-1.3.3l-1.3-.2-1.2-.1c-.6 0-1.1-.1-1.4-.6l-.9.2-.9.1c-.9 0-1.7-.2-2.5-.3l-2.4-.2a5 5 0 0 1-1.2-.2l-.8.7-.7-.1h-.5c-.7.2-1.3.4-1.9-.2h-.2c-1.6.1-1.6.1-2.7-.3l-1.1.7c-.7-.1-1.3-.3-1.7-.8l-.4.1c-.9.6-.9.6-1.8.1l-1.2.4c-.7.3-1.3.2-1.9-.1-.4-.2-.8-.3-1.2 0l-.4.1c-1.1-.2-2.1-.1-3.2-.4-.1 0-.2-.1-.2 0-.9.4-2 .1-2.8.8-.6 0-.8-.5-1.1-.8-.3.1-.5.3-.9.2l-.9-.2c-.6.1-1.1.1-1.5-.2h-.3l-2 .4c-.2-.1-.5-.3-.8-.3-.3 0-.6.3-.9.5l-.5-.2c-.3-.2-.6-.3-1-.3s-.8 0-1.1-.2c-.3-.2-.5 0-.8.1-.7.2-1.5-.1-1.9-.7-.2-.3.1-.6.1-.9l.4.1.3-.1v-.1l-.3-.1-.4.2-1.1-.2c-.2 0-.5-.2-.7-.1-.5.2-.9.1-1.3-.2l-.4-.1c-.5.2-.9 0-1.4-.1-.8-.2-1.6-.5-2.5-.5a1 1 0 0 1-.6-.2l-1.5-1.1c-.2-.2-.3-.5-.2-.7l.3-.5c-.2-.5-.7-.7-.7-1.3 0-.6.5-.7.8-1-.3-.5-.6-.9-.7-1.3-.1-.4.1-.9.2-1.3l.2-.9c.4-.9.4-.9.1-2.1l.5-.8-.2-.3c-.3-.2-.4-.5-.3-.9l.1-.3c.2-.8.2-1.5-.3-2.2-.3-.4-.4-.8-.3-1.3V409c0-.6.1-1 .8-1.2.5-.1.5-.4.2-.8l-.4-.5-.1-.3c.3-.8 0-1.7.1-2.6l.1-.3c-.3-.3-.7-.4-.8-.9 0-.5-.1-1 .2-1.5l.2-.5c0-.4.4-.6.6-.8a2 2 0 0 0-.6-1l-.4-.4c-.4-.4-.4-.9-.1-1.4.3-.4.5-.8.6-1.4v-.1c.9-1 .3-2.1.3-3.2 0-.5-.1-1 .3-1.4-.3-.4-.4-.8-.2-1.3s.2-1.1-.3-1.5l-.1-.2c.1-.6-.4-.9-.7-1.4a2 2 0 0 1-.1-1.7l.3-.5c.5-.6.5-1.2.3-1.9-.1-.3-.2-.6-.1-1 .1-.3 0-.3-.5-1.2l.2-.6c.2-.3.3-.6.2-1v-.3c.3-.6.3-1.3.5-2l-.8-1 .9-1.1c-.3-.9-.1-1.7.4-2.4l-.9-1.8c-.2-.4-.2-.7.2-1l.5-.5c.4-.4.4-1 .1-1.5l-.8-1.5c-.1-.2 0-.5.1-.6l.7-1.1v-1.1l.4-.2c.4 0 .7-.3.7-.6.1-.5.5-.8.9-1 .8-.5 1.6-.7 2.5-.5l.2-.2c.6-.6.6-.6 1.3-.1.3.2.7.3 1.1.1l.7-.1c1.1-.3 1.1-.3 2.2 0l.4-.2c.4-.3.8-.3 1.2-.2l1.1.2.4-.6.6-.3h2c.6.2 1.1.1 1.6-.2l1.2.3 1-.6c.4.2.9.2 1.4-.1.5-.3 1-.3 1.5.1l.4.2c.4-.3.8-.5 1.4-.5l.6-.1c.5-.3.9-.1 1.3.1.2.1.4.2.5.1.5-.2 1-.1 1.4.1.6.2 1.1.2 1.6-.2.6-.4.8-.4 1.3.1l.5.5.5-.3 1.2-.3c.5 0 1.1 0 1.5-.4.2-.2.6-.1.8.1l.6.7h.4c.6-.6 1.4-.4 2.1-.3h2.8c.8.2 1.4.2 2.1-.4l.6.2c.5.3 1.1.4 1.6-.1.3-.2.7-.2 1-.1.3.1.6.2.9 0 .5-.2.8-.1 1.1.4l.3.4c.5-.2.5-.9 1-.9h1.3l.8.5a2 2 0 0 1 1.7-.2h1.1c.7-.2 1.5-.2 2.1.2.4.2.7.2 1.1.2l.7.1c.5.7 1.2.5 1.8.5.5 0 1 0 1.4.3.3.2.7.1 1-.1l.3-.3c.4-.4.8-.7 1.4-.4.4.2.9-.2 1.4 0l.4-.2 1-.4c.2-.1.5-.1.8 0l1.3.4c1.3-.7 1.3-.7 1.6-1.3l-.3-.4c-.6-.4-.5-1.1-.7-1.6v-.1c.5-.5.2-1.1.1-1.6 0-.7.2-1.2.5-1.7l-.2-.3c-.7-.4-.9-.9-.8-1.6l.2-1.5v-.6c-.5-.6-.6-1.5-1.1-2.1l-.2-.2c-.4-.1-.4-.5-.6-.8a1 1 0 0 1 .1-1.2l.2-.4c-.2-.6.1-1.2.3-1.8l-.5-1c-.3-.4-.2-.8 0-1.2l.4-.7c.2-.4.1-.8-.2-1-.4-.3-.6-.5-.7-1-.1-.4-.5-.7-.7-1.1 0-.8.5-1.4 1.3-1.8V332c0-.3 0-.5-.3-.7-.3-.2-.3-.6-.2-.9.4-.9.3-1.8.1-2.7-.1-.5-.1-1.1 0-1.6 0-.5.4-.9.9-1.1 0-.3-.2-.6-.1-.7.5-.8-.1-1.4-.2-2.1 0-.2-.3-.4-.5-.6-.6-.6-.7-1.2-.1-1.9l.2-.3c0-.8-.1-1.6.2-2.4.1-.2 0-.4-.1-.5-.3-.6-.4-1.2-.3-1.9.1-.5-.1-.9.1-1.4.1-.3-.2-.6-.3-1l.4-1c-.3-.4-.8-.5-1.2-.7-.4-.2-.7-.5-.9-1-.1-.4 0-.8.4-1.2-.1-.2-.3-.3-.3-.5-.2-.6-.2-1.2.3-1.7l.4-.3-.6-1c-.4-.6-.6-1.2-.3-2 .2-.5.1-1.1-.4-1.6l-.6-.7c-.1-.5-.1-1 .3-1.5l.1-.8-.2-1-.1-.1c-.7-.4-.8-.9-.5-1.5l.1-.3-.6-.5c-.5-.4-.4-1-.5-1.5l.4-.5-1.3.1c-.7-.7-1-1.5-.9-2.4l-.1-.7c-.1-.4-.3-.9-.7-1.1l-.9-.6c-.5-.3-.8-.7-1.1-1.1-.2-.3-.3-.6-.3-1v-.9l-.7.1h-.7c-.7 0-.7-.1-1-.8l-.1-.3-1.8-.2-.7-1c-1-.4-1.9-.6-3-.3l-1.2-1.1-1.1.3c-.5-.6-1.2-.8-2-.7l-.7-.1-1.5-.2-1.2 1.3c-.5.6-1.1.7-1.7.2-.4-.4-.8-.7-1.3-.3h-.3c-.3-.1-.5 0-.7.2-.2.2-.6.3-.6.7 0 .6-.4.8-.9.9-.5.1-.9.2-1.2.6-.3.3-.7.3-1.2.2-.9-.3-1.7.1-2.1 1.1l-.7 1.2-1.3 1.6a1 1 0 0 1-.9.5c-.6 0-1 .3-1.4.7-.7.6-.7.6-1.5.7l-.1.3c0 .8-.2 1.4-1.1 1.6l-.9.5.5.6c0 .8-.2 1.4-.8 1.9-.1.1-.3.3-.3.5 0 .6-.4 1-.8 1.2l-.1 1.2c-.5.3-.8.8-1 1.4-.1.4-.5.7-.8.9l-.8.3c.2.6.5 1.2 0 1.7l-.1.4c.2.5-.1.9-.5 1.2l-1 1c0 .3.1.6.4 1 .3.4.3.9 0 1.3l-1.1 1.4c-.3.3-.4.7-.3 1.1.2.7 0 1.2-.4 1.7.7 1.1.7 1.4-.3 2.3l.4 1-.2 1.1.3.4c.3.4.4.9.2 1.4l-.5 1.7.4.9.1.4c-.2.4-.1.8.1 1.2.2.4 0 .7-.4.9l-.5.2-.4.1c-.3.5-.4 1 0 1.4.5.5.4 1.1.2 1.6l-.3.8.3 1v.2c-.2.5-.4 1-.1 1.5-.3 1.1.4 1.9.8 2.8.3.5.4.9.2 1.4-.2.5-.3 1-.7 1.4-.2.2-.3.5-.3.8l-.2 1.2-.4.6.7.3.5.3c-.1.9-.4 1.5-.9 1.9.1.3.2.6.1.8-.1.3 0 .6.2.9.2.4.2.7.1 1.1-.2.5-.3 1.1-.1 1.7.1.5-.1.9-.7 1.1l.3.6v.6c-.5.5-.5 1.1-.7 1.7-.2.5-.4.7-.9.7l-.7.1c-.3.1-.6-.1-.7-.3-.2-.6-.5-1.1-.1-1.7.2-.2.1-.5-.1-.7l-.6-.7.1-.8c.2-.5.2-1 .1-1.6-.1-.4 0-1 .1-1.6a1 1 0 0 0-.6-.5c-.5-.3-.7-.9-.2-1.4l.2-.2c.8-1.1.8-1.1.4-2.4-.2-.4-.1-.8.1-1.2l.3-.5c-.4-.9-.8-1.7-.1-2.6l-.8-1.4c.3-.9.3-.9 1-1.4l-.3-.6c-.1-.2-.2-.4-.1-.5.2-.6-.1-1.3.3-1.8 0 0 .1-.2 0-.2-.4-.5-.3-1.1-.3-1.7 0-.7-.1-1.3-.5-1.8-.3-.4-.3-.9-.5-1.4.3-.8.7-1.3 1.5-1.5.4-.1.7-.3.6-.9l-.3-.1c-.4 0-.7-.3-.9-.6-.2-.4-.4-.9-.3-1.3l.2-.7v-.6c-.2-.6-.2-1.2.1-1.8l1.4-3.2c-.2-.8-.4-1.6.3-2.3l-.5-.3c-.2-.1-.5-.2-.6-.5-.1-.4-.1-.8.2-1.1l.3-.4c.3-.2.4-.6.4-.9-.1-.6.2-1 .8-1.3l.4-.3-.1-.4c-.2-.5-.1-1.1.1-1.6.2-.4.4-.8.3-1.2.4-1 .4-2.1 1.4-2.8l-.2-2 .7-.6a2 2 0 0 1 1-.5l1.1-.3-.2-.6c-.1-.4-.1-.7.2-1 .2-.2.4-.5.3-.8l.1-.3a2 2 0 0 0 .2-2c-.2-.5.2-.9.6-1.2l1.2-.9c.6-.5 1.2-1 1.6-1.7l1-.9-.2-.7c-.1-.5.2-1.1.7-1.2.6-.1 1.2-.5 1.9-.2.2.1.4 0 .5-.1l.6-.3.5-1c.4-.7.9-1.1 1.8-1 .4 0 .7-.1.9-.3l.4-.2c.7-.1 1-.6 1.1-1.3v-.4c.4-.4.9-.5 1.5-.4l.9.1c.4 0 .7-.1.9-.5.2-.4.5-.6 1-.8l.5-.4c.5-.5.9-.5 1.4 0 .3.2.5.2.8.2.7.1 1.3-.2 2 0l.4-.1 1-.6c.4-.4.8-.4 1.3-.2l.8.5.8.4c.3.1.6.2.9 0 .7-.5 1.3-.5 2.1-.2l1 .3.5-.2h.9c.4.2.9.4 1.3.4l1.2-.2 1 .8c.4.2.8.4 1.1.8l.3.2c.9 0 1.5.9 2.4.9.2 0 .5.2.5.4.1.4.4.5.7.7.7.3 1.3.7 2.1.7.3 0 .5.3.7.6.2.4.4.7.8.9.4.2.5.5.7.9l-.2.5c-.2.7.1 1.1.8 1.3.7.1 1 .6 1.1 1.2.5.1 1 .3 1.2.8l.5 1.4c.1.1.1.2.3.2.4.2.7.5.7 1 0 .3.2.5.5.7 1.1.9 1.1.9 1.1 2.3-.5 1.6-.5 1.8-.4 2.1zm-43.7 65.4-.9.1c.5.3.7.2.9-.1zm-9.1 67.1 1.3.2c-.7-.5-.7-.5-1.3-.2h-.6c.3.3.5.2.6 0zm70.6-20.7c-.9-.6-.5-1.5-.7-2.3-.1-.8.3-1.6.8-2.2l-.1-.9c0-.3-.3-.4-.4-.7-.3-.8-.7-1.5-.6-2.4.1-.7-.1-1.5-.5-2.1.1-.5.6-.9.3-1.4l.1-.4.4-.7c-1-.5-.6-1.2-.3-1.8-.3-.4-.5-.9-.2-1.3.4-.6.2-1.2-.2-1.7l-.7-1.2c-.2-.3-.3-.6-.2-1 0-.4.4-.4.6-.7l.1-.1-.2-1.1c-.4-.6-.4-1.3-.6-1.9l.5-1.2-.7-.3c-.8-.5-.9-.9-.4-1.7l.9-1.3c-.7-.4-1-1-.9-1.8l-.2-.5-.2-.9.3-1.3c-.3-.4-1-.6-1-1.3.4-.6.7-1.4.9-2.2l-.5-.6c-.6-.9-.6-1.3.2-2.1.7-.6.6-1-.1-1.5-.5-.3-.5-.3-.4-1 .1-.5 0-.6-.4-.8l-.4-.1c-.6.2-1.1-.1-1.7-.3-.3-.1-.5-.2-.8-.1h-.7c-.3-.1-.6 0-.9.2-.5.2-1 .3-1.4-.2-.2-.2-.4-.3-.7-.2-.4.1-.8 0-1.1.3-.2.1-.4.1-.6-.1l-.4-.4-1.1.2-1.2.3-1-.7-.8.4-1.3-.4-1.1.4h-.6l-1.7-.4h-.6c-.4 0-.9 0-1.2.2-.5.2-.9.2-1.3 0l-.3.1c-.8.4-1.7.4-2.5.1-.5-.2-1-.2-1.4.1-.3.2-.6.2-1 .3l-.7-.8-1.3.4c-.5.2-1 .2-1.3-.3l-1.3.1c-.6 0-1.1 0-1.5.5-.3.3-.7.3-1.1.1l-.3-.1c-.4.2-.7.6-1.3.6l-.3-.2c-.4-.5-.9-.6-1.4-.4l-.8.1c-.4-.1-.7.1-.9.4-.2.3-.3.6-.7.6l-.8-.6c-.3-.3-.6-.4-1-.2l-1.5.8c-.4-.2-.8-.3-1.3-.1-.3.1-.6 0-.9-.1-.7-.2-1.5-.4-2.2 0-.4.2-.9.3-1.3-.2-.2-.3-.5-.3-.8-.1-.3.1-.6.2-1 .1-.6-.2-1.3-.2-1.9.2-.2.1-.5.2-.7.1l-.6-.5a7 7 0 0 0-1.3.5c-.6.3-1.3-.1-1.9 0-.2 0-.4-.3-.6-.4-1 .6-2.1.4-3.1.2l-.4.3c-.3.4-.7.4-1.2.2l-.3-.1c-.3-.2-.6-.2-1 0l-1.2.6-.7-.5c-.2-.1-.4-.2-.5-.1-.5.2-.9 0-1.2-.3-.9.7-1.9.6-2.9.6-.4 0-.8 0-1-.3l-.7.4c-1-.4-1.3-.5-1.9-.2-.8.3-1.5.2-2.1-.5-.5.3-.9.8-1.5.9-.5-.2-1-.6-1.6-.7-.6-.1-1-.4-1.3-1l.4-.4c.6-.3 1.3-.4 2-.4.4 0 .5-.2.6-.5l-.4-.3c-.1-.1-.1-.4-.3-.3-.4.2-.4.7-.9.8-.5.1-.8-.3-1.2-.5l-1.2.4-.5 1.6.4.9c-.2.6-.4 1.2-.1 1.7.3.5.4 1 .1 1.5.3.4.7.8.6 1.5-.5.4-.7 1.1-1 1.7.8.7.8.7.4 1.6l-.1.3.5.8-.7 1.8c.2.6.5 1.2.1 1.9.6.3.5.7.3 1.2l-.3 1 1.1 2.7c.2.4.1.9-.2 1.3l-.2.4.5 1.8c.1.3.1.5 0 .8l-.4 1.8v.7l.1.7-.3.7.2.2c.6.6.8 1.3.3 2.1-.2.3-.2.7.1 1l.4.5c-.2.4-.4.8-.1 1.3l.1.8v1.2c.2.9 0 1.8-.3 2.6l.1.3c.7 1.3.7 1.3-.2 2.4-.1.8.6 1.5.7 2.3-.7.6-.9 1.5-1.5 2.4.5.3.8.8.5 1.4-.2.4-.1.7.1 1 .2.4.3.8.1 1.2v.3l.3 1.1c.2.4.1.7-.1 1l-.5 1c0 .6.4 1 .4 1.6.1.4.5.8.7 1.3l-.3.9.4.9c-.2.6-.8.7-1.1 1.2 0 .4.2.8.6 1.2.4.3.5.7.4 1.2l-.1.6c.7.5 1.3.4 1.9 0l.7.4c.6-.2.8.3 1.2.5.4-.2.7-.5 1.1-.3.6.3 1 .2 1.5-.2.3-.2.6-.2.9 0 .3.6.7 1 1.4 1.2.5-.1.8-.5 1-.9.2-.5.6-.8 1.1-.9.9 0 1.9-.2 2.7.5.2.1.5.3.6.2.6-.3 1.1.1 1.7.2.7.2 1.5.6 2.3.2h.4c.5 0 .8.5 1.2.7.5-.6 1.1-.8 1.7-1 .4-.1.8-.1 1.2.2l.4.2.6-.2.6-.2h.2c.8.3 1.5.5 2.3 0 .4-.3 1-.2 1.4.1l.7.3 1.2.3c.8-.4 1.6-.4 2.4.1.4.3.9.3 1.4.1l.2-.3c.3-.5.7-.6 1.1-.4l.4.4c.3.3.6.4 1.1.2.8-.3 1.6-.3 2.2.3l.9-.1c.4.3.4.8.7.8l1.8-.5a2 2 0 0 1 1.1 0c.9.2 1.8.4 2.7.4 0-.4.3-.5.7-.5.3 0 .6.1.8.4.3.5.8.4 1.2.2l.4-.3c.4-.2.9-.3 1.2 0 .7.6 1.2.4 1.8-.2l.7-.4c.4-.1.9-.2 1.2.1.4.4.8.3 1.3.1l1.1-.4c.6-.3 1.2-.5 1.9-.2.5.2 1 .2 1.4-.1h.5c.3.2.7.2 1 0 .4-.2.7-.1 1 .3l.3.4.4-.3c.4-.2.7-.3 1.1.1.4.4.9.4 1.4.1l.6-.3c.5.3.9.7 1.5.5.5-.2 1 .1 1.5 0 .6-.1 1.1.1 1.6.4.6.3 1.2.5 1.9.2h2.3c.5-.1.8 0 1.2.2l.4.2c1-.2 1.7.5 2.6.8h.2l1-.7c.5-.3.8.3 1.1.4l.8-.2c.4.1.7.1 1-.2l.3-.1c.7 0 .9-.5 1.2-1.1.3-.6.1-1.1-.2-1.6l-.7-.6.5-1.1c-.5-.6-.2-1.2 0-1.8-.3-.5-.7-.9-.5-1.5.2-.7-.2-1.4.2-2v-.3c-.2-.4-.2-.9-.2-1.4 0-.6-.2-1.1-.4-1.7l-.3-.6.3-.6c.3-.4.6-.9.3-1.5v-.2c.2-.4 0-.7 0-1.1-.6-1.6-1.1-2.3-.6-3.2zm-65.6-45.8c-.6-.3-1.2-.3-1.8-.3l-.4.1-.2.1.2.1.4.1 1.8-.1zm-4.2.3c-.6-.7-1.3-.2-1.9-.1.5-.1.9.2 1.2.5l.7-.4zm-10.8.7.7-.2.5.2.3-.2-.1-.4h-.9c-.1.2-.2.4-.5.6zm14.1 66 1.3-.2-.5-.5-1 .3.2.4zm5.7 0 1.1-.3.1-.2c0-.2-.2-.3-.4-.3a2 2 0 0 0-.8.8zm-15.4-.4c.4-.1.7 0 1 .1l.3-.3c-.6-.2-1-.4-1.3.2zm2.7-66.2-.3-.4-.3.1c-.1.2 0 .3.2.3.1.1.2 0 .4 0zm-286.8-1.2-.9.2.5 1.1c.4.5.5.9-.1 1.4l.5.3c.4.3.8.6.7 1.2l.3.8-1 1.3c.6.7.7 1.6.7 2.5 0 .9.3 1.7 1 2.2l1.2-1.3c.4-.4.8-.6 1.4-.4.4.1.7.2 1.2 0l.1-.7.2-.5c.2-.3.7-.2.9-.7.1-.4.4-.5.8-.6l.3-.4c.2-.3.4-.6.9-.7l.3-.1c.6-.8 1.7-1.1 2.3-1.9l.3-.2c.1-.4-.2-.8.2-1.2.4-.3.8-.3 1.1-.2.4-.3.7-.6.8-1 .1-.3.3-.6.6-.6.6-.1 1-.7 1.2-1.1.3-.6.7-.8 1.3-.6l.4.1a3.2 3.2 0 0 1 3.3-2.7l.4.9h.3c.2-.2.3-.5.6-.4.4.1.4.4.4.7l.3 1.8v.2c.4.6.5 1.2.6 1.9l-.5.1.5 1-.2.6-.1.3c.6.7 0 1.2-.2 1.8v.2c.3.5 1.1.8 1 1.7l-.6.8.1.8c0 .4 0 .7-.2 1l-.4 1.1.9 1.3c.6.8.6 1 0 1.9.4.5.6 1.1.8 1.7.2.7.1 1.2-.5 1.6 0 .3.1.6 0 .8l-.3.7.1.3c.5.9.8 1.7.1 2.6l.1.4c.4.5.4 1.1.3 1.6a2 2 0 0 1-.9 1.3c-.4.3-.9.5-1.4.4H117c-.5-.8-1.3-1.1-2-1.5l-.7-.1c-.8.2-1.5-.1-2.2-.6-.4-.3-.7-.4-1.2-.4l-.9-.3c-.2-.1-.4-.2-.5-.1-.6.3-.9-.1-1.2-.5l-.2-.4-1 .7-.5-.1c-.4-.1-.7-.3-.8-.7l-.5-1.1-1 .3c-.4-.3-.8-.5-1.1-.9-.9-.9-1.2-1-2.3-.7-.8-.2-.8-1.1-1.4-1.5-.3.4.1.7 0 1.2-.1.4-.5.8-1 1.1l.3 1.5c.9.8 1.5 1.7 1.2 3.1-.6.3-.7.9-1 1.5.3.4.6.7 1.2.7l.4.1c.3.1.5.4.4.7-.1.5-.3.9-.6 1.3-.4.5-.4 1 0 1.5l.1.2c.5.9.8 1.8.7 2.9v.3c-.3.6-.1 1.3 0 1.9l.1.6c-.1.7.1 1.3.7 1.7l.1.2c0 1-.9 1.6-1.1 2.4.1.3.3.3.5.3.5.1 1 .3 1.4.7l-.5 1.8.3.5c-.3.4-.3 1-.8 1.3-.5.3-.9.6-1.5.5l-.4.1-.1.2.1.2.3.1c.8.1 1.1.6 1.5 1.2.4.6.6 1.3.4 2.1-.1.4-.3.6-.7.7l-2.7.6c-.8.3-1.5.1-2.2-.3l-.2-.1c-.9.9-2.1 1.2-3.4 1.1l-.3-.6-.4-.1c-.9 0-.9 0-1.6-.4-.6.5-1.3.3-2 .3l-.9.9c-.3.3-.7.4-1.1.2-.5-.3-.9-.1-1.3 0l-.7-.4c-.4.9-1.1 1.2-2.1.9l-.6.1a4 4 0 0 1-3.1-.7c-.9-.1-1.7.6-2.4.9-.9.4-1.7.5-2.4-.2l-1.1.5-.1.1c-.4.9-1 1.4-2.1 1.1-.5-.1-1.1-.2-1.5-.5-.3-.2-.5-.3-.6-.6-.1-.3-.5-.3-.7-.1l-.2.3c-.4.5-.4.5-1.3.6l-.5.9-2-.4-.7.1c-.7.1-1.5.1-2.2.4h-1c-.5-.2-.2-.7-.6-.8-.4-.2-.9-.2-1.3-.2-.8.8-.8.8-1.9.8-.7 0-.7 0-1.1-.8-.5.1-1 .3-1.4.6-.4.2-.7.3-1.2.1-.6-.3-1.3-.3-1.9.2-.4.3-.9.2-1.3.1l-1.1-.4c-.9.7-1.9.3-2.9 0l-.6.3c-.5.4-.9.5-1.5.2-.3-.2-.7 0-.9.3-.4.6-.9.5-1.5.2l-.9-.4-.3.4c-.2.4-.6.5-1 .5l-1-.1c-.7-.5-1.6-.4-2.2-1.1-.1-.2-.4-.2-.6-.4l-.1-1-.2-.2c-.5-.2-1-.5-1.5-.5s-.8-.2-1.1-.5l-.7-.6c0-.8 0-.8.6-1.5l-.1-.9-.1-.4c-.3-.2-.4-.4-.5-.8l-.1-.3c-.6-.5-.5-1.1-.1-1.6l-1.1-1c-.1-.2.2-.3.2-.6l.1-.6c.2-.5.3-1 .7-1.4.4-.3.3-.6 0-.9-.3-.3-.6-.7-.6-1.2l-.1-.2c-.5-.5-.6-1-.1-1.5-.1-.7.2-1.4.3-2l-1-1.2.3-1.5a11 11 0 0 1-.6-1.1c-.2-.4.2-.7.4-1l-.5-1.1c-.3-.4-.3-.9-.3-1.4 0-.3 0-.6-.2-.8-.3-.4-.2-.8-.4-1.2l-.6-.5-.5-.5c.4-.7.7-1.4.7-2.3 0-.4.2-.8.4-1.2.5-.8.5-.8.5-1.7l-.6-.2-.7-.2v-.5c0-.4-.1-.7-.4-1-.7-.7-.7-1.1-.2-2l.2-.4c-.5-.7-.5-.7-.5-1.4 0-.5.1-.8.3-1.4l.3-.8c-.9-.4-.9-1.3-.8-2.1l.1-.7c.2-.4.1-.8 0-1.3 0-.2-.1-.4-.3-.5-.3-.2-.4-.5-.6-.8-.4-.9-.3-1.8.3-2.6.3-.5.7-.9.7-1.6 0-.4 0-.7-.4-.9-.3-.2-.4-.5-.4-.9.1-1.1-.1-2.2.2-3.3.2-.7-.1-1.3-.3-1.9l-.2-.4c-.1-.4.1-.7.5-.9l.5-.1v-.4c0-.5.2-.9.6-.8.7.1 1.1-.2 1.4-.8.1-.3.5-.4.7-.3.6.3 1.3-.1 1.9.4h.7l1-.1c.4-.4.9-.8 1.7-.6l.6-.1 1.7-.4c.2-.3.6-.7 1.3-.7.6 0 .8-.5 1.1-1 .1-.3.3-.5.6-.7.3-.1.6-.2.9 0 .6.4 1.3.8 1.7 1.4l.5-.3c.3-.3.7-.5 1.2-.6.7-.2 1.2-.6 1.4-1.4l.9-.3.3.1c.5.3.9.4 1.4.2.9-.3 1.5-.1 1.9.7l.2.3c.4 0 .5-.3.5-.5-.1-.5.1-.9.6-1.2.6-.3 1.2-.7 1.9-.3l1.1.6c.2-.1.6-.1.8-.3.3-.3.7-.4 1.1-.3.5.1.9 0 1.3-.2h1.3l.3-.3c.5 0 .8.3 1.3.5l1.2-.3.8.4 1 .2a4 4 0 0 1 2.8-.9l.6-.1c.7-.3 1.4-.5 2.2-.2h.2l2.2-.5.9-.5c.4-.3.8-.4 1.3-.2h.6c.9-.3 1.8-.5 2.7-.2.3.1.6 0 .9-.2l1-.6 1 .6.3-.4.1-.2.5-.3c.5-.1.9-.7 1.5-.5l1.3.4c.6-.3 1.3-.7 2-.7.3 0 .4-.1.6-.3.3-.5.8-.5 1.3-.3l1.6.7.4.2.3-.1c.6-.7 1.3-.6 2-.6.4 0 .7.2.9.5.4.7 1.1 1 1.9.9.6 0 1.1.2 1.3.7.1.3.4.3.6.5.6.3.7.6.5 1.2-.2.4-.2.8-.1 1.2l.2 1c.1.4.2.9.5 1.3l.2.5c.1.4 0 .9-.5 1l-.4.2c.5 1.4.5 2.8-.1 3.5.7 1.9 1.5 3 1.1 4.5zm17.1 3.7c-.7.3-1.2.8-1.7 1.3a9 9 0 0 1-1.6 1.1l-1 .6c-.5.4-1.1.9-1.8.8l-.1.2c-.1.4-.3.8-.7 1.1-.4.3 0 .8-.3 1.2l-1 1.1c-.3.2-.6.1-1 .1-1.2-.1-1.7.3-2 1.4l-.5.7c-.4.4-.4.8.1 1.1l.5.2c.5.1 1 .4 1.4.7.8.5 1.7 1 2.8.7h.6l1.5.4.6 1.3 2.1.1c.4 0 .8.1 1.1.4l.7.6c.5.5 1.3.9 1.7 1.5l.5.2 1.3-.6c.4-.3.4-.6 0-.9l-.9-.6.2-1.6-.4-.7c0-.6-.2-1.1-.4-1.7-.1-.3-.1-.7.1-1 .4-.7.4-1.5.3-2.3-.7-.5-1-1.3-1.2-2.1.1-.6.6-.8.9-1.2l-.2-.5c-.4-.4-.6-1-.8-1.5-.2-.3-.2-.8-.7-.9l-.2-.4.1-.8s.1 0 0 0l.1-.1-.1.1zm-54.1-9.3c-.2-.2-.4-.4-.6-.4a1 1 0 0 0-.5.2c-.5.4-1.2.5-1.6 1.1l-.3.1-1.2.3-.9-1.8-1-.1c-.5-.1-.8 0-1 .4-.4.7-1.1.9-1.8 1h-2.3c-.4.7-.4.7-1.3 1.3l-2.1-1.2-1.5.9a1 1 0 0 1-.8.1c-.5-.2-1-.1-1.6.1-.3.1-.7.3-1 .2-.6-.1-1.2-.2-1.8.1h-.2c-.4-.3-.7-.4-.8.3l-.3.2-1.5.6-.7-.3-.7-.2c-.8 1-1.1 1-2.3.5l-.7.3c-.7-.7-1.5-.6-2.3-.2l.1.8c0 .7.2 1.2.7 1.7.5.5.7 1.1.4 1.8l.4.7v.5c-.4.6-.4 1.1-.1 1.7l.1.6.1 1.1c-.4.3-.5.4-.3.7l.5 1c.1.3.2.5.5.6.7.4.9 1 .7 1.7-.1.5.1.8.3 1.2-.6.5-.6.5-.5 1.2a3 3 0 0 1-.2 1.9c-.2.4 0 .5.3.8.3.2.7.2.8.6l-1.1 2.5c.6.4 1 1 1.3 1.6l-.1.8c.1.4.4.7.3 1.1l-.6 1 .4.5c.3.3.3.7.1 1.1l-.4 1.1-.5 1 1 1-.4 1.6.4.4c.3.7.7 1.4-.1 2l-.1.2.6.8-.3.5.7.4.5.6c.1.8.2 1.6-.2 2.4-.2.4-.3.8-.1 1.2l.2.6c.6.2 1.1.6 1.4 1.2-.1.4-.1 1-.3 1.4-.3.5-.3 1.1-.3 1.7 0 .9 0 1.7-.4 2.5-.4.6-.3 1.3.1 1.9l.6.8c.4.4.5.8.4 1.3l-.3 1.2-.1.5c1 .3 1 .3 1.8.2h.3c.9-.1 1.8-.1 2.6-.3l1.1-.4.6-.3.6.3c.4.1.7.3 1.1.3.7.1 1-.1 1.3-.8l.2-.2c.9-.1.9-.1 1.5.4l.5.3.9-.7.6-.3c.4-.1.8-.1 1.1.2.4.4.8.3 1.2-.1.3-.3.6-.4 1-.6l1 .4c.4-.3.6-.8 1.2-.9l1.4.5c.7.2 1.5.3 2.2-.1.6-.3 1.2-.4 1.7-.9.4-.3.9-.5 1.4-.2h.9c.6-.2 1 0 1.4.5l.7.8.5.4.1-.3c.1-1.2.5-1.9 2-1.1.4-.6 1.1-.7 1.8-.6h1.3l1.2.3c.4 0 .8.3 1.1.4l1.1-.4c.4-.1.5-.6.9-.9.5-.3 1-.4 1.5 0l.7.6.5.3.6-.4 1.2.2.6-.1c.4-.2.7-.4 1.2-.2.4-.3.8-.3 1.3-.2l.5-.2.5-.4c.6-.3 1.2-.6 1.8-.1.3.2.6.2.9.2.7-.2 1.3-.2 1.9.1h.3l1.2-.2c.5-.2 1-.5 1.5-.2.1.1.4-.1.5-.1.4-.2.8-.3 1.2-.1l.5-.6c.3-.3.7-.4 1.2-.2l1.4.5c.4-.4.8-.4 1.3-.3.6.1 1.2 0 1.7-.5a7.2 7.2 0 0 1-1.3-4.5v-.8c.3-.7.1-1.2 0-1.9-.2-.7-.4-1.3-1.1-1.7-.1-.4-.2-.8.1-1.2.4-.4.5-.9.5-1.4l-.6-.9c-.1-.2-.1-.5.1-.6.4-.4.5-.9.6-1.4-.2-.5-.4-1.1-.7-1.5-.3-.5-.3-.9-.1-1.4l.2-.7c-.1-.5-.6-1-.3-1.5l-.2-.2c-.6-.6-.7-.8-.3-1.5.2-.3.4-.6.4-1l-.3-.2c-.6-.2-.7-.6-.6-1.2.1-.4.1-.9-.1-1.4l-.2-1.2c-.3-.3-.9-.5-.9-1.3l.7-.9c.2-.3.2-.7-.2-.9l-.9-.5.9-2.4v-.4l-.1-.8-1.2-.5-.1-.3c0-.8 0-1.5-.8-1.9a1 1 0 0 1-.2-.6c0-.5.2-.9.7-1.1.4-.2.8-.4 1.1-.9l-.2-.4c-.4-.6-.7-1.3-.4-2.1.1-.3 0-.5-.2-.7l-.6-.4c-.7-.5-.7-1-.1-1.6l.2-.2c-.4-.4-.4-.4-.4-.7-.1-.5.2-.9.6-1.1.8-.4.8-.5.1-1.2l-.4-.4c-.3-.6-.7-1-1.4-1.2l.2-.3c.2-.7.5-1.4 1-2 .3-.3.2-.7-.1-.9-.5-.3-.5-.7-.5-1.2 0-.6 0-1.2-.3-1.7-.4-.6-.5-1.2-.4-1.9-.8.3-1.4-.3-2.1-.5-.3.6-.7.9-1.4.9l-.3.1c-.5.2-1 .2-1.4 0l-.3-.7c-.6.3-1-.3-1.5-.5l-.6.3c-.4.7-1.1.8-1.8.8a1 1 0 0 0-.5.1l-.2.4c-.5.8-1.5 1.3-2.3.9-.5-.2-.9-.2-1.2.3l-.7.4a2 2 0 0 1-1.3 0l-.6.6c-.6-.3-1.1-.7-1.7-.9-1 .9-1 .9-2.5.7l-.2.2-.4.9c-1-.5-1.3-.4-2 .3l-.5.6-.2.1-.8-.5c-.5.2-1 .2-1.5.1s-1.1.1-1.6.1c-.6 0-1.1-.2-1.7-.1a4 4 0 0 1-.9 1.1zM29 358.2s0 .1 0 0l.2.1-.1-.1H29zm69.9 19.7zM264.1 47.1l.7.3c.6.6 1.2.5 1.9.3l.3-.1c.3 0 .6 0 .7.3.5.7 1.1 1.1 1.9 1.5l.4.4c.4.5.4.5.9.2l.4-.2c.4.1.4.4.3.7-.1.8.2 1.4.7 1.9l.4-.2.3-.2c1-.1 1.8.4 2.5 1l.5.4c.4.1.5.4.7.8.1.4-.1.7-.3.9l-.1.2c.7 1.1.6 2.2.2 3.3l.2.2c.8.1 1.1.6 1.2 1.3 0 .6.3 1.1 0 1.7-.1.1.1.5.2.6.7.5.5 1.1.2 1.7l-.1.3.2.6-.2 1.1.5 1c.3.6.3 1.2-.2 1.7l-.7 1.2c.4.8.4 1.5.3 2.3-.1.7-.3 1.4-.1 2.1v.7a4 4 0 0 0 0 1.9v1.1l-1 .6-.1 1c0 .4-.1.7-.3 1l-.4.3c-.5 0-.7.4-.9.8l-.3.8-1.2.8-.9.3c-.3.1-.5.3-.3.6.2.5.1.9-.2 1.3l-.8 1.1c-.4.4-.6.5-1.1.2l-1.3-.9-.4.4-.5.8c-.3.3-.6.5-1 .3l-.9-.3c-.5.2-.8.5-1 1l-.4.8c-.3.4-.7.8-1.3.5-.6.2-1.2 0-1.7.6l-1.5-.4c-.5-.1-1.1 0-1.5.5-.6.7-1.3 1-2.2 1.1h-.7c-.5-.2-.7-.7-1.3-.7l-.4.8-.4.2c-.6.5-1.2.4-1.8-.1-.2-.2-.4-.5-.8-.3l-.2-.2-.5-.6-1.1.3-.5 1.1c-.3.1-.4-.3-.7-.1-.3.2-.6.1-.9 0l-.8-.2-.7.5-.2.1c-.3.2-.6.3-1 .3-.5 0-.5-.4-.8-.6l-.6.3-.5.2c-1-.2-2 0-3-.2l-.6-.3-.9 1.1-.6-.4-.9-.3-.7-.6-.7.2c-.2.5 0 1.2-.7 1.6-.7 0-1.5 0-2.3-.5l-.3-.1c-.5 0-.9-.3-1.1-.8l-1.3.9c-.5.2-1.1.2-1.6.3l-1.7-1.2-1.1.5c-.7-.4-1.5-.7-2.2-.1l-1-.6h-.2c-.4.2-.7.2-1.1-.1-.6-.3-.6-.3-1.1.1l-.7.6h-1.2c-.1.2 0 .4.1.5.4.7.5 1.3 0 2-.2.3-.2.7-.2 1.1a3 3 0 0 1-2.8 1l-1.1 1.3c-.3.3-.7.4-.9.7l-.5 1c-.3.6-1 .7-1.5 1h-.2l-.4-.1-1.2 1.7-.5.4-1.4.9c-.4.3-.8.6-1.3.7-.4 0-.7.3-1 .6-.8.7-.8.7-2 .6h-.3l-.7.8a2 2 0 0 1-1.1.1l-1.6-.4c-.6-.2-1.1-.1-1.5.3l-1-.4-1.1.4-.5-.5-.5.5a.8.8 0 0 0-.9 0l-.6.3h-1.1c-.4-.4-.9-.2-1.3-.1-.9.3-1.8.3-2.7-.2l-.7-.3-1.3-2.4c-.9.1-1.6-.5-2.4-.8-.3-.6.1-1.2.2-1.8l.1-.2.7-.4c.5 0 .9-.6 1.4-.3.5.2.9.1 1.3-.2.5-.4 1-.5 1.6-.6l1.7-.4.2-.1c.4-.6 1-.5 1.5-.4.6-.1.9-.9 1.5-.5l1.5-1.6c.2-.2.5-.3.8-.3.4 0 .5-.3.6-.6v-.6c0-.3.1-.5.4-.7.8-.5 1.3-1.2 1.5-2.1l.7-.5.4-.4c.1-.2.2-.6.4-.7.6-.4.7-1 .7-1.6l.2-.9c-.7 0-.8.1-1 .5l-.3.6c-.3.4-.8.5-1.2.2l-.5-.5-.7.7-1.1.4c-.3.1-.7 0-1-.1l-1-.2-.4-.1c-.4.2-.8 0-1.1-.2-1.2 1.3-2.2 1.4-3.3.3l-.8.3c-.5.1-1 .2-1.3-.1-.4-.3-.8-.3-1.3-.1l-.5.2c-.2-.5-.5-.9-1-.9l-.5-1.7-.8-.1c-.7 0-1.1-.3-1.4-.9l-.7-1.6.1-.4c.5-.9.2-1.7-.3-2.5-.4-.7-.7-1.4-.8-2.2 0-.5-.2-.8-.5-1.1-.4-.4-.4-.6 0-1.1l.4-.5c-.3-.6-.1-1.4-.4-2v-.3c.3-.6 0-1.2 0-1.8l.2-1.6c0-.5-.3-1.1-.2-1.6.1-.8 0-1.7.3-2.5.2-.4.2-.8 0-1.2l-.1-.3c-.1-.8.1-1 .8-1.2l.7-.3c-.1-.5-.6-.5-.9-.8-.2-.5-.1-.9.1-1.4l-.7-1 .3-1.3 1.2-.8-.1-.5.2-.5c.8-.5 1.3-1.2 1.7-2.1.1-.4.6-.6 1-1-.2-.8-.2-.8.2-1.5 1.4-.5 2-.7 3.2 0l1.9-2.1.3-.2c.4-.2.6-.2 1 0l.7.5c.7-.1 1.4-.3 2.1 0 .2.1.4-.1.6-.2l1.8-1.1.6-.1.8.1c.5 0 .8.2 1.2.5 1 .8 1.8.8 2.8.2l1.1-.7c.4-.2.7-.3 1.1-.1.3.2.5.3.9.2.4-.2.7.3 1.1.4l.5-.3c.3-.2.6-.2.9 0l.3.2c.4.2.8.2 1.1-.1.6-.6 1.3-.7 2-.1l.2-.4c.4-.6.5-.6 1.1-.5.4.1.9.1 1.3.3l1.1.9.2-1c.6-.5 1.5-.5 2-1.2.6.1 1 .2 1.3.7l.6.5.7.6.2-.5c.1-.2.2-.4.4-.4.6-.1 1.1-.4 1.5-.8.2-.2.6-.2.9-.1l.6.4 1.1-.3c.5-.2.8 0 1.1.3l.6.8c.3-.1.7-.2.9-.4.5-.4 1.1-.5 1.7-.6l1.8-.2c.5-.1 1.1.1 1.6.2.7.2 1.2 0 1.8-.3l.2-.1c1-.6 1.2-.5 1.9.4l.5.6 1.3-1.5c.5-.2.9 0 1.3.3l1.1-.7c.3-.2.7-.3 1 0 .3.3.7.3 1.1.3l1.2.2.7-.8c.3-.4.7-.5 1.1-.2.6.3 1.3.6 1.8 1.1l.6-.6c.5-.4 1-.6 1.6-.3l.4.1c.9.1 1.7.4 2.4.7.4.2.9.3 1.3.3.5 0 .9 0 1.2-.5l.8.4.2-.1c.5-.7 1.2-.9 2-1l1.1-.2c.7-.2 1.4-.3 2 .1.8.5 1.8.7 2.7.9.5.2 1 .1 1.4-.2-.4-.2-.2-.4.1-.6zm-61.4 7.7-.8.2h-.9c-.4 0-.7 0-1.1.3l-1.1.5c-.4.1-.7.1-1-.2-.4-.4-.8-.4-1.2 0l-.6.5c-.6.4-1.2.5-1.8 0l-1.1-.8c.1.8-.3 1.1-.9 1.2a3 3 0 0 0-.7.5c-.4.4-.8.5-1.3.6l-1.6-.2-1.7-.2c-.4 0-.8.4-.6.8.2.5-.1 1 0 1.5.1.4-.2.7-.6.9l-.6.2c-.1.5.1.7.3 1l.6 1.4c.1.5.2 1-.4 1.4l-.2.2c.1.5-.3.9-.3 1.3.1.5-.2.9-.4 1.4.4.4.3.8 0 1.2-.2.3-.3.6-.3 1 0 .5.2 1 .7 1.3.5.4.6.9.4 1.3-.2.4 0 .8.1 1.1.2.3.4.5.1.9l.1 1.1c0 .8-.2 1.5.2 2.3.2.3 0 .8-.3 1l-.4.3.7.4.4 1c.1.7.2 1.4.6 2.1.2.4.2.8.1 1.2.4.3.6.6 1.1.7.8.2.9.2 1 1l.1.5.9.3c.2-.5.5-.8 1-1 .8-.3 1.6-.4 2.5-.1.5.2 1 .4 1.3.9l.9-.6 1.7.2.3-.2c.5-.6 1.1-.7 1.7-.3.3.2.7.3 1.1.2l.9-.2c.3 0 .6.2.8.3l.6-.3c.9.2 1.2 1 1.8 1.5l-.9 1.8-.1.4c.3.5-.2 1 0 1.4-.4.3.1.8-.2 1.1-.3.3-.4.8-.3 1.2.1.6-.2 1-.6 1.4l-.9.9c-.5.4-.9 1-.8 1.7l-.2.6-1.8.2c-.2.6-.4 1.2-.9 1.6l-.2.5-.3 1.1c.9-.1.9-.1 1.6.5.2.1.4.1.5.3.1.2.1.5.5.5.5-.8 1.3-.5 2.1-.6l.1-.8c0-.4.3-.7.7-.8l.7-.2.8-.4.8.2c.4-.3.7-.6.7-1.1 0-.3.2-.6.5-.8.8-.5 1.5-1.4 2.5-1.5l.3-.2 1.4-.7c.3-.5.9-1 .8-1.7l.8-.4c.6 0 .9-.4 1.1-.9-.3-.6-.4-1.3.3-1.8l.1-.2c.1-.6.5-1 1-1.2.6-.3.9-.8 1.1-1.4.1-.2.2-.5.4-.6.8-.5 1.7-.6 2.5-.1.3.1.4.2.7.1l1-.1c1-.1 2 .6 3 0h.2c.5.2.9 0 1.2-.4l.4-.4 1.3.2c1 0 1.7.5 2.3 1.4l1-.3c.1 0 .3-.2.4-.1.9.2 1.8-.1 2.6.4.5.3 1.1.3 1.6.1.7-.2 1.3-.7 2.1-.7.4-.5.9-.5 1.5-.4.5 0 1 0 1.4-.3.3-.2.7-.2 1.1-.3h.2l.4.8 2.2-.4c.8.3 1.8 0 2.4.8.5-.1.9-.4 1.3-.7.7-.6 1.5-.6 2.3-.9.2-.1.4 0 .6.1l.7.2c.5.2 1 .2 1.5-.2.9-.6 1.6-.7 2.3-.1l.4.2c1.1-.3 1.1-.3 1.9.2.5-.2 1-.4 1.3-.8.2-.3.6-.4.9-.6.5.2 1 .3 1.2.8.2.4.5.5 1 .6.3-.8.9-1 1.7-.9.3 0 .6.1.9-.2v-.3c.2-1 .4-1.3 1.4-1.3.9 0 1.7-.1 2.4.4l1.8-.7.2-.7.4-.8c.8-.7 1.5-1.4 2.5-1.9.5-.3.9-1 .8-1.6-.1-.4-.1-.8.1-1.1.1-.2.3-.5.2-.6-.2-.5.1-.9.2-1.4l-.7-.6c-.5-.4-.6-.8-.3-1.3l.3-1.2.1-2.3 1.1-.9c-.2-.6-1.1-.7-1.2-1.6l.5-1c-.5-.7-.4-.7-.4-1.4l-.1-2.8-.1-.4a3 3 0 0 1 .7-3l.7-.5c-.7-.7-1.1-1.5-2.1-1.7-.3-.8-.7-1.5-1.3-2.1-.4-.3-.6-.7-.7-1.2 0-.2-.2-.3-.3-.4l-.3.1c-.8.7-1.6.7-2.4.1-.5-.3-1-.2-1.5-.1-.7.1-1.4 0-2.1.2l-.3-.1-.6-.2c-.5-.3-.8-.1-1.1.2l-.8.7c-.3.3-.6.3-1 .1l-.6-.3-1.3-.7-1.2.4c-.4.1-.7.2-1.1-.2-.3-.3-.7-.3-1.1-.4-.4.4-.8.7-1.5.6l-.9-.3a1 1 0 0 0-1.3 0l-1.2.4-1.9.7c-.3.2-.6.2-1 .1-.7-.1-1.1-.6-1.6-1.1l-.5.2c-.7.7-1.6.8-2.6.7h-.6l-.8.7-1-.3-1.1.5-1.1-.7-1.4-.2-.5-.2c-.5.8-1.4.4-2.1.6-.4.1-.8-.1-1.2-.2a.5.5 0 0 1-.5-.3l-.5-.6-1.2.2a3 3 0 0 1-1.4 1.3c-.7.3-1.1.2-1.4-.4l-.2-.4c-.2-.3-.6-.4-.8-.3-.6.4-1.5.4-2 1.1-.1.2-.5.3-.8.5l-1.2-.9-.4.5c-.5.6-.9.7-1.5.3l-.7-.4-1.4.1-.2.4c-.5.7-1 .8-1.8.6l-.8-.2c-.3.1-.5.3-.8.3-.7.2-1.3.1-1.8-.5l-.5-.7-.9.6c-.4.5-.8.7-1.4.6l-1.4-.2-.8.4-1.1.3-1-.8c-1.5.4-2.4.3-3.2-.1zm-6.2 45.9c-.4-.3-.4-.3-.8 0 .4.1.4.1.8 0zm.6 230.1v-.3l.7-2.4c.2-.8.6-1.4 1.4-1.8.9-.4 1.4-1.1 1.3-2.1l.1-.5c.3-.5.7-.9.7-1.6l.6-.6.5-.1.6-1 .7-1.4c.1-.3.2-.6.1-.9-.1-.4.1-.7.3-1l.7-.1c.5-.1.8-.2.9-.8.1-.4.4-.6.8-.7v-1c.1-.3.4-.5.7-.7l.5-.4c.3-.4.7-.5 1.2-.2l.4.2.4-.1c-.1-.9-.1-.9.2-2.1-.1-.2-.3-.1-.4 0a2 2 0 0 1-.9.5l-1.1.5c-.4.3-.6.6-1.1.6l-.3.2c-.2.3-.4.4-.7.4l-.2.1c-.2.7-.7.6-1.3.4l-1 .9c-.4-.1-.8-.1-1.2.1l-.3.2c-.3.6-.8.7-1.4.4-.4.5-.7 1-1.4 1.1l-.3.2c-.6.7-1.4.6-2.3.4l-.3.6c-.4.3-1-.2-1.3.3a3 3 0 0 0-1.3.3l-1.2.1c-.3 0-.5-.2-.5-.5-.1-.8-.1-1.5.4-2.1l.3-.2.6.2c.6-.3 1.2-.7 1.7-1.3.4-.4.7-.7 1.3-.8l.6-.3a9 9 0 0 1 2.2-1.1c.6-.2 1.2-.6 1.5-1.2l1 .2c.7-.4 1.2-1.1 2.1-1.1l.6-.6c.4-.3.7-.8 1.3-.7.5-.4 1.1-.3 1.6-.6l1.5-.6.3-.2c.2-.6.8-.7 1.3-.8l.6-.3.6.3 1.4-.6.8-.4c.3-.3.7-.4 1.1-.4l.5-.2c.4-.4.9-.4 1.5-.3.4.1.6 0 .9-.2.7-.6 1.4-1 2.4-1 .6 0 1.2 0 1.7-.3h.7l.3.4c.4.5.5.5 1.1.3l1.7-.6c.9.5 2 .5 2.7 1.3h1.1c.5 0 1 0 1.2.6l.2.2c.9-.1 1.2.7 1.6 1.2l.2.4.8-.2 1.6 1.1 1-.2.4.3c.2.1.4.2.5.1.7-.3 1.1.1 1.4.5.3.4.6.7 1.2.8.4 0 .8.4.9.9l.1.5c1 .4 1.4 1.2 1.6 2.2h1c.7 0 .9.1 1.2.7.3.6.5 1.3 1 1.8.2.2.2.5.2.7 0 .8.3 1.2.9 1.6l1 .8c.3.2.4.5.3 1 .4.3.8.5.9 1.1.1.4.4.8.8 1l.2.1c.8.5.9.9.4 1.9.1.3.5.5.3 1-.1.1.1.4.2.5.4.3.6.7.8 1.1l.7.9c.2.3.4.6.3 1l-.1 1.6.7.5.1.3c.1.4.2.7.5 1.1.3.3.4.9.6 1.4l.5.3c.3.2.6.3.7.8 0 .3.3.5.6.8-.5.7-.4 1.5-.9 2.2.1.2.4.4.4.6 0 .5.3.8.6 1.1.5.5.6 1 .3 1.6l-.1.3c.1.5.2.9.6 1.3.4.4.4 1 .5 1.5l-.3 1.9.5 1-.4.5.4.8c0 .3-.2.6-.4.9.4.7 1.4.4 1.8 1.4 0 .5-.2 1.1-.8 1.5l-.6.7c1 .8 1.3 1.8.7 2.9l.8 1.6c-.2.3-.4.7-.2 1.1.1.2 0 .4-.1.6l-.1.7c0 .7 0 .7-.4 1.2 1.3.4 1.3 1 .5 1.9l-.2.3.1.3c.7.7.5 1.5.3 2.4l-.1.2c-.7.9-.4 1.9-.4 2.9l.2.8c.2.7.2.7-.5 1.2l-.1.2c.4 1 .5 1.2.5 2.1 0 .3-.1.6-.3.8-.5.5-.8 1.2-.6 1.9v.3c0 .5-.6.8-.3 1.3l-.3 1.3.1.2c.9.8.9.9.3 1.8-.2.3-.3.5-.3.8.1.8-.3 1.5-.8 2.1-.3.4-.4.7-.2 1.1l.1.8c0 .3 0 .6-.3.8-.4.3-.5.9-1 1.2l-.1.2c.2.4-.2.9 0 1.3.3.5.1 1 0 1.4l-.4 1.6c-.1.6-.6.9-1.2 1.1l.2.6c.2.8.1 1.5-.4 2.2l-.2.4c-.2.5-.1 1.1-.6 1.5-.4.3-.6.9-.9 1.3-.2.3-.4.6-.4.9-.1.4-.4.4-.6.5-.1.7-.4 1.3-.3 2.1 0 .3-.2.5-.4.6l-.7.3.2.5c.1.4 0 .6-.3.9l-1 .8c.1.9-.6 1.6-.8 2.5-.1.4-.4.7-.8.9l-.6.3.3.7c-.2.6-.5 1-1.1 1.4-.6.4-1.1.9-1.1 1.7 0 .4-.3.6-.6.7l-1 .4c-.3.2-.6.2-1 0l-.9.7c-.6.5-1 1.1-.9 1.9v.4c0 .5-.2.7-.6.8-.6.1-1 .3-1.4.7-.3.3-.7.5-1 1l-.7.6-.8.6-.8-.5-1.8.5-.2.7a3 3 0 0 1-1.8.4c-.9.8-.9.8-1.8.3-.4.1-.8.3-1.1.6-.6.6-1.4.6-2.1.2l-.6-.4-.5.3c-.3.2-.6.2-.9.2l-1.6-.2-.5.1c-.9.4-1.3.3-1.8-.6l-.2-.3-2.2-.9-.5-.1c-.9 0-1.8-.1-2.5-.7a.8.8 0 0 0-.5-.2c-.6-.1-.9-.4-.9-.9l-.1-.4-.2-.1c-.7-.2-.8-.3-.8-1v-.6c0-.9.2-1.1 1.2-1.3l.9-.2h.9c.7.1 1.2.4 1.1 1.2l.1.2.9.3c.4.2.7.2 1.2 0 .4-.2.7 0 1 .3.9 1 2 .9 3.2.7l.2-.1c.7-.2 1.2-.2 1.7.5.3-.2.4-.7.8-.7s.6.3.9.6l1.5-.7 1.7-.5.9.4c1-1.2 1-1.2 2.4-1.1l.4.7c.4-.3.4-.9.9-1.1l1.3-.4v-.8c0-.4.2-.7.6-.8.4-.2.8-.4 1.3-.3l.5-.1c.2-.4 0-.9.5-1.2.4-.2.7-.6 1.2-.8h1.3c.2-.4 0-.8.3-1.2.3-.5.9-.2 1.2-.5l-.2-.7c0-.2 0-.5.2-.7.6-.8 1-1.6 1.7-2.3.6-.6.6-.6 1.5-.5.1-.2.3-.4.3-.7.4-1.2 1.1-2.3 1.8-3.3.3-.5.6-.8.3-1.4l-.1-.5c.2-.6.5-1.2.5-1.9 0-.2.2-.4.4-.5l.7-.3.1-.3c-.3-.6-.1-1.1.3-1.6.3-.5.4-1 .5-1.6.1-.4.1-.8.5-1l.3-.3c.2-.4.6-.6 1-.4.4-.5.4-1 .4-1.5v-.7c-.1-.8.1-1.5.6-2.1.5-.6.5-1.3 0-1.9l-.1-.3c.1-.8.2-1.6 1.2-1.8.2-.7.4-1.3.1-2a.3.3 0 0 1 0-.4l.2-.7-.2-.6.6-.9c0-.6.1-1.1.3-1.7.2-.5.4-1.2.1-1.8-.2-.5-.1-.7.5-.9.4-.2.5-.4.5-.8 0-.6-.3-1.2-.5-1.8a2 2 0 0 1-.2-.6c.3-.6 0-1.1-.1-1.7-.1-.8 0-1.5.5-2.1.5-.6.5-1.2.1-1.8l-.1-.2c-.3-.6-.5-1.2-.2-1.8l.2-.5-.4-.5c-.3-.5-.2-.8.2-1.2l.7-.5-.6-1.3c.3-.6.4-1.2.3-1.8v-.4c.3-.7.1-1.3-.4-1.9l-.2-.3c.4-1.2.2-2.4.3-3.6a1 1 0 0 0-.4-.8c-.7-.5-.8-1.1-.5-1.8.2-.4.2-.8.1-1.3l-.4-1.6v-.9c.2-.5 0-.9-.3-1.2-1-.8-.9-1.9-.6-3-.1-.4-.6-.8-.1-1.3l-.8-1.5c-.1-.2-.2-.4-.1-.5.1-.6-.1-1.1-.3-1.6-.1-.2-.1-.4-.3-.5-.5-.4-.7-1-.9-1.5-.2-.5-.2-1.2-.7-1.6l-.1-.2c-.1-.4.3-.9-.2-1.2l-.3-1.3-.2-.6c-.2-.3-.3-.7-.2-1.1.1-.3-.1-.6-.4-.7l-.6-.5c-.5-.4-.8-.8-.6-1.5.1-.2-.1-.5 0-.8 0-.7 0-.7-.6-.9-.6-.2-1-.6-1.3-1.1-.2-.2-.1-.6-.1-1l-1-.1c-.7-.6-.6-1.4-.3-2.2l-1.4-.9-.4-.2c-.1-.8-.8-1.1-1.2-1.7a4 4 0 0 0-1.4-1.2l-.3-.2-.9-1-1.1-.8-.5.1c-.4.1-.7 0-.9-.3-.4-.4-.8-.7-1.3-.5-.4-.5-.8-.8-.9-1.4-.1-.5-.5-.7-1-.6l-.9.2c-.5.1-.9 0-1.1-.5l-.5-.6-.9.6a46 46 0 0 1-2.3-1.1c-.9.4-1.9.2-2.9 0-.3-.1-.6-.2-1 0-.4.7-.9 1.3-1.9 1.2l-.1.7c-1 .5-2 .6-3-.2l-.3.3c-.2.4-.4.7-.8.9l-.3.3c-.1.4-.4.6-.8.8l-1 .7-.6.3c-.5 0-.8.3-1.1.7l-.5.5a1 1 0 0 0-.3.7c-.1.8-.3 1-1.1 1.1h-.6c-.4 0-.4 0-.9.6 0 .3.2.6.1.8l-.5 1.2c-.1.2-.4.3-.6.4l-1 .1-.3 1.6c0 .6-.3 1-.8 1.3l-.8-.1-.4 1.9c-.1.6-.2 1.1-.8 1.4l-.5.4c-.3.3-.8.2-1 .7l-.1 1.1c-.1.5-.4.9-.6 1.4l.2.5.1.4c-.3.6-.4 1.3-.9 1.7-.3.3-.6 0-.9.2l.2.5c.3.5.4.9-.1 1.4l-.1.5.1.7c0 .5-.2.8-.6.9l-.7.2.3.6-.6.8c.4.5.1 1-.2 1.5l-.3.6c-.3.6-.6 1.3-.4 2 .1.6 0 1.2-.6 1.5v.6c0 .4-.1.7-.3.9-.3.3-.4.7-.4 1.1-.1.9.1 1.7.7 2.3a32.5 32.5 0 0 1-.8 2c-.9.8-.9 1.8-.5 2.8.2.5.4 1.1.2 1.7v.5c.3.5.2 1-.1 1.4 1 1.2 1 1.4-.2 2.3l-.2.2c0 .5.3.6.5.8.4.5.4.8 0 1.3l-.4.4-.2.4v.4l.4.3.6.8c.2.4.1.7-.2 1l-1.4 1.4c-.2.2-.2.6.1.8l.3.2c.5.1.7.5.9 1l-.2.4-.2.4c1 1.1 1.1 1.4.4 2.4l.4.6-.5 1.3c.2.5.5 1 .3 1.7-.1.2.1.6.2.8.2.4.2.7-.1 1l-.4.4c-.5.5-.5.9-.1 1.5l1.1 1.3.1 1 .4 1.2-.8 1.3c.2.3.4.7.4 1.1 0 .4.3.8.5 1.3.8.1 1.1.7 1.5 1.4.3.7.4 1.3-.2 1.9.3.5.6 1 .7 1.7l.3.4c.4.3.6.7.6 1.1.1.8.2 1.6 0 2.4.6.5.9 1.1.8 1.8 0 .6.1 1.3-.1 1.9-.1.3.1.5.3.6l1.2.6c.5.3.6.6.2 1.2l-.2.4 1.1.3c.5.2.8.4.7 1l-.3.8.8.7c.2.3.1.8.5 1.1.4.3-.1.7.1 1.2l.9.4c.6.3.6.4.4 1l-.1.2v.1c.1.3.4.4.6.6.2.1.6.2.7.4.2.7 1 .9 1.3 1.5-.1.5-.6.9-.5 1.5l-1 .4c-.5.2-1 0-1.3-.4-.3-.6-.9-.9-1.3-1.4l-.9.2-.6-.5.1-1.4-.6-.9c-.5-.3-1.3.1-1.8-.5l-.2-.8-.4-.3c-.3-.3-.5-.5-.2-1 .1-.1.1-.3 0-.4l-.2-.8c0-.2 0-.4-.2-.6-.3-.3-.2-.9-.7-1.1l-.8-.6-1.1-1a.8.8 0 0 1-.2-.4c.1-1-.4-1.8-.7-2.7-.4-.3-1-.3-1.2-.9l.2-.6c.4-.6.2-1.3 0-1.9l-.2-.6c-.2-.3-.1-.6-.1-.9l-.1-.4c-.3-.2-.3-.5-.3-.8 0-.5-.2-1-.7-1.2-.7-.4-1.1-.9-1.1-1.8 0-.4-.3-.8-.2-1.3l-.2-.4-.7-1.9c-.1-.2 0-.4.1-.7.1-.2 0-.4-.1-.6-.2-.5-.1-1 .3-1.4l.6-.9-.6-.3c0-.7-.2-1.4-.8-2a.5.5 0 0 1 0-.7l.2-.3c.4-.4.5-.9.3-1.5l-.1-.2c-.8-.3-1.1-.9-1-1.7.1-.5-.2-1.1-.1-1.6.1-.8.2-1.5.5-2.1-.5-.5.1-1.2-.4-1.6l.3-1.6-.6-.4c-.4-.3-.4-.6-.2-1l.2-.2c.5-.5.5-1 .1-1.5s-.5-1-.4-1.6v-.4l-.2-1.3c.4-.9.5-1.9 1.1-2.6l.2-.3c-.4-.5-.7-1-.6-1.7.1-.6-.2-1.2.6-1.5l-.8-1.1c-.2-.4-.1-.7.2-1l1.3-1c.1-1.2-.2-2.3.4-3.4-.3-.8-.1-1.5.2-2.2l.2-.6.2-1.4.6-2.9c.1-.5.1-1 .4-1.4l-.5-1.4.3-.5.3-.3c0-.8.6-1.2 1-1.7.2-.3.4-.5.2-.8-.4-.8 0-1.5.4-2 .3-.4.4-.7.3-1.1l-.1-1.1c-.1-.6.2-1.1.8-1.3-.3-.4-.2-.5-.1-.5h.1-.1zm16.3-21.5s0-.1 0 0c0-.1-.1 0 0 0-.1 0 0 0 0 0zm-28.8-190.1c.3 0 .5 0 .7.3l.4.6c.5.1 1 .3 1.3.7.3.3.6.3 1 .2.5-.2.9-.2 1.4-.1l.2.6c0 .4.2.7.5 1.1h1.7c1 0 1.8.6 2 1.6.1.4.2.6.6.8.2.1.2.3.3.4.4.5.7 1 1.5.9.6-.1.9.4 1.2 1 .3 0 .6 0 .9.2l.5.6c.4.6.8 1.2 1.6 1.4.2 0 .3.2.4.4l.4.7c.2.3.4.7.9.8.2.1.5.2.6.5.4.6 1 1.1 1.5 1.5.5.4.8.7.7 1.3l.7.1c.4 0 .7.2.9.6.3.7.6 1.4 1.1 2l.5.5 1.6 1.2.3.5c.1.1.2.4.4.4.6.1 1 .6 1.6.7l.6.3c.3.2.4.5.3.8-.2.3-.1.6.2.8l.2.7-.1 1 .5.1c.5 0 1 .3 1.4.6l.7.6c.9.8.9 1.2.3 2l-.2.3c.3.2.8.4 1 .7.2.3.2.8.3 1.3l.6.1c.2.1.6.2.7.4.2.5.7.8 1.1 1.1-.1 1.2-.1 1.2.7 1.9.4.4.9.8.9 1.5 0 .3.2.6.5.7.5.3.7.8.8 1.4 0 .4.1.7.4.9.3.2.4.6.3.9-.1.5.2.7.5 1.1.5.6 1.2 1.1 1.4 1.9.5.5.5 1.1.6 1.7.1.6.3 1.3.7 1.8.1.3.3.5.3.8.1.4.2.8.5 1 .8.7 1.1 1.5 1.5 2.5l-.3 1.5c.5.2.6.8.8 1.2.1.3.3.6.6.8.6.3.8 1 .7 1.7l-.1.3c-.1.3-.1.6.2.8l.2.2c.3.6.9.9 1 1.7 0 .6.4 1.2.5 1.9.1 1.1.4 2.2.7 3.3l.1.3c.6.6.7 1.4.9 2.1 0 .2 0 .4.2.5.6.4.5 1 .5 1.6l.5.4.4.4c0 .9.8 1.8.3 2.8.7.5 1.4 1 1.7 1.9-.2.6-.2 1.2 0 1.8v1.4l-.2 1.6c.5.1.8.5 1 1l.8 1.4-.7 1 .1.3c.6.4.8.9.5 1.6-.3.6 0 1.1.3 1.5.3.4.7.7.8 1.3-.2.5-.5.9-.4 1.5 0 .4 0 .8.3 1.1.3.3.3.7 0 1-.5.5-.3 1.2-.3 1.8 0 .3.3.6.5.8.3.3.6.6.7 1-.1.5-.6.8-1 1.1.6.5.7 1.2.5 1.9l-.3 1.1.8.7-.1.5c-.2.3-.2.5-.1.9.2.7.3 1.4-.2 2.1l.5.6c.2.3.2.7-.1 1-.4.4-.6.8-.6 1.3-.1.5-.3.8-.9.9l-.8.2c-.4 0-.7 0-.9-.3l-.4-.4c-.6-.5-.8-1.1-.4-1.8.3-.4.4-.8 0-1.2-.3-.3-.2-.7-.1-1.1l.1-.5c-.2-.5-.4-1-.2-1.6l-.1-.4c-.3-.8-.3-.8.1-1.7-.5-.4-.6-.8-.4-1.5.2-.7.2-1.4-.1-2-.2-.5 0-1.2-.5-1.6 0-.6-.6-.8-.8-1.3.2-.7.3-1.4.1-2.1-.2-.5-.1-1-.1-1.6l-.4-.4c-.3-.4-.4-.7-.1-1.2l.4-.7-1-1.5.3-1.7c-.6-.4-.6-1-.7-1.7 0-.7 0-1.4-.3-2l-.1-.9v-1.5l-.7-.6c-.4-.3-.5-.7-.4-1.1.2-.5 0-.9-.5-1.3-.6-.5-.7-1.4-.4-2.1l.4-.7c-.3-.4-.8-.5-1.1-.8-.8-.6-1.1-1.9-.5-2.6.5-.6.5-1.1.2-1.7l-.1-.4-.9-.4-.1-1.4c0-.4-.1-.6-.4-.8l-.9-.7c0-.5.1-.9-.1-1.3v-1c-1.2-.4-1.1-1.4-.9-2.4l-1.2-1.1c-.4-.3-.6-.9-1.2-1.1-.4-.2-.5-.6-.3-1l.4-.9c-.8-.7-1.3-1.4-1.1-2.5-.3-.3-.7-.5-.8-.9-.1-.4-.4-.6-.6-1l-.1-.3c.1-.3 0-.4-.2-.6-.4-.5-.6-1-.6-1.6v-.1l-1-2c-.1-.2-.5-.3-.9-.4l-.1-.1c-.7-.7-.7-1.6-.3-2.5l.1-.1v.1h-.6c-.7-.2-.9-.5-.8-1.2l.1-1.6-.7-.9-.2-.1c-1.2-.2-1.3-.5-1.3-1.6v-.6l-.6-.7c-.2-.3-.4-.5-.7-.6-.5-.1-.7-.5-.6-1l.1-.8-.6-.9-.3-.1c-.7-.1-1.2-.4-1.5-1.1-.1-.3-.4-.4-.7-.6-.5-.3-.9-.6-.8-1.3 0-.2-.1-.6-.3-.7-.5-.3-.7-.8-.8-1.3a3 3 0 0 0-1.1-1.6l-.4-.3c-.4-.1-.8-.1-1.1-.4l-.8-.6v-2.1c-1.1-.1-1.1-.1-1.6-1l-1-.1c-.4-.1-.7-.4-.7-.8l.2-1.6h-.4c-.6.2-1 0-1.4-.3a1 1 0 0 1-.3-.7c0-.5-.2-.9-.7-1.2l-.8-.8-.8-.7-.6-.9c-.4-.2-.7.2-1 .2-.8-.5-.8-.5-1.3-1.5-.9-.2-1.4-.8-1.7-1.6-.1-.3-.5-.6-.7-.9l-1.5.1c-.6 0-1-.2-1.3-.8-.1-.4-.4-.7-.6-1-.4.2-.7.1-1.1-.1-.4-.2-.8-.5-1.4-.5-.3 0-.5-.2-.6-.5l-.4-1.2c-.4-.2-.8-.1-1.1-.1-.6 0-1-.2-1.1-.8l-.2-.2-1.5-.1-.3-1c-.8-.3-1.4-1-2.4-1.1-.2 0-.5-.2-.5-.4-.1-.6-1.1-.8-.8-1.7l-.1-.1c-.6 0-.6.8-1.1 1l-.4-.1-.8-.4-.8-.1-.8-.6c-.2-.1-.3-.4-.4-.6-.6-.1-1.1-.1-1.6.1-.2.1-.5 0-.6-.1-.7-.8-1.7-.8-2.7-.8-.5 0-.9-.2-1.1-.6l-.2-.2c-.4 0-.7.3-1.1.5-.5.3-.7.3-1.1 0l-.3-.3-.3-.2-.4.1c-.3.2-.7.1-1-.1-.7-.5-1.6-.6-2.4-.8a2 2 0 0 1-1-.6c-.3.3-.5.6-.9.6l-1 .2-1-.6-.5.4c-.3.2-.6.3-1 .1l-1.1-.2c-.3.3-.5.8-1 .7l-1.2-.4-.6.8c-1.3-.5-2.5-.7-3.5.5-.6-.3-1.2-.2-1.7.1-.3.1-.6.2-.9.1-.1-.1-.3 0-.4 0-1.3.3-1.7.3-2.8-.3l-1.4.5-.1.8c-.1.5-.3.7-.8.7H137c-.6 0-1.2.2-1.7.4-.4.2-.8.6-1 1-.6.8-1.3 1.3-2.2 1.5l-1.1.5c-.4.3-1 .5-1.5.7v.3c.2.7-.1 1.1-.7 1.4l-.5.3c-.4.3-.9.5-1.4.4a1 1 0 0 0-.5.1l-1.3 1.9-1.4.2-.2.6a1 1 0 0 1-.5.6c-.3.1-.6.1-.8.3l-.7.4c0 1.4 0 1.4-1.3 2h-.1l-.8 1.1c-.1.2-.4.4-.6.4-.5.1-.7.4-.9.8l-.3.4c-.3.2-.5.5-.7.9-.4.8-1.1 1.2-2.1 1.1-.1.4-.3.8-.2 1.2.1.5 0 1-.4 1.4l-.4.1c-1.3-.2-1.9.7-2.4 1.5l-.1.2v.2c.6 1.1.5 1.4-.4 2.2-.3.3-.7.5-.7 1-.1.6-.4.9-.9 1.2l-.4.2v1l-.5 1c-.2.3-.5.4-.8.6.2.6 0 1.1-.7 1.4l-.5.3-.2.3c.3.6-.1 1.1-.3 1.7.8.8.4 1.7.2 2.6-.2.6-.7.7-1.4.5-.2.2-.4.4-.4.7-.1.9-.6 1.4-1.2 1.8-.2.6.1 1.2-.4 1.7v.3c.2.5-.1.9-.4 1.3-.5.6-.5 1.2-.1 1.8l.2.4c-.2.9-.9 1.3-1.6 1.6 0 .7-.3 1.3-.5 2-.1.6-.4 1.3-1 1.7.3.5.3 1 .1 1.5l-.4.7c-.1.2-.2.4-.1.7.2.4.1.8-.2 1.2l-.2.5c0 .9-.5 1.4-1 1.9v1.4c-.1.4-.4.7-.6 1.1.3.5.5 1 .5 1.6 0 1 0 1.1-.9 1.7-.3.8-.3 1.7-.9 2.5l-.1.6-.1 1.1c.6.4.6 1.2.9 1.9.2.4 0 .8-.5 1.1l-.7.4c-.2.3-.1.6 0 .9.6 1 .6 2-.3 3l-.1.2.3.8c.2.4.2.8-.2 1-.5.3-.7.8-.8 1.3-.1.4-.2.6 0 1v.7c-.2.4-.2.9 0 1.3l.3.9.1.4c-.4.6.2 1.2-.2 1.8l-.8 1.1.9 1.5c.2.3.2.7-.1 1-.3.3-.3.7-.5 1-.4.6-.2 1.3-.2 2v.7c-.1.3-.1.5.1.7l.2.7c.1.5-.1 1 .2 1.5v.3l-.5 1.1c-.5 0-.9-.1-1.2-.3-.2-.1-.3-.3-.5-.3-.9-.1-1-.8-1.1-1.4v-2c-.4-.2-.6-.5-.5-1 .1-.7-.1-1.4.4-2l.1-.6v-1.7l-.2-.5c-.4-.3-.4-.8-.2-1.2.3-.7 0-1.5.3-2.3l-.4-1.4a5.6 5.6 0 0 1 0-3.4c-.1-.6.2-1 .7-1.4-.3-.8-.4-1.5-.8-2.2-.6-1-.3-1.8.2-2.6l.5-.6c.2-.4.4-.7.2-1.2v-.6l.1-.8c0-.6.2-1 .6-1.3.7-.6.8-1.4.7-2.2l-.1-.7c.2-.6.1-1.1-.3-1.6l.5-1.5c.2-.6.2-1.2.1-1.8a2 2 0 0 1 .1-1.7c.2-.4.4-.8.1-1.3-.1-.1 0-.3 0-.4v-1.1c0-.7.1-.9.7-1.2l.5-.2c.3-.1.5-.4.4-.7-.1-.5 0-1-.3-1.5-.4-.8-.1-1.6.3-2.2.4-.5.5-1 .5-1.6l.2-1.1.3-1.2c.2-.3.6-.5.7-.9.3-.6.7-1.1.9-1.7.1-.4.2-.8.5-1.2.1-.1 0-.3 0-.4-.1-.7.1-1.1.7-1.4l.9-.4c.3-.3.1-.7.5-.9.2-.2.2-.5.1-.7l-.3-.5c-.2-.3-.1-.6.1-.9l.3-.3c.6-.3.7-.8 1-1.3.4-1.1.7-2.2.9-3.4.1-.6.5-.9.9-1.2l.9.4-.1-.7c-.1-.5-.1-1 .1-1.5.2-.3.3-.6.6-.8l.9-.7-.3-.8c-.3-.8 0-1.4.9-1.7h.3c.2-.1.4-.2.5-.5 0-.5.1-.9.5-1.3s.7-1 1.4-.9v-.7c0-.3.2-.6.5-.8l1.6-1v-1.1c0-.5.1-.8.6-1 .6-.3 1-.8 1.2-1.4.7-.7 1.5-.2 2.3-.6l-.1-.5c-.1-.8.2-1.3 1-1.4a2 2 0 0 0 1.1-.6c.3-.4.5-.8 1-1.1.2-.2.4-.6.4-.9 0-.9.4-1.4 1-1.8l.3-.2 1.2.3c.8.2 1.7-.4 1.7-1.1 0-1 .4-1.6 1.1-2.2l.2-.2c.6-.2 1.1.1 1.5.6.4-.3.8-.5 1.1-1 .2-.4.6-.6 1-.6s.6-.3.8-.6l.6-.7c.5-.7 1.3-.9 2.1-1 .8-.1 1.5-.5 1.9-1.2.2-.4.5-.5 1-.4.6.1 1-.2 1.5-.5l.8-.7c.4-.3.9-.6 1.5-.4.4.1.7-.1.9-.3l.6-.5c.4-.4.8-.6 1.3-.6.7 0 .8 0 1.5.4l.9-.4c.9-.3 1.8-.5 2.5-1.1.3-.2.6-.3.9-.1.6.2 1.2.2 1.8.1l.5.1c.4-.3.8-.7 1.4-.8.4-.1.7-.4 1.1-.7l1.4.6a5 5 0 0 1 2.7-.1c.6.1 1.1 0 1.6-.1 1.2-.3 1.2-.3 2.5.4l.6-.4c.6-.4 1-.3 1.5.2.4.4.7 1 1.4 1.1.5-.7 1.2-.9 2-1.1h.7c1 .6 2.2 1 3.3 1.6l.5-.2c.4-.2.7-.2 1.1.1.2.2.5.2.7.1.3-.1.5-.1.8.1l2 1.5 1.6-.1c.4 0 .7.2.9.4l.9 1 .3-.1c.9-.3 1-.3 1.4.6l.1.3c.9-.5 1-.5 1.8 0l1.3.9.2.9.7.4.4.1h1.5c.3 0 .5.3.7.5-.4-.8-.5-.5-.5-.3zM73.2 136.1c-.1-.4-.5-.7-.5-1.1 0-.4-.5-.5-.8-.6l-1.4.5-.6-.3c-.4.6-.6 1.2-1.5 1.3-.7-.5-1.8-.3-2.4-1.1l-.6.4c-.6.4-.8.4-1.6-.2l-1.3.3-.5 1.2h-1.1c-.4 0-.7 0-1.1.3-.5.4-1.1.4-1.7.2-.8-.3-1.5.1-2.3.2-.2 0-.4.3-.5.4l-.4.6c-.3.4-.8.7-1.4.8l-1.1.1-.2.2-.8 1.1c-.3.3-.8.3-1 .7-.1.2-.4.2-.6.2l-1.4.3-1 .5-1.2.7c-.5.2-1 .5-1.1 1.1-.1.3-.3.5-.6.7-.4.2-.8.5-1 .9l-.3.3c-.4.3-.8.4-1.3.3l-.1.2-.1 1.4-.5 1.1c-.1.4-.4.5-.8.6l-1.2.1c-.2.4.1.6.2.9.1.5.1.8-.4 1.2-.6.5-1.1 1.1-1.4 1.8-.3.6-.8 1-1.3 1.2l-2.3 3.5.1.7-.2.3c-.6.4-.9.9-.9 1.7l-.3.9.2.4c.3.5.2.9-.2 1.4l-1.1 1.8-.2.5v.6c0 .6-.1.8-.7 1l-.3.1-.1.1c.8.5.8.5.8 1.5v.9l-.5.4c-.4.3-.6.7-.6 1.2v.3c0 .5-.1 1-.5 1.3l-.3.3c.1.4.2.8.1 1.1-.1.4-.5.7-.9 1.1l-.2 2.8-.4.4c-.5.4-.9.3-1.3-.1l-.7-.7c-.4-.3-.6-.6-.4-1.1.1-.2 0-.5-.1-.7-.5-1-.1-1.9.3-2.8l.4-.6c.3-.4.4-.8.1-1.3l-.2-.6c0-.6.3-1.3 0-1.9.3-.6.2-1.3.2-1.9 0-.8.1-1.4.9-1.7-.1-.6.1-1.1-.1-1.6-.1-.4.1-.6.4-.9l1.2-1.5c.2-.3.3-.6.2-.9-.3-.8-.1-1.5.3-2.1.3-.6.4-1.3.6-2 .1-.2 0-.5-.1-.7-.2-.5-.2-.5-.1-1.2.5-.5 1.2-.5 1.9-.8.4-.7.9-1.4.9-2.4l.2-.6c.5-.6.7-1.3.9-2l.8-.5.2-.6c.1-.3.3-.5.6-.5.8 0 1.2-.7 1.9-1.1-.3-1.1.1-1.9 1-2.4.5-.8 1.4-1.1 2.2-1.5l.2-1.2c.1-.6.4-.9 1-1 .7-.1 1.2-.5 1.5-1.2.2-.4.5-.6 1-.7a2 2 0 0 0 1.6-1.2l.5-.8c.4-.4.7-.5 1.2-.2l.4.2a9 9 0 0 0 3-2.1c.4-.4.7-.8 1.3-.8l.5-.2c.3-.2.5-.3.9-.3l.4-.1c.6-.5 1.2-.4 1.9-.4h.6c.6-1 1.4-1.5 2.6-.9l.4 1.2.3-.2c.4-.7 1.1-1.1 1.7-1.5l.6-.5.7-.4.4-.2c.5-.4 1.1-.4 1.7-.3.8.2 1.6-.1 2.4-.2l1.4-.2h.3c.8-.4 1.5 0 2.1.5l.7.4 1.2-.3c.7-.2 1.4-.2 2 .2.7.4 1.3.4 2 0l1.3.8c.4-.1.9-.3 1.2-.2 1 .3 2 .3 2.9.9l.4-.2c.6-.4 1.1-.3 1.6.2.4.4.9.6 1.3 1.2.6.9 1.6 1 2.5.8.6.3 1 .7 1.2 1.3.4-.1.7-.1 1.1.1.5.3 1.2.4 1.8.5.5.1.8.2 1.1.5.3.3.6.6 1.1.6l.4.2c.5.2.7.5.7 1.1l-.2.9c-.1.6-.1 1.2.6 1.6.3.2.4.4.4.8l-.3 2.3-1.1.6c-.7.5-1.5.4-2.3.3-.5-.1-.9-.4-1-.9-.1-.6-.3-1-.7-1.4l-.2-.7-.7-.1c-.4 0-.7-.2-1.1-.3a11 11 0 0 0-3.6-1.3c-.4-.1-.8-.3-1.1-.6a4.2 4.2 0 0 0-2.8-1.2c-.6 0-1-.3-1.5-.5-.2-.6-.7-.6-1.1-.3-.3-.2-.5-.6-.8-.6-.4-.1-.5-.4-.8-.6l-1.4.1c-.4 0-.7.4-1.1.4h-1.1zm-37.1-21.2c.1-.2.3-.3.3-.5.2-.5.6-.6 1-.7.7-.2 1-.1 1.5.6l.2.1.1-1.2a3 3 0 0 1 1-.2l.1-.2c-.2-.4 0-.8.2-1.1.4-.5.6-1 .5-1.7l.2-.6c.3-.4.3-.8.2-1.3-.2-.9-.2-.9.3-1.7-.1-.2-.3-.3-.3-.5l.1-.7-.8-.6-.5-.8-2-.5-.6-.3-.6-.6c-.6.1-1.1.2-1.6.6-.6.4-1.2.5-1.8.1l-1.3-.6c-.8.5-.9.5-1.7-.2h-1.1l-.9-.5c-.1.2-.3.3-.3.5-.1.5-.5.6-.9.6-.6 0-1.1-.4-1.5-.8l-.6.4-.5.4-.7-.2c-.4-.2-.8-.3-1.3-.1a2 2 0 0 1-1.1 0c-.6-.2-1.1-.2-1.7 0l-.5.1c-.4 0-.7.1-.9.4-.2.3-.6.4-.9.3-.4-.1-.6.1-.9.2l-2.3-.8c-.3.1-.5.4-.7.8-.1.3-.3.6-.7.7l-.3.2c-.3.8-1.1 1.2-1.5 1.9-.5.7-.7 1.4-.5 2.3l.1.4-.6.5c.1.5.1 1 .5 1.4.4.5.4 1.2 0 1.7-.3.5-.3.9-.3 1.4l.1.4.9 1.4 1.7.8.7.2.5.2c.4.6.7 1.3.7 2 0 .5-.4.9-.9 1-.3 0-.5 0-.8.2-.4.3-.7.3-1.2.1-.3-.1-.6-.3-1-.3-.7-.2-1.4-.4-1.8-1.1-.2-.4-.6-.6-1.1-.3-.3.1-.5 0-.7-.3l-.1-.2c-.1-.5-.7-.8-.6-1.4l.5-1.3a2.7 2.7 0 0 1-1.4-1.9l-.1-.6c-.1-.8.1-1.5.9-1.9l.2-.2-.6-.7c-.4-.5-.4-.8-.1-1.3l.3-.5c.2-.6.4-1.2.8-1.8.3-.3.3-.7.2-1.1-.1-.7.2-1.2.8-1.5.6-.3.9-.8 1.2-1.4.3-.7.3-.7 1.2-.6l.6-.8c.2-.1.4-.3.6-.2.6.2.9-.1 1.2-.6.2-.3.4-.5.8-.6.8-.2.8-.3 1.5 0l.4.2c.7-.1 1.2-.4 1.9-.4h.9c1.2.2 2.4.3 3.7 0h1.2l.5-.5 1.3.2 1.2.1c.3 0 .5-.1.7-.3.5-.5 1.1-.4 1.6-.1.4.2.4.6.6 1l.4-.8 1.3-.1 1.4-.2c.5 0 .9-.2 1.3.1 0 0 .2.1.2 0 .6-.4 1.3 0 1.8-.4l2.1.9c.7-.3 1.5-.3 2.3.1.2.1.5.2.5.4.2.5.6.7 1.1.8.7.2 1.2.6 1.3 1.3.5.8.5 1.6.5 2.5 0 .4 0 .8.3 1.2.2.2.2.6.2.9 0 .5 0 .9.2 1.4.2.6 0 1.1-.4 1.4l-.6.5c-.2.6 0 1.2.3 1.7.1.3.1.5-.1.7-.8.7-1.3 1.6-2.1 2.3-.5.5-1 1.1-1.7 1.3l-.4.3c-.2.3-.5.4-.8.6-.7.3-1.4.4-2 .8-.2.1-.4.2-.7.1-.8 0-.8 0-1.5.3l-.6-.2c-.5-.1-.7 0-.9.6-.3.6-.8.9-1.4.6l-1.1-.8c-.3-.2-.4-.2-.8.3.3.3.7.6.8 1.1 0 .2.3.4.5.5.6.2.9.7 1.4 1 .3.2.6.5.7.9.1.3.3.6.6.7.5.1.7.5 1 .7.6.4.8 1 1 1.6-.1.4-.4.5-.7.6a2 2 0 0 0-1.5 1.1c-.2.4-.4.7-.8.9-.4-.1-.6-.4-.8-.7-.3-.4-.7-.5-1-.2-.7.7-1.4.6-2.2.1-.4-.3-.9-.3-1.3-.7l-.2-.1c-.5.2-.8-.1-1.1-.5-.4.2-.8.1-1.1-.2-.6-.7-1.5-1.1-2.1-1.8-.2-.3-.5-.5-.5-.9s-.3-.7-.7-.8c-.4-.1-.6-.4-.8-.7l-1.2-2c-.5 0-.4.6-1 .8-.3 0-.8-.3-1.2-.5-.6-.3-.7-1-.2-1.6l.9-.7c.8-.5.8-.5 1.7-.2l.6-.5c.5.1 1 .3 1.4.7.4.4.6.9.3 1.4.4.8.9 1.4 1.8 1.6l.4.2c.8.7.8.7 1.4.9.2.4.5.9 1.1 1.1.3.1.6.5.9.8.9.2.9.2 1.5 1l.6-.2.7-.3 1 .9.4-.4c.1-.3-.1-.4-.3-.6l-.3-.2c-.9-.3-.9-.3-1.5-1l-1.2.1a.8.8 0 0 1-.7-.5l-.7-2.1-1.1-.9c-.5-.5-.5-1.1.2-1.3.5-.2.6-.5.8-.9.2-.7.4-.8 1.1-.6.6.2 1-.1 1.4-.2l1.6-.8c.3-.2.7-.3 1.1-.2.4.1.8-.1 1.2-.1.4 0 .8.3 1.2.2l1.4-.2zm198.4 5.7-1.1-2c.4-1.2 1.2-1.8 2.5-2.2l.9.9.2.4c-.1.5.2.7.4 1 .6.7.5.8-.1 1.6l.4 1.7 1.3.6c.5.2.8.6 1 1.2l.8 1.9-.3.8.1.3c.4.4.5.9.4 1.4-.1.8.4 1.4.7 2.1.6.5.6 1.1.6 1.8 0 0 0 .1 0 0l1.1 1c.3.3.3.6.1 1l-.2.3c-.2.4-.2.9.1 1.2.8.7 1.1 1.8 1.8 2.4l-.5 2.4c0 .3 0 .5.3.6l.3.1c1.4.2 1.4 1.4 1.7 2.4.1.2-.1.5-.2.6l-.4.5c0 .4.6.4.5.9l.4.4c.4.4.6.7.4 1.3a4 4 0 0 0 .4 3.2c.4.2 1.1 0 1.4.8 0 .4-.2.9 0 1.5l-.5 1.1c.2.3.4.7.9.8.4.1.7.4.8.9l.4.9-.4 1.7c.2.5.5.7.9.9l.6.3c.6.5.6.9.3 1.3l-.5.6c.5.7.5.7.6 2.1.2.3.7.5.7 1.1 0 .4.4.8.4 1.3.1.4 0 .9-.1 1.4.3.3 1 0 1.1.8l-.2.4c-.3.4-.3.8 0 1.2l.2.4c-.1.9.5 1.3 1.2 1.6.4.1.5.4.7.7.5.7.3 1.5.5 2.2l.3 1.9c0 .2.1.4.3.5.4.4.6.9.6 1.5l.3.9.2.5c-.2.8.5 1.4.6 2.2l.4.2c.3.1.4.4.4.7v.8c0 .5.1 1 .6 1.2l.3.3.5 1.5.2 1.6c.4.6.8 1.3 1.4 1.8.2.1.2.4.3.6l.4 1.2c.2.7.2.9-.1 1.7l.5.7c.2.4.4.7.4 1.2v.3c.4.8.2 1.5-.6 2.1-.8.1-1.7.3-2.3-.7.4-.9.2-1.6-.6-2.2-.4-.3-.6-.8-.4-1.5.2-.5.1-1-.2-1.4l-.5-.8c-.5-.5-.8-1.1-1.1-1.6a3 3 0 0 0-.9-1.3l.4-1c-.1-.3-.5-.6-.4-1 .1-.6-.2-1.1-.5-1.5l-.1-.2c-.7-1.1-.7-1.1-.7-2.4-.6-.5-1.1-1-1-1.9.1-.4-.1-.7-.5-1-.4-.3-.7-.7-.6-1.3l-.2-.5a15 15 0 0 0-1-1.7c-.4-.5-.7-1.2-.3-2l-.5-.3c-.3-.2-.4-.5-.3-.9l.2-.7c0-.2 0-.5-.2-.6-.6-.3-.7-1.1-1.2-1.5-.2-.2-.2-.5-.2-.8l.3-.6-.5-.6c.2-.6.6-1.1 0-1.9l-.9-.4-.5-1.4-.7-1.2c-.1-.4 0-.8-.3-1.2-.2-.2-.2-.5-.1-.9.3-.8-.1-1.3-.6-1.9a.8.8 0 0 0-.4-.2c-.3-.2-.5-.4-.5-.8s0-.7-.3-1c-.4-.5-.3-1 .3-1.4-.6-.8-1.2-1.5-1.3-2.5a2 2 0 0 1-.6-.4c-.2-.1-.3-.4-.4-.6l-.3-1.8-1.3-1.8c0-.7.7-.7.8-1l-.1-.2a4.7 4.7 0 0 1-1.5-2.4l-.5-.7-.7-.6-.1-.2.1-1.1-.4-.9c-.2-.8-.1-1.7-.3-2.5-.4-.3-.9-.5-1.2-1.1l.4-1.2-.2-.2c-.6-.2-.9-.6-.8-1.2 0-.2 0-.5-.2-.6-.3-.2-.3-.5-.3-.8 0-.5 0-1.1-.2-1.6-.1-.2.1-.5.2-.8l-.7-.9.3-1.1-.2-.1c-.5-.1-.8-.3-.9-.9 0-.4-.4-.9 0-1.3-.1-.5-.2-1-.6-1.3-.2-.2-.4-.5-.7-.6-.4-.2-.6-.6-.8-.9-.3-.4-.4-.8-.1-1.3l.2-.6c-.5-.8-.2-1.2.1-1.7zm-91.1 269.3c.3-.2.7-.2 1 .1l.3.2c.6.1 1.1.4 1.3 1l1.6-.4c.6.2.8.6.8 1.1l.8-.2c.5-.1.7-.1.9.4l.2.5.3.4c.9-.1 1.7.4 2.3 1l.3-.1c.8-.4 1.6-.3 2.2.3l1 .9.2.1 2.3.7c1 .2 1 .1 1.4 1l.3-.1c.4-.2.7-.1 1 .2l.6.7.3.4.3-.1c.5-.4.9-.2 1.3.1l.7.6c.7.5 1.4.9 2.3.9.2 0 .5.1.7.3.4.3.8.4 1.2.2 1.1 0 2.3-.2 3.2.8l.6-.2c.5-.1.8.1 1 .5l.4.9c.3.2.8.2 1.1.6.4.4.9.7 1.6.8l.7.3c.4.1.7.3.7.7l.2.4.3.2c.5-.3.9.2 1.3.3l1.2.5 1-.6c.5 0 .7.3 1 .6.3.4.7.8 1.3.9.4 0 .8.2 1.2.4.5.2.9.3 1.1.8.1.3.4.4.8.3.8-.2 1.5.2 2.3.2.5 0 .7.2 1.1.8l1.1.2c.4.1.6.4.7.8v.5l1.4.3 1.3.5c.1 0 .2.1.2 0 .6-.3 1 0 1.5.4.4.3.9.4 1.3.5.3.1.6.1.8.4.2.2.3.3.2.6l.1.3.2.1c.5.7 1.3.8 2 .9.9.1 1.4.5 1.5 1.2l.8.5c.3.2.6.4 1 .4.3 0 .6.2.7.5l.5 1.1c.1.1.1.3 0 .4l-.8 1.3c-.1.2-.5.2-.7.1l-.3-.3c-.5-.5-.5-.5-1-.1-.4.3-.7.3-1 0-.4-.4-.9-.5-1.4-.5l-.4-.1-1.2-.5c-.2 0-.4-.3-.6-.4l-1 .1c-.5 0-.7-.2-.8-.6l-.1-.7-1.4-1.2-.8.1c-.4 0-.8 0-1-.5l-.4-.3-1.4-.9-.3-.3c-.1-.3-.3-.4-.6-.5-.3 0-.4-.5-.7-.5-.9 0-1.4-.7-2.2-.9a.8.8 0 0 1-.5-.2c-.5-.5-1-.6-1.6-.2l-.4-.5-.3-.3c-.6.1-1-.6-1.6-.6-.7.4-1.2 0-1.6-.4l-.4-.3c-.3-.5-.8-.8-1.4-.8l-.4-.3c-.5.5-1.2.3-1.8.2-.4-.1-.8-.3-1-.8l-.9-1.2c-.1-.2-.3-.3-.6-.2-.4.2-.6-.2-.9-.4-.3.2-.6.4-1 .2-.5-.2-1-.4-1.2-.9-.2-.5-.5-.7-.9-.8-.6-.1-1-.5-1.5-.8l-.6-.3c-.8.1-1.3-.5-2-.7l-1.9-.8c-.4-.2-.9-.3-1.3-.2-.5.1-.9-.1-1.3-.5l-.3-.3c-.4.1-.9.2-1.3-.1l-1.2-.6c-.5-.3-.5-.8-.8-1.2l-1-.2c-.5-.2-.8-.1-1.3 0-.6.3-1.2.2-1.8-.2l-1.2-1c-.4-.4-.8-.5-1.4-.6-.8 0-1.6-.3-2.3-.5l-.1-.1c-.4-.7-1.3-.9-1.8-1.5l-1.1-.8-.5-.1-.8-.1-1-.3-.2-.6-2.4-.3-.6-1-.9.2-1.2-.3c-.4 0-.7.2-1.2.1-.3-.1-.6-.3-.8-.6-.2-.3-.5-.6-.9-.6h-.1c-.5 0-.9-.8-1.5-.5l-1.5-.4c-.7-.1-1-.6-1.5-.9-.3-.2-.2-.7 0-1l1.2-1.3c.2-.2.4-.2.6-.1.4.3.9.3 1.4.3l.9.2c.4.1.6.3.7.6.2.5.6.7 1 .6.5-.2.9 0 1.4-.1.4-.1.6.4 1 .5l1.1.1c1.1.6 1.3.9 1.6 1.2zM294 142.7l-.4-.7c0-.5-.4-.9-.5-1.4a1 1 0 0 0-.9-.9c-.4-.1-.6-.4-.7-.7l-.3-1.1c-.1-.6-.4-1.1-.9-1.6l-1-.1c-.5-.5-.6-1.1-.3-1.7-.4-.3-.8-.5-1.3-.6-.6-.1-.7-.3-.7-.9l-.1-1.3c-.8-.1-1.5-.6-2.1-1-.3-.2-.4-.4-.5-.7-.1-.5-.4-1.1-.8-1.5-.5-.5-.8-1.2-1.1-1.8l-.3-.5c-.8-.3-1-.9-1-1.7l-.1-.4c-.6-.1-1-.6-1.7-.7-.5 0-.8-.5-.6-1 .2-.9-.3-1.6-.7-2.4-.2-.3-.6-.4-1-.5-.6-.1-.8-.4-.8-1l-.1-1c0-.3-.2-.6-.5-.8-.4-.2-.6-.6-.9-.9l-1.1-1.2a.8.8 0 0 0-.5-.2c-.3 0-.6 0-.7-.3l-.5-1.2c-.1-.3 0-.5 0-.8 0-.5-.1-1-.5-1.4-.9 0-1.5-.6-2.2-1-.2-.5-.1-.9-.1-1.3v-1.2c-.8-.6-1.8-1.2-2.4-2.2.1-.4.3-.9.1-1.4 0-.2.2-.4.4-.6.9.2 1.7.3 1.9 1.3.4.2.8.4 1.2.4.5.1.8.4 1 .9.2.5.4 1 1 1.2l.4.5.2.3c.9.3 1.2 1.2 2.1 1.6.5.2.5.3.9 1 .7 0 1.1.4 1.4 1 .6 1 .7 2.1 1.1 3.3.2.2.5.5 1 .5l.5.2c.6.2.9.6 1 1.2l.1.9c1.4 0 1.5 0 2 1.5l.1.1c1.4.9 1 .9.9 2.1l.8.6c.5.3.9.7.7 1.4-.1.3.2.6.5.7 1 .3 1.7 1 2 2l-.7.9c.2.3.5.3.7.3.6 0 1.1.2 1.6.6l-.2 1.1 1.1 1.4.2.5c.1.5.4.8.7 1.1.5.4 1.1.7 1.5 1.3l.5.3c.6.2.8.7.8 1.3v1c0 .4.3.6.8.6.7 0 .8 0 1 .7l.4 1.3c.7.2 1 .8 1.3 1.4.1.3-.2.8.3 1.1.3.2.4.5.6.8.2.3.4.7.7.9.6.4.7.9.6 1.6h.7l.5.2.5 2.1.9.4c.5.3.5.4.4 1v.4l.8.5c.5.4 1.2.8.9 1.6l1.3.4c.5.2.9.6 1 1.2l.3.6.4.7c.2.4.3.7.1 1.2-.2.6-.1.7.6.8l.6.1.1.9c0 .4-.2.6-.6.7l-.6.1c-.7.2-.8.2-1.1-.4-.1-.3-.3-.4-.5-.6a3 3 0 0 0-.8-.4c-.5-.2-1-.5-1-1.1 0-.3-.2-.6-.4-.8-.6-.2-1.1-.4-1.4-.9l-.3-.2c-.6-.2-1.1-.5-1-1.3 0-.4-.3-.8-.5-1.3l-.5-1.1-.8-.4-.4-1.3-.7-.1c-.3-.1-.5-.2-.5-.5s-.2-.6-.4-.8c-.2-.1-.3-.4-.4-.6l-.5-1.3c-.2-.4-.5-.7-.9-.8-.6.1-1.1 0-1.7-.2zM133 348.2c.2-.6.6-1 1.1-1.3.6-.3 1.1-.1 1.6.2.5-.2.8-.5 1-.9.4-.6.8-1.2 1.7-.9l.2-.6c.2-.6.4-1.1 1.2-.9l.5-.3c.4-.5.9-.6 1.4-.6l1.2-.3c.5-.3.9-.7.7-1.3l.1-.4 1.2-.5.4-.2c.5-.8 1.4-.8 2.1-1 .1 0 .3-.1.4 0 .5.3.8 0 1.2-.2.8-.5 1-1.3 1.4-2.1.3-.6.7-1 1.4-1 .3 0 .6-.2.8-.3l.8-.4.4-.2c.2-.4.7-.5 1-.8l1-.7c.4-.3.7-.4 1.2-.3l.8-.1.8-.8.2-.2c.4-.9 1.2-1.2 2.1-1.4.9-.2.9-.2 1.6.1l.4-.5c.5-.7.5-.7 1.3-.9.5-1 .5-1 1.6-.8l1.8-1.2.2-.1c.9-.3 1.5-.8 1.7-1.7l.5-.5c.5-.5.9-.5 1.6-.2l.3.2 1.1-1.4h1c.4 0 .7-.1.8-.5.1-.4.4-.6.8-.7l.6-.4.6.2h.3c.4-.4 1.1-.5 1.1-1.2l.2-.4c.7-.7 1.4-1.4 2.5-1.6l.6-.3a6 6 0 0 1 1.8-.5c.7-.1 1.2.3 1.2 1.3 0 .2-.1.5.1.7.5.4.2 1 .2 1.5l-.2.4-1.4 1.1c-.3.2-.6.3-.8.6a2 2 0 0 1-1.6.8l-1.7.3-.1.3c-.2.9-.2.9-1.1 1-.4 0-.7.2-1 .5l-.4.4c-.3.3-.6.4-.9.2a1 1 0 0 0-1.1 0l-.6.1h-.6l-.4.8-.8.5-.5.4c-.6.6-1.3 1-2.2.9-.4 0-.8-.1-1.3.2l-.2.9c-.4.2-.8.5-1.4.3-.1-.1-.3 0-.4.1l-1.4.5c-.3.1-.6.2-.8.5-.3.3-.5.6-1 .8l-.3.3c-.1.5-.4.7-.9.9l-1.8.6c-.6.1-1 .4-1 1l-.2.4c-.1.1-.3.3-.5.2-.4-.1-.6 0-1 .2-.5.3-1.1.5-1.9.4l-.6.8-.6.3c-.7 0-1 .5-1.3 1.1l-1.3.1c-.3 1-1.2 1.3-2.1 1.6l-.3.5a1 1 0 0 1-1 .4c-.5-.2-.8-.1-1.2.3l-.6.4-.4.4c-.3.7-.7 1-1.4.8l-.4.1-.9.5c-.1.2-.2.6-.5.8-.2.2-.6.2-1.1.4l-.2.2c-.2.4-.5.5-.9.5-.9-.2-1.5.4-1.8 1.1-.3.7-.8.9-1.4 1l-.4.1-.4.8c-.1.3-.4.5-.7.4-.5-.1-.8 0-1.2.2l-.9.2-.1.6c-.2.7-.5.9-1.3.9l-1.4-.1-.1.3c0 .3 0 .7-.3.8-.3.2-.7.4-1.1.4-.7-.1-1.1.3-1.3.8l-.2.2c-1-.1-1.4.7-1.9 1.4-.3.4-.7.6-1.2.5l-1.4-.2c-.4-.1-.7-.3-.8-.7-.2-.5 0-1 .4-1.2l.5-.3.6-.2.2-1.2.7-.2.5-.1c.4-.4.9-.5 1.5-.4.3.1.6-.2.8-.5.2-.4.5-.7 1-.9.4-.2.7-.5.9-.8.5-.6 1.1-.9 1.8-.9l1.5-.4zm29.8-263.5-.7.9c.5.6 1.1 1 1.7 1.4l.6.4.4.6.5 1.8c.1.4.1.7-.1 1-.4.3-.4.8-.6 1.3l.7.7c-.1.5-.2.9-.6 1.3-.5.4-.4 1-.6 1.6-.1.4-.3.8-.7.8-.5.1-.8.4-.8.8-.1.7-.6 1-1.1 1.2l-1.4.7-1.3.9-.4.4c-.6.4-1.3.7-2 .2-.3.3-.4.6-.4 1-.1.5-.4.7-.9.8l-.9.2c-.8.2-1.2-.1-1.4-.9l-.1-.3c-1.1.2-1.1.2-2-.3l-.5.2c-1 .2-1.8-.3-1.9-1.3v-1h-1c-.5-.6-.7-1.3-.3-2l.1-.5-.8-1.3-.2-.3c-.5-.2-.7-.6-.7-1.2a1 1 0 0 0-.2-.6c-.4-.5-.4-1.1-.2-1.6.1-.4.4-.8.6-1.1l-.1-1.7-.5-1.5.4-.7c.3-.4.5-.7.4-1.2 0-.6.5-1 .8-1.5a12 12 0 0 1 1.5-1.5l1.3-.4v.3l.2.3.3-.1.3-.4c.5-1.1.9-1.3 2-1 .5.1.9.1 1.3-.2l.8-.4c1.4.6 1.6.8 2.5 1.9l1-.4c.3-.1.6-.2.8-.1l2.1.6c.3.2.7.2 1.2.3.1.5.8.9.9 1.9zm-5.7 2.4c-.9-.4-1.7-.7-2.6-.9l-.5.7-.5.6-1.4.8c-.5.2-.8.8-1.5.6l-.3.1-.9.7-.1 2.1v.1c.3.6-.1 1.4.6 1.9l.1.3-.3.8c.5 1.3 1.4 2 2.9 1.9.3 0 .6 0 .8.2.5.4 1 .4 1.5.4l1.3.2 1-1 .3-.5c.3-.5.5-.6 1.1-.5l.8.2c.2 0 .5 0 .5-.4l-.8-1.3c.4-.9.4-.9 1.5-1.2-.7-1.4-.6-1.1-.4-2.2l-.2-.4a3 3 0 0 0-1.3-1.4c-1-.4-1.5-1-1.6-1.8zm-85.6 27.3a3 3 0 0 1-.4 1.7 1 1 0 0 0-.1.8c.1.3.1.6-.1.8l-.8.4h-.7l-.1.1c-.1.4-.2.8-.7.9-.2 0-.4.2-.5.4-.5.8-.5.8-1.5.8-.2.4-.5.9-1.2 1l-.9-.7-.3.1c-.7.9-1.2.7-2.2 0l-.5-.6c-.9-.2-2.1-.2-2.3-1.6-.5-.1-1.1-.4-1.7-.2l-.4-.1c-.5-.5-.8-1-.6-1.8.2-.6.1-.8-.5-.9-.7-.2-1-.6-1.4-1 .4-1.3.4-1.3 1.2-1.7v-.9c0-.3.1-.6.3-.8.5-.7.5-1.5.3-2.3-.1-.4-.6-.3-.9-.5-.3-.6-.1-1.1.3-1.7.4-.5.8-.8 1.4-1l-.2-.7c-.1-.5.1-1 .6-1.1.7-.3 1.2-.8 1.6-1.4.6-.9 1.5-1.1 2.5-1.2h1l.9.2.9.4c.4-.2.5-.6.9-.8.7-.2 1.2-.2 1.6.4.5.6 1.1 1.1 1.3 1.9.5.6.8 1.4 1.6 1.9.5.3.9.9 1.4 1.4.2.2.4.5.7.6.6.4.7 1 .4 1.6l-.6.9c.2.5.6.9.4 1.6l.2.4c.6 1.3.4 2-.9 2.7zm-12.7-2.9 1.2 1.6-.6.9c.3.3.7.5 1.1.6.4.2.7.4.8.8.1.6.5.7 1 .7h.8c.6 0 1.2 0 1.7.4l1.1-.5.7.3.5-1.3c.2-.5.7-.6 1.3-.7-.7-.8-.1-1.5.1-2.2-.6-.6-.6-.6-.8-1.4v-.1c-.2-1.1-.7-1.9-1.9-2.2-.4-.1-.7-.5-1.1-.5-.6 0-.8-.4-1.2-.6l-.7.4-.8.3-.8 1.8c-.6-.5-1.2-.2-1.7-.3l-.3.3-.4 1.7zm262.9-7.3-.9-.7c-.3-.2-.6-.4-.9-.2-.3.1-.6 0-.7-.2-.5-.7-1.2-.9-1.8-1.3l-.2-.1c-.5-.5-1-.6-1.7-.7l-.9-.2-1.3-1.5c-.3-.3-.6-.4-1.1-.2-.6.2-.7.1-1-.4l-.1-.3c-.3-.6-.4-.7-1.1-.6h-.3c-.7-.3-1-1-1.6-1.5a3 3 0 0 1-.7.5c-.8-.2-1.4-.5-1.8-1.2l-.7-.6-1-.3c-.4 0-.7-.2-1-.5l-.8-.4-1.2-.3-.7-.5-.8.4c-.7.3-1.2.1-1.7-.4-.7-.8-.7-.7-.9-1.6l-1.5-.4-1.4-.5c-.3-.1-.6-.4-.8-.7-.3-.6-.8-.8-1.4-.9l-.4-.1c-.4-.2-1-1-.9-1.5v-.1l.7-1.1.7-.6 1.5.9c.5-.1 1-.2 1.5.2h.9l.6 1h.4c.8-.3 1.4-.2 2 .3l1.4.8c.3.1.7.2 1 .1a2 2 0 0 1 1.7.5c.4.3.8.8 1.4.9.5.1.7.6.7 1.2l1-.4c.5.3 1 .6 1.7.6l.7.3.9.9c.3.4.6.6 1.1.4.3-.1.6 0 .9.1l1 .5c.2 0 .5.2.6.4.4.8 1 1.2 1.9 1.3l.1.7v.7c.4.4.9.7 1.5.6.6-.1 1.2.1 1.9.1l.5.6c.3.4.6.8 1.2.7.4 0 .7.3.7.6 0 .7.5.9.9 1.2 1 0 1.1 0 1.4.8l.4.8c.2.3.1.7-.2.9l-1.4 1zm-7.4 61.7-.2-.8-.3-.7-.8.2c-.4-.4-.7-.8-.7-1.4l-.1-.6c-.4-.4-.3-1-.6-1.5-.2-.4-.2-.8.2-1.2.4-.3.8-.3 1.2 0 .4.3.7.2 1.1.1.5.4 1 .9 1.7 1.1.4.1.5.5.3.9l-.5.8 1.3.7c.2.1.4.3.4.5.1.6.4.9 1 1 .7.2 1.1.6 1.1 1.4 0 .3.2.6.5.8.6.3.8.7.9 1.3l.1.4.6-.1c.6 0 1 .4 1.3.9.2.3.3.8.2 1.2l-.3 1.5c-.1.6-1 1.1-1.6 1.1-.3-.1-.6-.3-.7-.6v-.5c-.1-.6-.1-.6-.8-.6-.5 0-.8-.2-1-.6-.1-.3-.2-.6-.5-.7-.1-.1-.3-.3-.3-.5l-.4-.8-.8-1.4a4.3 4.3 0 0 0-2.3-1.9zM300.2 59.5l.7-.4c.4-.4.9-.4 1.4-.2l1.5.5c.3.1.7.2.8.7l-.7 1.9-.5.5-1.5.8-.4.1-1.8-.2c-.4-.1-.5-.3-.5-.9l-2.1-.4-.3-.4c-.7-.6-.2-1.5.4-1.8l1.3-.5c.2-.1.5-.1.8 0l.9.3zm29.5 46.9v-.3c.2-1.1.6-1.5 1.7-1.3l.8.2c.3.1.5.3.5.6 0 .5.3.9.4 1.3.2.5 0 1.1-.4 1.4l-.9.6c-.7.4-1.5.2-2-.4-.3-.4-.4-.9-.9-1.2-.1 0 0-.3 0-.4l.8-.5c.1 0 .1 0 0 0 .1 0 .1 0 0 0z"/><path d="m73.2 136.1-.1.1H73l.2-.1zm366.8 160h.1zm-47.4 102.7c.2.4.4.9 0 1.4.4.6.7 1.2 1.2 1.7.2.2.3.5.2.9-.3.9-.3 1.8-.9 2.6.5.7 1.1 1.3 1.1 2.3v.1l-.7.9c-.2.3-.2.7-.3 1.1-.2.6-.6 1-1.3 1-.3 0-.6-.1-.6-.4-.1-.4-.2-.7-.4-.9-.2-.3-.2-.7-.2-1 0-.6-.1-1.1-.4-1.7-.3-.5-.4-1.1-.3-1.8.1-.5-.1-1-.2-1.5-.3-.1-.6 0-.8.3l-.7.7-.8 1.1-.7.9c-.5.5-.5.5-.8 1.5l-1.6.8c-.3.2-.8 0-.8-.4 0-.7-.4-1.2-.7-1.8l-.3-.7c-.3-.8 0-1.4.8-1.6l.7-.1v-1.1c.1-.4.3-.7.2-1.1.3-.6.4-1.3 1-1.8.4-.3.5-.7.3-1.1-.3-.6-.2-1.1.5-1.6-.7-.1-1.4.3-1.9-.3-.6.1-1 .4-1.5.7-.9.5-1.4.5-2.2-.1l-.4-.5c-.4.1-.8.2-1.2 0-.4-.3-.5-.6-.4-1.1l-1-.5c-.3-.2-.4-.5-.2-.8.3-.5.6-1.1 1.4-.9l.4-.2c.4-.5 1-.5 1.5-.4l1.8.5c.5-.4 1-.1 1.4 0l1.3-.3c.3-.1.6-.2.8-.5l1.1-1.3c-.2-.7-.5-1.5-1.1-2.1l.7-1-.4-.6c-.3-.6-.6-1.1-.5-1.8v-1.5c.5-.4 1-.6 1.5-.2.6-.2.9.2 1.1.7l.4.5.5.4c.6.5.7 1.2.4 1.9-.3.7-.3 1.3.4 1.8.9-.5 1.6-1.3 2.4-1.9 0-.5.1-1 .5-1.4l.2-.5c0-.5.3-.9.7-1.2l.6-.5c.4-.4.9-.6 1.5-.3l.4-.7c.2-.3.5-.5.8-.4.4.1.7 0 1-.1.4-.1.6 0 .8.4.1.3.2.5.1.8-.2.5 0 .8.3 1.1l.8.6c-.4 1.1-.4 1.1-1.9 1.8v1c-.1.4-.2.8-.6 1.1l-1.1 1-.9 1.3.3 1.1-.8.9c.4.4.9.6 1.4.6.6 0 1.1.4 1.5.7.2.1.3.4.3.6-.1.5-.2 1-.6 1.4-.3.3-.7.5-1.1.5l-.7-.1c-.4-.1-.8-.1-1.1.2-.4.4-.9.4-1.4.2-.4.1-.6.3-.8.7zm45 3.9c-.6-.1-.9-.4-1.5-.2-.2.1-.5-.1-.6-.2-.4-.7-1.3-.8-1.8-1.3-.2-.2-.6-.4-.7-.7l-.4-.3-.7-.2c-.1-.5.1-.9.5-1.1.5-.2.9-.5 1.2-.8.3-.3.6-.3.9-.1.4.3.8.4 1.2.3a3 3 0 0 1 1.6.5c.3.3.7.4 1.1.2-.1-.5 0-1.1-.5-1.5l-.1-.2c-.2-.8-.9-1.2-1.6-1.5l.3-.9c0-.7.3-1.3.7-1.8l.2-.3c-.4-.8-.4-.8-.1-1.8-.5-.2-1-.3-1.2-.9l.3-.9c.5-.9.6-1.8 0-2.7-.2-.2-.1-.5.2-.7a3 3 0 0 0 1-1.2c0-.2.5-.3.7-.2l.9.5c.6.4.6.5.3 1.1l1 1.5c.7.4 1.9.6 2.5 1.5l-.4 2.6c.3.5.7 1 .8 1.8-.7.3-.9.9-1 1.5-.1.4.1.6.5.7l.6-.5c.3-.2.4-.4.5-.7.1-.4.3-.8.8-.9.3-.1.6-.3.7-.5.4-.7 1-1.2 1.1-2.1 0-.3.1-.5.3-.8.2-.4.5-.7 1-.7.6 0 .9-.3 1.2-.7l.4-.6.4-.1c.5 0 1-.2 1.3.3.4.6.6 1.3.4 2l-.5.6c-.3.3-.4.5-.5.9-.2.7-.4 1.3-.8 1.9l-.2.5c0 .4-.3.6-.5.9-.3.3-.6.4-1 .4-1.3 0-1.5.3-1 1.4.2.6 0 1.1-.1 1.5l.9 2c.7-.3 1.1.1 1.4.7 0 .2-.2.4-.1.6.1.9-.3 1.4-.9 1.9-.4.3-.7.5-1.1.5l-.6.1-.1.7c.1.6-.1 1.3.4 1.8.1.5.2 1 .1 1.5l-.3.7-.7.8c-.3.4-.6.7-1.1.8a2 2 0 0 0-.6.4l-1.2-.3c-.5-.2-1.1-.4-1.2-1.1-.1-.6-.5-.9-.9-1.3l-1.2-.2c-.2.3-.3.6-.6.8-.3.3-.5.7-.7 1.2-.2.6-.6 1.1-1 1.6s-.8.5-1.2.1c-.6-.5-1.1-1-.9-1.9-.2-.8.1-1.3.7-1.7l.5-.4c0-.7.1-1.3.6-1.9l.3-.8.2-.4c.1-.2.4-.3.4-.5-.4-.3-.5-.7-.5-1.2zm-23.1-6.8v-1.2c-.3-.4-.3-.8-.1-1.3l.1-.4-.1-.1c-1-.3-1.4-1-1.2-2 .1-.3-.1-.7-.1-1l-.1-.3c.2-1.2-.3-2.4.1-3.7l-.7-.5c-.3-.3-.2-.6.2-.7.6-.3 1.1-.1 1.7.2.5.2.8.5.8 1l.1.2 1.2.7c1 .4 1.2.7 1 1.8l-.1.4c.6.5.9 1.2 1.1 2 .1.3.3.5.6.7l.5-.8c.2-.2.6-.3.9-.4.4-1.3 1-2.4 2.5-2.5.3-.3.4-.6.4-1 .1-.6.3-1.1 1.1-1.3l.5.4c.4.3.8.6 1.4.4.3-.1.6.1.9.5l-.6.6c-.5.3-.8.7-.7 1.3 0 .3-.1.6-.4.8l-1.2 1.2.2.6-.2.7-.3 1.2-.3.6c-.3.3-.5.7-.6 1.1-.2.8-.8 1.3-1.6 1.5l-.5.1c.1.7.5 1 1.1 1.2l1.8.4c.2.2.4.6.4 1s.2.7.4 1c.3.4.2.7-.1 1-.4.4-.9.6-1.5.5a1 1 0 0 0-.9.1c-.2.2-.5.2-.8.1-.3-.2-.6-.4-.7-.9l-.1-.6a4 4 0 0 0-.2 1.9l.1.7c-.2.5-.2.9.1 1.3v.3c-.5.9-.1 1.8-.3 2.7-.1.3.2.7.3 1.1.4 1-.1 1.7-1.1 1.7h-1.3c-.4-.5-.7-1-.5-1.6l-.2-.2c-.9-.4-1.1-1.2-1.2-2.1v-.6l-.4-.5c-.4.4-.5.8-.6 1.2-.1.6-.4 1.2-.9 1.6-.3.2-.4.4-.5.8l-.2.4c-.5.6-1.3 1.2-2.1 1.5l-.8.1-.8-1.2.3-.6.5-.4-.6-.5a.7.7 0 0 1-.1-1.1l.5-.5c.7-.3.9-.8 1.1-1.4l.7-1.6c.2-.3.2-.8.3-1.4.2-.3.8-.5.8-1.2-.3-.1-.7-.1-.9-.3l-.9-.3a.6.6 0 0 0-.7.1c-.4.4-.9.3-1.3.3-.9 0-1.7-.4-2.5-.8-.3-.1-.5-.4-.4-.8v-1.2c-.1-.3.3-.5.6-.5l.3.1h.3l.7-.4c.3-.1.6-.2.9 0l.6.3h.8l1.2-.9c.6-.6 1.3-.6 2-.3.2-.4.2-.4.3-.3 0 0 .1 0 0 0 .1 0 0 0 0 0zM229.2 64.5l-.1-.4c-.3-.5-.2-.9.2-1.3.2-.1.4-.3.3-.5-.2-.5.1-.8.5-1.1l1.6-1.1.8-1.4c.4-.6 3.2-1.1 3.2-.2 0 .8-.2 1.6-.4 2.3-.1.4-.2.8 0 1.3.2.4.1.8-.3 1.2l-.8.8c-.4.5-.8.9-.9 1.6l-.5 1.2c-.1.2-.2.5-.1.7a2 2 0 0 1-.6 2c-.3.3-.4.6-.4 1 0 .9-.6 1.4-1.3 1.8l-.6.2c-.6.2-.7.5-.6 1.1.1.3.3.7.2.9-.3.5-.1 1.1-.3 1.6-.1.5-.4.9-.9 1.1l-.9.4a26 26 0 0 0-.5 1.6l-1.7 1.1c-.4.3-.9.4-1.3.1l-1.1-.5-.1-1.2c0-.6.1-1.3-.2-1.9-.2-.5-.1-.9.3-1.3l.6-.7c.5-.4.8-.7.9-1.4 0-.3.3-.5.6-.6l.7-.2.4-1.5c.1-.6.4-.9 1-1.1l.2-.2c-.3-.8-.1-1.5.6-2.1.2-.1.3-.3.3-.5.1-.7.4-1.2.8-1.7-.1-.3.1-.7.4-1.1zm-20 .8c-.4.9-.4.9-2.1 1-.1.1-.4.3-.4.5-.4.8-1.1 1.2-1.8 1.8-.5.4-1 .5-1.5.2l-1.4 2c1 .4 2 .8 2.7 1.6l.8.7c1.1.9 2.1 1 3.1.1l.3-.3c1.4 0 1.4 0 2.7 1.4l.1.1c.5 0 1.1 0 1.5.4.4.4.6.8.6 1.3l-.1 1c0 .4-.2.7-.6 1l-1.1.8-1.4-.1-.8.1c-.4.2-.7.4-1.2.2s-1.2-.3-1.5-.7a3 3 0 0 0-1.6-1c-.7-.2-1.2-.6-2-.5l-.1-.1c-.9-.8-2.2-.7-3.3-1.1-.7-.3-.9-.5-.9-1.1 0-.7 0-.7-.4-1.2h-.3c-1.4 0-2-.5-2-1.6l.1-1.3c.2-.6.3-1.3 1.5-1.2l.7-.4c.5-.3 1.1-.6 1.1-1.3 0-.2.2-.4.4-.5l1.1-.8h1.3l.2-.4.1-1 .3-.6c.5-.4 1.1-.7 1.6-1.2s1.3-.7 1.9-1.1l.4-.2c1.5-.1 2.8-.8 4.2-1.1a2 2 0 0 1 1.3.1c.3.1.5.3.5.6 0 .9-.3 1.8-.6 2.6l-.3.4-1.4.9-.9.3-.8-.3zm47.6 5c-.8-.4-1.6-.7-2.1-1.3l-.4-.3c-1.3-.1-1.7-1-2.6-1.4l-.4-.3c-1-1.4-2.9-1.8-4.8-2.2l-1.2-.2a3 3 0 0 1-.5-.7l-.3-.8-1.2-.7-.1-.4c0-.8.7-1.3 1.3-1.7.3-.2.9-.2 1.4-.3.5-.1 1-.5 1.6-.2l1 .8 1.2.8 1.1.9 1-.1c.6 0 1 .2 1.3.6.3.5.8 1 .9 1.5.2.5.8.7 1.3 1 .8-.1 1.4.5 2.2.5.7 0 1.2.3 1.5.8.2.4.5.6 1.1.8.2 0 .4.2.4.3.5.8 1.2 1.6 1.6 2.4.6 1.1.1 2.1-1 2.8l-.1.1-1.6 1.6c-.6.5-1.6.6-1.9 1.3l-.4.3c-1 .2-1.4.8-2.1 1.2-1.3.7-5 2.6-5.5 3.6-3.2-.1-1.2-1.7-2.1-4.1l.4-.4c.4-.3 1.1-.4 1.3-.8l.8-1c.4-.5 3.8-3.2 4.9-3 .1-.9 1-1.2 2-1.4.1 0 0 0 0 0z"/></svg>
